SplineFontDB: 3.0
FontName: OxygenSans-Regular
FullName: OxygenSans Regular
FamilyName: OxygenSans
Weight: Book
Copyright: 
Version: 1.0
ItalicAngle: 0
UnderlinePosition: 0
UnderlineWidth: 0
Ascent: 1638
Descent: 410
sfntRevision: 0x00010000
LayerCount: 2
Layer: 0 1 "Back"  1
Layer: 1 1 "Fore"  0
XUID: [1021 848 1411038578 5732658]
FSType: 0
OS2Version: 1
OS2_WeightWidthSlopeOnly: 0
OS2_UseTypoMetrics: 1
CreationTime: 1360803773
ModificationTime: 1360804287
PfmFamily: 33
TTFWeight: 400
TTFWidth: 5
LineGap: 0
VLineGap: 0
OS2TypoAscent: 1997
OS2TypoAOffset: 0
OS2TypoDescent: -650
OS2TypoDOffset: 0
OS2TypoLinegap: 0
OS2WinAscent: 1997
OS2WinAOffset: 0
OS2WinDescent: 650
OS2WinDOffset: 0
HheadAscent: 1997
HheadAOffset: 0
HheadDescent: -650
HheadDOffset: 0
OS2Vendor: 'newt'
Lookup: 258 0 0 "'kern' Horizontal Kerning in Latin lookup 0"  {"'kern' Horizontal Kerning in Latin lookup 0 subtable"  } ['kern' ('DFLT' <'dflt' > 'latn' <'dflt' > ) ]
MarkAttachClasses: 1
DEI: 91125
ShortTable: maxp 16
  1
  0
  318
  94
  7
  51
  3
  2
  0
  1
  1
  0
  64
  0
  1
  1
EndShort
LangName: 1033 "" "" "" "FontForge : OxygenSans Regular : 13-2-2013" "" "Version 1.0" 
GaspTable: 1 65535 2 0
Encoding: UnicodeBmp
Compacted: 1
UnicodeInterp: none
NameList: AGL For New Fonts
DisplaySize: -48
AntiAlias: 1
FitToEm: 1
WinInfo: 0 22 9
BeginPrivate: 0
EndPrivate
TeXData: 1 0 0 248320 124160 82773 508928 -1048576 82773 783286 444596 497025 792723 393216 433062 380633 303038 157286 324010 404750 52429 2506097 1059062 262144
BeginChars: 65548 318

StartChar: .notdef
Encoding: 65536 -1 0
Width: 903
Flags: W
LayerCount: 2
UndoRedoHistory
Layer: 1
Undoes
EndUndoes
Redoes
EndRedoes
EndUndoRedoHistory
Fore
SplineSet
180 204 m 1,0,-1
 724 204 l 1,1,-1
 724 788 l 1,2,-1
 180 788 l 1,3,-1
 180 204 l 1,0,-1
90 113 m 1,4,-1
 90 879 l 1,5,-1
 814 879 l 1,6,-1
 814 113 l 1,7,-1
 90 113 l 1,4,-1
EndSplineSet
EndChar

StartChar: exclam
Encoding: 33 33 4
Width: 447
GlyphClass: 2
Flags: W
LayerCount: 2
UndoRedoHistory
Layer: 1
Undoes
EndUndoes
Redoes
EndRedoes
EndUndoRedoHistory
Fore
SplineSet
197 391 m 1,0,-1
 144 1256 l 1,1,-1
 144 1367 l 1,2,-1
 306 1367 l 1,3,-1
 306 1256 l 1,4,-1
 257 391 l 1,5,-1
 197 391 l 1,0,-1
311.5 21.5 m 128,-1,7
 283 -12 283 -12 227 -12 c 128,-1,8
 171 -12 171 -12 142 22 c 128,-1,9
 113 56 113 56 113 102.5 c 128,-1,10
 113 149 113 149 142 182.5 c 128,-1,11
 171 216 171 216 227 216 c 128,-1,12
 283 216 283 216 311.5 182.5 c 128,-1,13
 340 149 340 149 340 102 c 128,-1,6
 340 55 340 55 311.5 21.5 c 128,-1,7
EndSplineSet
EndChar

StartChar: quotedbl
Encoding: 34 34 5
Width: 606
GlyphClass: 2
Flags: W
LayerCount: 2
UndoRedoHistory
Layer: 1
Undoes
EndUndoes
Redoes
EndRedoes
EndUndoRedoHistory
Fore
SplineSet
131 940 m 1,0,-1
 115 1377 l 1,1,-1
 229 1377 l 1,2,-1
 201 940 l 1,3,-1
 131 940 l 1,0,-1
396 937 m 1,4,-1
 380 1377 l 1,5,-1
 493 1377 l 1,6,-1
 468 937 l 1,7,-1
 396 937 l 1,4,-1
EndSplineSet
EndChar

StartChar: numbersign
Encoding: 35 35 6
Width: 1132
GlyphClass: 2
Flags: W
LayerCount: 2
UndoRedoHistory
Layer: 1
Undoes
EndUndoes
Redoes
EndRedoes
EndUndoRedoHistory
Fore
SplineSet
239 -23 m 1,0,-1
 306 374 l 1,1,-1
 156 374 l 1,2,-1
 165 475 l 1,3,-1
 322 475 l 1,4,-1
 379 855 l 1,5,-1
 226 855 l 1,6,-1
 234 953 l 1,7,-1
 400 953 l 1,8,-1
 478 1329 l 1,9,-1
 602 1329 l 1,10,-1
 527 953 l 1,11,-1
 760 953 l 1,12,-1
 823 1329 l 1,13,-1
 920 1329 l 1,14,-1
 861 953 l 1,15,-1
 975 953 l 1,16,-1
 963 856 l 1,17,-1
 844 856 l 1,18,-1
 779 475 l 1,19,-1
 902 475 l 1,20,-1
 893 374 l 1,21,-1
 767 374 l 1,22,-1
 686 -23 l 1,23,-1
 565 -23 l 1,24,-1
 643 374 l 1,25,-1
 409 374 l 1,26,-1
 336 -23 l 1,27,-1
 239 -23 l 1,0,-1
428 475 m 1,28,-1
 662 475 l 1,29,-1
 741 856 l 1,30,-1
 507 856 l 1,31,-1
 428 475 l 1,28,-1
EndSplineSet
EndChar

StartChar: percent
Encoding: 37 37 7
Width: 1657
GlyphClass: 2
Flags: W
LayerCount: 2
UndoRedoHistory
Layer: 1
Undoes
EndUndoes
Redoes
EndRedoes
EndUndoRedoHistory
Fore
SplineSet
352 768 m 128,-1,1
 435 768 435 768 480.5 836 c 128,-1,2
 526 904 526 904 526 1007 c 128,-1,3
 526 1110 526 1110 479.5 1182 c 128,-1,4
 433 1254 433 1254 351.5 1254 c 128,-1,5
 270 1254 270 1254 224.5 1181 c 128,-1,6
 179 1108 179 1108 179 1004 c 128,-1,7
 179 900 179 900 224 834 c 128,-1,0
 269 768 269 768 352 768 c 128,-1,1
352 662 m 128,-1,9
 221 662 221 662 142.5 758.5 c 128,-1,10
 64 855 64 855 64 1006 c 128,-1,11
 64 1157 64 1157 143 1256 c 128,-1,12
 222 1355 222 1355 353 1355 c 128,-1,13
 484 1355 484 1355 563.5 1256.5 c 128,-1,14
 643 1158 643 1158 643 1006.5 c 128,-1,15
 643 855 643 855 563 758.5 c 128,-1,8
 483 662 483 662 352 662 c 128,-1,9
335 -4 m 1,16,-1
 1058 1330 l 1,17,-1
 1206 1330 l 1,18,-1
 458 -4 l 1,19,-1
 335 -4 l 1,16,-1
1272 89 m 128,-1,21
 1369 89 1369 89 1423.5 161 c 128,-1,22
 1478 233 1478 233 1478 337 c 128,-1,23
 1478 441 1478 441 1423.5 511.5 c 128,-1,24
 1369 582 1369 582 1272 582 c 128,-1,25
 1175 582 1175 582 1121 510.5 c 128,-1,26
 1067 439 1067 439 1067 335 c 128,-1,27
 1067 231 1067 231 1121 160 c 128,-1,20
 1175 89 1175 89 1272 89 c 128,-1,21
1508 84.5 m 128,-1,29
 1423 -14 1423 -14 1271.5 -14 c 128,-1,30
 1120 -14 1120 -14 1036 84 c 128,-1,31
 952 182 952 182 952 336 c 128,-1,32
 952 490 952 490 1036.5 588 c 128,-1,33
 1121 686 1121 686 1273.5 686 c 128,-1,34
 1426 686 1426 686 1509.5 589 c 128,-1,35
 1593 492 1593 492 1593 337.5 c 128,-1,28
 1593 183 1593 183 1508 84.5 c 128,-1,29
EndSplineSet
EndChar

StartChar: ampersand
Encoding: 38 38 8
Width: 1275
GlyphClass: 2
Flags: W
LayerCount: 2
UndoRedoHistory
Layer: 1
Undoes
EndUndoes
Redoes
EndRedoes
EndUndoRedoHistory
Fore
SplineSet
1244 33 m 1,0,-1
 1120 -13 l 1,1,-1
 997 129 l 1,2,3
 809 -25 809 -25 549 -25 c 0,4,5
 196 -25 196 -25 108 197 c 0,6,7
 80 266 80 266 80 338 c 0,8,9
 80 520.050632911 80 520.050632911 197.340290915 631.449643273 c 0,10,11
 272.391752577 702.701030928 272.391752577 702.701030928 391 761 c 1,12,13
 259.569620253 901.192405063 259.569620253 901.192405063 238 981 c 0,14,15
 228 1018 228 1018 228 1062 c 0,16,17
 228 1195 228 1195 322.5 1274.5 c 128,-1,18
 417 1354 417 1354 584 1354 c 0,19,20
 793.0625 1354 793.0625 1354 888 1230 c 0,21,22
 937 1166 937 1166 937 1078 c 0,23,24
 937 873.397260274 937 873.397260274 619 734 c 1,25,-1
 1006 327 l 1,26,27
 1078 400 1078 400 1135 533 c 1,28,-1
 1228 455 l 1,29,30
 1173 330 1173 330 1087 229 c 1,31,-1
 1244 33 l 1,0,-1
901 229 m 1,32,-1
 479 668 l 1,33,34
 222 539.5 222 539.5 222 362 c 0,35,36
 222 243 222 243 310.5 175 c 128,-1,37
 399 107 399 107 572.5 107 c 128,-1,38
 746 107 746 107 901 229 c 1,32,-1
533 820 m 1,39,40
 688.031055901 894.285714286 688.031055901 894.285714286 734.01552795 947.167857143 c 128,-1,41
 780 1000.05 780 1000.05 780 1072.525 c 128,-1,42
 780 1145 780 1145 724 1188.5 c 128,-1,43
 668 1232 668 1232 597.5 1232 c 128,-1,44
 527 1232 527 1232 482 1212 c 0,45,46
 386 1169.33333333 386 1169.33333333 386 1060 c 0,47,48
 386 978.589285714 386 978.589285714 455 898.5 c 0,49,50
 483 866 483 866 533 820 c 1,39,40
EndSplineSet
EndChar

StartChar: quotesingle
Encoding: 39 39 9
Width: 319
GlyphClass: 2
Flags: W
LayerCount: 2
UndoRedoHistory
Layer: 1
Undoes
EndUndoes
Redoes
EndRedoes
EndUndoRedoHistory
Fore
SplineSet
113 900 m 1,0,-1
 97 1354 l 1,1,-1
 219 1354 l 1,2,-1
 203 900 l 1,3,-1
 113 900 l 1,0,-1
EndSplineSet
EndChar

StartChar: parenleft
Encoding: 40 40 10
Width: 631
GlyphClass: 2
Flags: W
LayerCount: 2
UndoRedoHistory
Layer: 1
Undoes
EndUndoes
Redoes
EndRedoes
EndUndoRedoHistory
Fore
SplineSet
524 1454 m 1,0,1
 287 1088.94354839 287 1088.94354839 287 650 c 0,2,3
 287 151 287 151 523 -219 c 1,4,-1
 383 -219 l 1,5,6
 268 -58 268 -58 203.5 169.5 c 128,-1,7
 139 397 139 397 139 646 c 0,8,9
 139 1102.37606838 139 1102.37606838 381 1454 c 1,10,-1
 524 1454 l 1,0,1
EndSplineSet
EndChar

StartChar: parenright
Encoding: 41 41 11
Width: 648
GlyphClass: 2
Flags: W
LayerCount: 2
UndoRedoHistory
Layer: 1
Undoes
EndUndoes
Redoes
EndRedoes
EndUndoRedoHistory
Fore
SplineSet
119 -219 m 1,0,1
 355 138.933333333 355 138.933333333 355 654 c 0,2,3
 355 870 355 870 301.5 1059.5 c 128,-1,4
 248 1249 248 1249 119 1454 c 1,5,-1
 261 1454 l 1,6,7
 503 1098 503 1098 503 651 c 0,8,9
 503 402 503 402 438 169.5 c 128,-1,10
 373 -63 373 -63 260 -219 c 1,11,-1
 119 -219 l 1,0,1
EndSplineSet
EndChar

StartChar: asterisk
Encoding: 42 42 12
Width: 1115
GlyphClass: 2
Flags: W
LayerCount: 2
UndoRedoHistory
Layer: 1
Undoes
EndUndoes
Redoes
EndRedoes
EndUndoRedoHistory
Fore
SplineSet
444 524 m 1,0,-1
 332 649 l 1,1,-1
 467 817 l 1,2,-1
 158 905 l 1,3,-1
 236 1061 l 1,4,-1
 411 971 l 1,5,-1
 402 1319 l 1,6,-1
 576 1286 l 1,7,-1
 541 1084 l 1,8,-1
 855 1192 l 1,9,-1
 872 1016 l 1,10,-1
 688 988 l 1,11,12
 696 977 696 977 754.737637363 878.782967033 c 0,13,14
 813.475274725 780.565934066 813.475274725 780.565934066 884 692 c 1,15,16
 859 676 859 676 808.793103448 658.620689655 c 0,17,18
 758.586206897 641.24137931 758.586206897 641.24137931 731 624 c 1,19,20
 728.045454545 632.863636364 728.045454545 632.863636364 682.022727273 725.931818182 c 2,21,22
 636 819 l 1,23,-1
 444 524 l 1,0,-1
EndSplineSet
EndChar

StartChar: plus
Encoding: 43 43 13
Width: 1057
GlyphClass: 2
Flags: W
LayerCount: 2
UndoRedoHistory
Layer: 1
Undoes
EndUndoes
Redoes
EndRedoes
EndUndoRedoHistory
Fore
SplineSet
474 141 m 1,0,-1
 474 536 l 1,1,-1
 113 536 l 1,2,-1
 113 644 l 1,3,-1
 475 644 l 1,4,-1
 475 1033 l 1,5,-1
 580 1033 l 1,6,-1
 580 644 l 1,7,-1
 933 644 l 1,8,-1
 933 536 l 1,9,-1
 579 536 l 1,10,-1
 579 141 l 1,11,-1
 474 141 l 1,0,-1
EndSplineSet
EndChar

StartChar: comma
Encoding: 44 44 14
Width: 456
GlyphClass: 2
Flags: W
LayerCount: 2
UndoRedoHistory
Layer: 1
Undoes
EndUndoes
Redoes
EndRedoes
EndUndoRedoHistory
Fore
SplineSet
137 -257 m 1,0,1
 162.368421053 -54.0526315789 162.368421053 -54.0526315789 172 206 c 1,2,-1
 335 206 l 1,3,-1
 336 169 l 1,4,5
 333 156 333 156 317.5 97.5 c 128,-1,6
 302 39 302 39 289.428571429 -9.71428571429 c 0,7,8
 276.857142857 -58.4285714286 276.857142857 -58.4285714286 259.5 -110.5 c 2,9,-1
 237.5 -176.5 l 2,10,11
 224 -217 224 -217 209 -257 c 1,12,-1
 137 -257 l 1,0,1
EndSplineSet
EndChar

StartChar: hyphen
Encoding: 45 45 15
Width: 688
GlyphClass: 2
Flags: W
LayerCount: 2
UndoRedoHistory
Layer: 1
Undoes
EndUndoes
Redoes
EndRedoes
EndUndoRedoHistory
Fore
SplineSet
117 462 m 1,0,-1
 117 582 l 1,1,-1
 560 582 l 1,2,-1
 560 462 l 1,3,-1
 117 462 l 1,0,-1
EndSplineSet
EndChar

StartChar: period
Encoding: 46 46 16
Width: 463
GlyphClass: 2
Flags: W
LayerCount: 2
UndoRedoHistory
Layer: 1
Undoes
EndUndoes
Redoes
EndRedoes
EndUndoRedoHistory
Fore
SplineSet
239.5 -14 m 0,0,1
 120 -14 120 -14 120 105.666666667 c 0,2,3
 120 147 120 147 148.5 180.5 c 128,-1,4
 177 214 177 214 233 214 c 128,-1,5
 289 214 289 214 317.5 180.5 c 128,-1,6
 346 147 346 147 346 90 c 128,-1,7
 346 33 346 33 307.5 9.5 c 128,-1,8
 269 -14 269 -14 239.5 -14 c 0,0,1
EndSplineSet
EndChar

StartChar: slash
Encoding: 47 47 17
Width: 919
GlyphClass: 2
Flags: W
LayerCount: 2
UndoRedoHistory
Layer: 1
Undoes
EndUndoes
Redoes
EndRedoes
EndUndoRedoHistory
Fore
SplineSet
89 -205 m 1,0,-1
 721 1327 l 1,1,-1
 830 1327 l 1,2,-1
 195 -205 l 1,3,-1
 89 -205 l 1,0,-1
EndSplineSet
EndChar

StartChar: zero
Encoding: 48 48 18
Width: 1177
GlyphClass: 2
Flags: W
LayerCount: 2
UndoRedoHistory
Layer: 1
Undoes
EndUndoes
Redoes
EndRedoes
EndUndoRedoHistory
Fore
SplineSet
896 675 m 0,0,1
 896 1242 896 1242 593 1242 c 0,2,3
 447 1242 447 1242 364.248502994 1097.43413174 c 128,-1,4
 281.497005988 952.868263473 281.497005988 952.868263473 281.497005988 668.877318534 c 128,-1,5
 281.497005988 384.886373594 281.497005988 384.886373594 363.748502994 239.943186797 c 128,-1,6
 446 95 446 95 593 95 c 0,7,8
 830.142857143 95 830.142857143 95 882.5 461.5 c 0,9,10
 896 556 896 556 896 675 c 0,0,1
851 60 m 1,11,12
 745.390693003 -27.5048543689 745.390693003 -27.5048543689 610.260880482 -27.5048543689 c 0,13,14
 356.708737864 -27.5048543689 356.708737864 -27.5048543689 244.354368932 163.497572816 c 128,-1,15
 132 354.5 132 354.5 132 669 c 0,16,17
 132 1112.3125 132 1112.3125 339 1280.5 c 0,18,19
 443 1365 443 1365 574.5 1365 c 0,20,21
 819.127071823 1365 819.127071823 1365 932.063535912 1180.84234234 c 128,-1,22
 1045 996.684684685 1045 996.684684685 1045 669 c 0,23,24
 1045 226 1045 226 851 60 c 1,11,12
EndSplineSet
EndChar

StartChar: three
Encoding: 51 51 19
Width: 1137
GlyphClass: 2
Flags: W
LayerCount: 2
UndoRedoHistory
Layer: 1
Undoes
EndUndoes
Redoes
EndRedoes
EndUndoRedoHistory
Fore
SplineSet
143 1264 m 1,0,1
 310.215686275 1368 310.215686275 1368 505.595794944 1368 c 128,-1,2
 700.975903614 1368 700.975903614 1368 823.987951807 1280.73504274 c 128,-1,3
 947 1193.47008547 947 1193.47008547 947 1026.56837607 c 0,4,5
 947 785.168674699 947 785.168674699 689 723 c 1,6,7
 823 697 823 697 903 604.5 c 128,-1,8
 983 512 983 512 983 366 c 0,9,10
 983 187 983 187 858.5 84.5 c 128,-1,11
 734 -18 734 -18 521 -18 c 0,12,13
 410 -18 410 -18 303 20 c 128,-1,14
 196 58 196 58 158 90 c 1,15,-1
 208 197 l 1,16,17
 255 163 255 163 344.5 132.5 c 128,-1,18
 434 102 434 102 527 102 c 128,-1,19
 620 102 620 102 690 130.5 c 0,20,21
 839 191.164285714 839 191.164285714 839 366 c 0,22,23
 839 458 839 458 813.5 500 c 0,24,25
 768.99915326 573.295512278 768.99915326 573.295512278 713.5 601.5 c 0,26,27
 608.541547278 654.839541547 608.541547278 654.839541547 413 659 c 1,28,-1
 373 659 l 1,29,-1
 373 781 l 1,30,-1
 414 781 l 1,31,32
 559.9984375 784.5609375 559.9984375 784.5609375 605.99921875 798.28046875 c 128,-1,33
 652 812 652 812 692.630272953 827.574937965 c 128,-1,34
 733.260545906 843.149875931 733.260545906 843.149875931 769.630272953 891.98922368 c 128,-1,35
 806 940.828571429 806 940.828571429 806 1017.41428571 c 128,-1,36
 806 1094 806 1094 766 1146.5 c 0,37,38
 688.666666667 1248 688.666666667 1248 510.924242424 1248 c 128,-1,39
 333.181818182 1248 333.181818182 1248 191 1156 c 1,40,-1
 143 1264 l 1,0,1
EndSplineSet
EndChar

StartChar: four
Encoding: 52 52 20
Width: 1152
GlyphClass: 2
Flags: W
LayerCount: 2
UndoRedoHistory
Layer: 1
Undoes
EndUndoes
Redoes
EndRedoes
EndUndoRedoHistory
Fore
SplineSet
748 0 m 1,0,-1
 748 348 l 1,1,-1
 122 348 l 1,2,-1
 122 478 l 1,3,-1
 741 1349 l 1,4,-1
 891 1349 l 1,5,-1
 891 464 l 1,6,-1
 1059 464 l 1,7,-1
 1048 348 l 1,8,-1
 891 348 l 1,9,-1
 891 0 l 1,10,-1
 748 0 l 1,0,-1
271 464 m 1,11,-1
 747 464 l 1,12,-1
 747 1160 l 1,13,-1
 271 464 l 1,11,-1
EndSplineSet
EndChar

StartChar: five
Encoding: 53 53 21
Width: 1146
GlyphClass: 2
Flags: W
LayerCount: 2
UndoRedoHistory
Layer: 1
Undoes
EndUndoes
Redoes
EndRedoes
EndUndoRedoHistory
Fore
SplineSet
205 200 m 1,0,1
 363.512195122 103 363.512195122 103 517.756097561 103 c 128,-1,2
 672 103 672 103 768 189 c 128,-1,3
 864 275 864 275 864 414.878787879 c 128,-1,4
 864 554.757575758 864 554.757575758 796.313253012 639.878787879 c 128,-1,5
 728.626506024 725 728.626506024 725 582 725 c 0,6,7
 475.621621622 725 475.621621622 725 385.5 666.5 c 0,8,9
 357 648 357 648 336 625 c 1,10,-1
 212 639 l 1,11,-1
 257 1349 l 1,12,-1
 959 1349 l 1,13,-1
 947 1230 l 1,14,-1
 384 1230 l 1,15,16
 384 1212.76470588 384 1212.76470588 367.5 994.382352941 c 128,-1,17
 351 776 351 776 351 769 c 1,18,19
 469 844 469 844 594 844 c 0,20,21
 831.805825243 844 831.805825243 844 947 674.5 c 0,22,23
 1017 571.5 1017 571.5 1017 448.25 c 0,24,25
 1017 215.549618321 1017 215.549618321 878.594594595 98.2748091603 c 128,-1,26
 740.189189189 -19 740.189189189 -19 535 -19 c 1,27,28
 535 -29.5973182668 535 -29.5973182668 500.972267537 -29.5973182668 c 0,29,30
 466.944535073 -29.5973182668 466.944535073 -29.5973182668 347.472267537 7.70134086659 c 0,31,32
 228 45 228 45 154 92 c 1,33,-1
 205 200 l 1,0,1
EndSplineSet
EndChar

StartChar: six
Encoding: 54 54 22
Width: 1211
GlyphClass: 2
Flags: W
LayerCount: 2
UndoRedoHistory
Layer: 1
Undoes
EndUndoes
Redoes
EndRedoes
EndUndoRedoHistory
Fore
SplineSet
376 760 m 1,0,1
 515.096774194 837 515.096774194 837 658.5 837 c 0,2,3
 730 837 730 837 803 805 c 128,-1,4
 876 773 876 773 929.5 716.5 c 0,5,6
 1045 594.523364486 1045 594.523364486 1045 409.815253672 c 128,-1,7
 1045 225.107142857 1045 225.107142857 925.578947368 103.553571429 c 128,-1,8
 806.157894737 -18 806.157894737 -18 591.578947368 -18 c 128,-1,9
 377 -18 377 -18 257 132 c 0,10,11
 160 254 160 254 160 420.5 c 128,-1,12
 160 587 160 587 221.45406547 717.994192186 c 128,-1,13
 282.90813094 848.988384372 282.90813094 848.988384372 528 1136.5 c 0,14,15
 554 1167 554 1167 580.5 1198.5 c 128,-1,16
 607 1230 607 1230 630 1256.5 c 2,17,-1
 710 1349 l 1,18,-1
 886 1349 l 1,19,-1
 376 760 l 1,0,1
465 126 m 128,-1,21
 525 100 525 100 589.5 100 c 0,22,23
 765.051948052 100 765.051948052 100 847.651727591 224.709471069 c 0,24,25
 900 303.745098039 900 303.745098039 900 397.87254902 c 128,-1,26
 900 492 900 492 869 560.5 c 128,-1,27
 838 629 838 629 772 671 c 128,-1,28
 706 713 706 713 621 713 c 0,29,30
 456.666666667 713 456.666666667 713 371.833333333 623.925 c 128,-1,31
 287 534.85 287 534.85 287 412 c 256,32,33
 287 287.078947368 287 287.078947368 367 195.5 c 0,34,20
 405 152 405 152 465 126 c 128,-1,21
EndSplineSet
EndChar

StartChar: seven
Encoding: 55 55 23
Width: 1103
GlyphClass: 2
Flags: W
LayerCount: 2
UndoRedoHistory
Layer: 1
Undoes
EndUndoes
Redoes
EndRedoes
EndUndoRedoHistory
Fore
SplineSet
324 1 m 1,0,-1
 805 1231 l 1,1,-1
 184 1231 l 1,2,-1
 168 1349 l 1,3,-1
 959 1349 l 1,4,-1
 959 1244 l 1,5,-1
 473 1 l 1,6,-1
 324 1 l 1,0,-1
EndSplineSet
EndChar

StartChar: eight
Encoding: 56 56 24
Width: 1156
GlyphClass: 2
Flags: W
LayerCount: 2
UndoRedoHistory
Layer: 1
Undoes
EndUndoes
Redoes
EndRedoes
EndUndoRedoHistory
Fore
SplineSet
985 1032 m 0,0,1
 985 799.210526316 985 799.210526316 732 706 c 1,2,3
 860.764578834 666.38012959 860.764578834 666.38012959 937.882289417 568.419794525 c 0,4,5
 1015 470.459459459 1015 470.459459459 1015 337 c 0,6,7
 1015 162.142857143 1015 162.142857143 890.36627907 72.0714285714 c 0,8,9
 765.73255814 -18 765.73255814 -18 580.023255814 -18 c 0,10,11
 394.313953488 -18 394.313953488 -18 267.656976744 72.020661157 c 0,12,13
 141 162.041322314 141 162.041322314 141 338 c 0,14,15
 141 606 141 606 428 704 c 1,16,17
 312 741 312 741 241 826.5 c 128,-1,18
 170 912 170 912 170 1032 c 0,19,20
 170 1191.21100917 170 1191.21100917 283.352941176 1279.60550459 c 0,21,22
 396.705882353 1368 396.705882353 1368 580 1368 c 0,23,24
 829.490196078 1368 829.490196078 1368 933.5 1213.5 c 0,25,26
 985 1137 985 1137 985 1032 c 0,0,1
579 93 m 0,27,28
 878 93 878 93 878 345 c 0,29,30
 878 422 878 422 839 484 c 0,31,32
 764.854506893 601.872322375 764.854506893 601.872322375 579 642 c 1,33,34
 442 613 442 613 359 538 c 128,-1,35
 276 463 276 463 276 342.5 c 128,-1,36
 276 222 276 222 353.5 157.5 c 128,-1,37
 431 93 431 93 579 93 c 0,27,28
579 754 m 1,38,39
 844 810.212121212 844 810.212121212 844 1037 c 0,40,41
 844 1138 844 1138 772 1196.5 c 128,-1,42
 700 1255 700 1255 579 1255 c 256,43,44
 458 1255 458 1255 384.5 1196 c 128,-1,45
 311 1137 311 1137 311 1031.5 c 128,-1,46
 311 926 311 926 379 854 c 128,-1,47
 447 782 447 782 579 754 c 1,38,39
EndSplineSet
EndChar

StartChar: colon
Encoding: 58 58 25
Width: 507
GlyphClass: 2
Flags: W
LayerCount: 2
UndoRedoHistory
Layer: 1
Undoes
EndUndoes
Redoes
EndRedoes
EndUndoRedoHistory
Fore
SplineSet
166 -25 m 1,0,-1
 166 174 l 1,1,-1
 332 174 l 1,2,-1
 332 -25 l 1,3,-1
 166 -25 l 1,0,-1
166 822 m 1,4,-1
 166 1021 l 1,5,-1
 332 1021 l 1,6,-1
 332 822 l 1,7,-1
 166 822 l 1,4,-1
EndSplineSet
EndChar

StartChar: semicolon
Encoding: 59 59 26
Width: 497
GlyphClass: 2
Flags: W
LayerCount: 2
UndoRedoHistory
Layer: 1
Undoes
EndUndoes
Redoes
EndRedoes
EndUndoRedoHistory
Fore
SplineSet
140 -281 m 1,0,-1
 191 164 l 1,1,-1
 340 164 l 1,2,-1
 226 -281 l 1,3,-1
 140 -281 l 1,0,-1
178 823 m 1,4,-1
 178 1023 l 1,5,-1
 344 1023 l 1,6,-1
 344 823 l 1,7,-1
 178 823 l 1,4,-1
EndSplineSet
EndChar

StartChar: less
Encoding: 60 60 27
Width: 1122
GlyphClass: 2
Flags: W
LayerCount: 2
UndoRedoHistory
Layer: 1
Undoes
EndUndoes
Redoes
EndRedoes
EndUndoRedoHistory
Fore
SplineSet
976 125 m 1,0,-1
 104 543 l 1,1,-1
 104 623 l 1,2,-1
 978 1071 l 1,3,-1
 978 942 l 1,4,-1
 242 587 l 1,5,-1
 976 253 l 1,6,7
 976 125 l 1,0,-1
EndSplineSet
EndChar

StartChar: equal
Encoding: 61 61 28
Width: 1165
GlyphClass: 2
Flags: W
LayerCount: 2
UndoRedoHistory
Layer: 1
Undoes
EndUndoes
Redoes
EndRedoes
EndUndoRedoHistory
Fore
SplineSet
143 347 m 1,0,-1
 143 462 l 1,1,-1
 1011 462 l 1,2,-1
 1011 347 l 1,3,-1
 143 347 l 1,0,-1
142 738 m 1,4,-1
 142 853 l 1,5,-1
 1011 853 l 1,6,-1
 1011 738 l 1,7,-1
 142 738 l 1,4,-1
EndSplineSet
EndChar

StartChar: greater
Encoding: 62 62 29
Width: 1132
GlyphClass: 2
Flags: W
LayerCount: 2
UndoRedoHistory
Layer: 1
Undoes
EndUndoes
Redoes
EndRedoes
EndUndoRedoHistory
Fore
SplineSet
137 130 m 1,0,-1
 137 260 l 1,1,-1
 870 587 l 1,2,-1
 139 949 l 1,3,-1
 139 1077 l 1,4,-1
 1011 622 l 1,5,-1
 1011 541 l 1,6,-1
 137 130 l 1,0,-1
EndSplineSet
EndChar

StartChar: question
Encoding: 63 63 30
Width: 883
GlyphClass: 2
Flags: W
LayerCount: 2
UndoRedoHistory
Layer: 1
Undoes
EndUndoes
Redoes
EndRedoes
EndUndoRedoHistory
Fore
SplineSet
375 387 m 1,0,1
 373.437093965 397.04725308 373.437093965 397.04725308 373.437093965 408.742104241 c 0,2,3
 373.437093965 492.18388878 373.437093965 492.18388878 459.218546983 672.577238508 c 128,-1,4
 545 852.970588235 545 852.970588235 545 939 c 1,5,6
 546.482158706 972.101544434 546.482158706 972.101544434 546.482158706 1025.03521946 c 128,-1,7
 546.482158706 1077.96889449 546.482158706 1077.96889449 532.741079353 1120.98444724 c 128,-1,8
 519 1164 519 1164 496.5 1186 c 128,-1,9
 474 1208 474 1208 438 1224 c 1,10,11
 402.176470588 1235.52941176 402.176470588 1235.52941176 350.235294118 1235.52941176 c 128,-1,12
 298.294117647 1235.52941176 298.294117647 1235.52941176 223 1212 c 1,13,14
 204.884615385 1212 204.884615385 1212 178.442307692 1239.5 c 128,-1,15
 152 1267 152 1267 147 1263 c 1,16,17
 254.942602463 1364.59303761 254.942602463 1364.59303761 336.248908297 1369.05676856 c 0,18,19
 355.497816594 1370.11353712 355.497816594 1370.11353712 378.21435518 1370.11353712 c 0,20,21
 591.956331878 1370.11353712 591.956331878 1370.11353712 648 1183 c 1,22,23
 660.393477614 1123.51130745 660.393477614 1123.51130745 660.393477614 1086.04327715 c 128,-1,24
 660.393477614 1048.57524685 660.393477614 1048.57524685 650.444253717 987.349253646 c 128,-1,25
 640.495029821 926.123260437 640.495029821 926.123260437 586.150740717 782.851952799 c 128,-1,26
 531.806451613 639.580645161 531.806451613 639.580645161 502 553 c 1,27,28
 502 523.40625 502 523.40625 476.5 498.703125 c 128,-1,29
 451 474 451 474 420.449579832 446.226890756 c 128,-1,30
 389.899159664 418.453781513 389.899159664 418.453781513 375 387 c 1,0,1
283 86 m 0,31,32
 283 216 283 216 406.03125 216 c 0,33,34
 454 216 454 216 483 182.5 c 128,-1,35
 512 149 512 149 512 110.5 c 0,36,37
 512 36.4814814815 512 36.4814814815 462 5 c 0,38,39
 435 -12 435 -12 388 -12 c 128,-1,40
 341 -12 341 -12 312 22 c 128,-1,41
 283 56 283 56 283 86 c 0,31,32
EndSplineSet
EndChar

StartChar: A
Encoding: 65 65 31
Width: 1266
GlyphClass: 2
Flags: W
LayerCount: 2
UndoRedoHistory
Layer: 1
Undoes
EndUndoes
Redoes
EndRedoes
EndUndoRedoHistory
Fore
SplineSet
635 1192 m 1,0,-1
 409 547 l 1,1,-1
 863 547 l 1,2,-1
 635 1192 l 1,0,-1
47 0 m 1,3,-1
 550 1349 l 1,4,-1
 717 1349 l 1,5,-1
 1220 0 l 1,6,-1
 1064 0 l 1,7,-1
 901 436 l 1,8,-1
 371 436 l 1,9,-1
 209 0 l 1,10,-1
 47 0 l 1,3,-1
EndSplineSet
EndChar

StartChar: B
Encoding: 66 66 32
Width: 1295
GlyphClass: 2
Flags: W
LayerCount: 2
UndoRedoHistory
Layer: 1
Undoes
EndUndoes
Redoes
EndRedoes
EndUndoRedoHistory
Fore
SplineSet
358 651 m 1,0,-1
 358 121 l 1,1,-1
 683 121 l 2,2,3
 864 121 864 121 945.5 182.5 c 128,-1,4
 1027 244 1027 244 1027 388 c 128,-1,5
 1027 532 1027 532 933 591.5 c 128,-1,6
 839 651 839 651 630 651 c 2,7,-1
 358 651 l 1,0,-1
358 1229 m 1,8,-1
 358 766 l 1,9,-1
 682 766 l 2,10,11
 834 766 834 766 894.051107325 808.035775128 c 0,12,13
 954.102214651 850.071550256 954.102214651 850.071550256 967.551107325 901.035775128 c 128,-1,14
 981 952 981 952 981 999 c 0,15,16
 981 1133 981 1133 898.5 1181 c 128,-1,17
 816 1229 816 1229 627 1229 c 2,18,-1
 358 1229 l 1,8,-1
912 712 m 1,19,20
 1187 635.496240602 1187 635.496240602 1187 380 c 0,21,22
 1187 201 1187 201 1067 100.5 c 128,-1,23
 947 0 947 0 708 0 c 2,24,-1
 199 0 l 1,25,-1
 199 1349 l 1,26,-1
 627 1349 l 2,27,28
 887 1349 887 1349 1009.5 1269.5 c 128,-1,29
 1132 1190 1132 1190 1132 1018 c 0,30,31
 1132 906 1132 906 1083 831.5 c 128,-1,32
 1034 757 1034 757 912 712 c 1,19,20
EndSplineSet
EndChar

StartChar: C
Encoding: 67 67 33
Width: 1229
GlyphClass: 2
Flags: W
LayerCount: 2
UndoRedoHistory
Layer: 1
Undoes
EndUndoes
Redoes
EndRedoes
EndUndoRedoHistory
Fore
SplineSet
803.965 108.95 m 0,0,1
 930.1 108.95 930.1 108.95 1090 185 c 1,2,-1
 1128 66 l 1,3,4
 1088 35 1088 35 989.5 8.5 c 128,-1,5
 891 -18 891 -18 761.5 -18 c 128,-1,6
 632 -18 632 -18 512 32 c 128,-1,7
 392 82 392 82 308.5 172.5 c 0,8,9
 132 363.796407186 132 363.796407186 132 673.215813656 c 128,-1,10
 132 982.635220126 132 982.635220126 296.5 1173 c 0,11,12
 376 1265 376 1265 496 1316.5 c 128,-1,13
 616 1368 616 1368 748 1368 c 0,14,15
 992.408163265 1368 992.408163265 1368 1146 1262 c 1,16,-1
 1090 1153 l 1,17,18
 949.697591047 1241.09686144 949.697591047 1241.09686144 766.636617332 1241.09686144 c 0,19,20
 583.575643617 1241.09686144 583.575643617 1241.09686144 454 1118 c 0,21,22
 292 964.1 292 964.1 292 674 c 0,23,24
 292 424.853658537 292 424.853658537 419.796052632 266.926829268 c 128,-1,25
 547.592105263 109 547.592105263 109 796 109 c 0,26,27
 800 108.95 800 108.95 803.965 108.95 c 0,0,1
EndSplineSet
EndChar

StartChar: D
Encoding: 68 68 34
Width: 1451
GlyphClass: 2
Flags: W
LayerCount: 2
UndoRedoHistory
Layer: 1
Undoes
EndUndoes
Redoes
EndRedoes
EndUndoRedoHistory
Fore
SplineSet
604 121 m 2,0,1
 1161 121 1161 121 1161 674 c 0,2,3
 1161 1132.38888889 1161 1132.38888889 781 1210.5 c 0,4,5
 691 1229 691 1229 579 1229 c 2,6,-1
 358 1229 l 1,7,-1
 358 121 l 1,8,-1
 604 121 l 2,0,1
199 0 m 1,9,-1
 199 1349 l 1,10,-1
 587 1349 l 2,11,12
 1153.0044843 1349 1153.0044843 1349 1285 928.5 c 0,13,14
 1320 817 1320 817 1320 678 c 0,15,16
 1320 458 1320 458 1233.5 304.5 c 0,17,18
 1061.90879479 -1.13686837722e-13 1061.90879479 -1.13686837722e-13 614 0 c 2,19,-1
 199 0 l 1,9,-1
EndSplineSet
EndChar

StartChar: E
Encoding: 69 69 35
Width: 1148
GlyphClass: 2
Flags: W
LayerCount: 2
UndoRedoHistory
Layer: 1
Undoes
EndUndoes
Redoes
EndRedoes
EndUndoRedoHistory
Fore
SplineSet
199 0 m 1,0,-1
 199 1349 l 1,1,-1
 1026 1349 l 1,2,-1
 1020 1229 l 1,3,-1
 358 1229 l 1,4,-1
 358 757 l 1,5,-1
 961 757 l 1,6,-1
 961 637 l 1,7,-1
 358 637 l 1,8,-1
 358 121 l 1,9,-1
 1029 121 l 1,10,-1
 1018 0 l 1,11,-1
 199 0 l 1,0,-1
EndSplineSet
EndChar

StartChar: F
Encoding: 70 70 36
Width: 1039
GlyphClass: 2
Flags: W
LayerCount: 2
UndoRedoHistory
Layer: 1
Undoes
EndUndoes
Redoes
EndRedoes
EndUndoRedoHistory
Fore
SplineSet
199 0 m 1,0,-1
 199 1349 l 1,1,-1
 981 1349 l 1,2,-1
 971 1227 l 1,3,-1
 361 1227 l 1,4,-1
 361 733 l 1,5,-1
 925 733 l 1,6,-1
 925 617 l 1,7,-1
 361 617 l 1,8,-1
 361 0 l 1,9,-1
 199 0 l 1,0,-1
EndSplineSet
EndChar

StartChar: G
Encoding: 71 71 37
Width: 1392
GlyphClass: 2
Flags: W
LayerCount: 2
UndoRedoHistory
Layer: 1
Undoes
EndUndoes
Redoes
EndRedoes
EndUndoRedoHistory
Fore
SplineSet
775 -18 m 0,0,1
 620 -18 620 -18 496.5 34 c 128,-1,2
 373 86 373 86 294 179 c 0,3,4
 132 369.708860759 132 369.708860759 132 672.949522404 c 128,-1,5
 132 976.190184049 132 976.190184049 300.5 1169.5 c 0,6,7
 382 1263 382 1263 507.5 1315.5 c 128,-1,8
 633 1368 633 1368 790 1368 c 0,9,10
 1058 1368 1058 1368 1208 1262 c 1,11,-1
 1163 1142 l 1,12,13
 1131 1160 1131 1160 1119.5 1166.5 c 0,14,15
 985.02294197 1242.50877193 985.02294197 1242.50877193 788.028470299 1242.50877193 c 0,16,17
 508.06498641 1242.50877193 508.06498641 1242.50877193 374.5 1014 c 0,18,19
 292 872.855421687 292 872.855421687 292 672 c 0,20,21
 292 109 292 109 805 109 c 0,22,23
 962 109 962 109 1094 149 c 1,24,-1
 1094 562 l 1,25,-1
 788 562 l 1,26,-1
 795 689 l 1,27,-1
 1243 689 l 1,28,-1
 1243 66 l 1,29,30
 1026 -18 1026 -18 775 -18 c 0,0,1
EndSplineSet
EndChar

StartChar: H
Encoding: 72 72 38
Width: 1432
GlyphClass: 2
Flags: W
LayerCount: 2
UndoRedoHistory
Layer: 1
Undoes
EndUndoes
Redoes
EndRedoes
EndUndoRedoHistory
Fore
SplineSet
196 0 m 1,0,-1
 196 1349 l 1,1,-1
 355 1349 l 1,2,-1
 355 751 l 1,3,-1
 1077 751 l 1,4,-1
 1077 1349 l 1,5,-1
 1236 1349 l 1,6,-1
 1236 0 l 1,7,-1
 1077 0 l 1,8,-1
 1077 635 l 1,9,-1
 355 635 l 1,10,-1
 355 0 l 1,11,-1
 196 0 l 1,0,-1
EndSplineSet
EndChar

StartChar: I
Encoding: 73 73 39
Width: 561
GlyphClass: 2
Flags: W
LayerCount: 2
UndoRedoHistory
Layer: 1
Undoes
EndUndoes
Redoes
EndRedoes
EndUndoRedoHistory
Fore
SplineSet
201 0 m 1,0,-1
 201 1349 l 1,1,-1
 361 1349 l 1,2,-1
 361 0 l 1,3,-1
 201 0 l 1,0,-1
EndSplineSet
EndChar

StartChar: K
Encoding: 75 75 40
Width: 1242
GlyphClass: 2
Flags: W
LayerCount: 2
UndoRedoHistory
Layer: 1
Undoes
EndUndoes
Redoes
EndRedoes
EndUndoRedoHistory
Fore
SplineSet
199 0 m 1,0,-1
 199 1349 l 1,1,-1
 358 1349 l 1,2,-1
 358 706 l 1,3,-1
 978 1349 l 1,4,-1
 1164 1349 l 1,5,-1
 597 754 l 1,6,-1
 1193 0 l 1,7,-1
 1006 0 l 1,8,-1
 486 673 l 1,9,-1
 358 555 l 1,10,-1
 358 0 l 1,11,-1
 199 0 l 1,0,-1
EndSplineSet
EndChar

StartChar: L
Encoding: 76 76 41
Width: 1054
GlyphClass: 2
Flags: W
LayerCount: 2
UndoRedoHistory
Layer: 1
Undoes
EndUndoes
Redoes
EndRedoes
EndUndoRedoHistory
Fore
SplineSet
199 0 m 1,0,-1
 199 1349 l 1,1,-1
 358 1349 l 1,2,-1
 358 121 l 1,3,-1
 994 121 l 1,4,-1
 990 0 l 1,5,-1
 199 0 l 1,0,-1
EndSplineSet
EndChar

StartChar: M
Encoding: 77 77 42
Width: 1716
GlyphClass: 2
Flags: W
LayerCount: 2
UndoRedoHistory
Layer: 1
Undoes
EndUndoes
Redoes
EndRedoes
EndUndoRedoHistory
Fore
SplineSet
199 0 m 1,0,-1
 204 1349 l 1,1,-1
 403 1349 l 1,2,-1
 861 295 l 1,3,-1
 1319 1349 l 1,4,-1
 1512 1349 l 1,5,-1
 1517 0 l 1,6,-1
 1368 0 l 1,7,-1
 1366 869 l 1,8,-1
 1374 1143 l 1,9,-1
 931 124 l 1,10,-1
 789 124 l 1,11,-1
 344 1159 l 1,12,-1
 352 865 l 1,13,-1
 349 0 l 1,14,-1
 199 0 l 1,0,-1
EndSplineSet
EndChar

StartChar: N
Encoding: 78 78 43
Width: 1483
GlyphClass: 2
Flags: W
LayerCount: 2
UndoRedoHistory
Layer: 1
Undoes
EndUndoes
Redoes
EndRedoes
EndUndoRedoHistory
Fore
SplineSet
199 0 m 1,0,-1
 199 1349 l 1,1,-1
 356 1349 l 1,2,-1
 1148 195 l 1,3,-1
 1138 575 l 1,4,-1
 1138 1349 l 1,5,-1
 1285 1349 l 1,6,-1
 1285 0 l 1,7,-1
 1122 0 l 1,8,-1
 333 1146 l 1,9,-1
 346 731 l 1,10,-1
 346 0 l 1,11,-1
 199 0 l 1,0,-1
EndSplineSet
EndChar

StartChar: O
Encoding: 79 79 44
Width: 1555
GlyphClass: 2
Flags: W
LayerCount: 2
UndoRedoHistory
Layer: 1
Undoes
EndUndoes
Redoes
EndRedoes
EndUndoRedoHistory
Fore
SplineSet
1225.53957997 411.13085622 m 0,0,1
 1264 525.5 1264 525.5 1264 632.75 c 128,-1,2
 1264 740 1264 740 1254 805.5 c 0,3,4
 1211.67023264 1082.75997623 1211.67023264 1082.75997623 1017.20742397 1187.92863806 c 0,5,6
 917.226415094 1242 917.226415094 1242 788.613207547 1242 c 0,7,8
 540.315789474 1242 540.315789474 1242 416.157894737 1084.73333333 c 128,-1,9
 292 927.466666667 292 927.466666667 292 666 c 0,10,11
 292 237.666666667 292 237.666666667 600 135 c 0,12,13
 681 108 681 108 765.5 108 c 0,14,15
 1123.60176991 108 1123.60176991 108 1225.53957997 411.13085622 c 0,0,1
299.072625698 167.751552795 m 128,-1,17
 132 353.50310559 132 353.50310559 132 667 c 0,18,19
 132 879 132 879 207.5 1036.5 c 128,-1,20
 283 1194 283 1194 430 1281 c 128,-1,21
 577 1368 577 1368 753.5 1368 c 0,22,23
 1082.03825137 1368 1082.03825137 1368 1252.51912568 1176.60122699 c 128,-1,24
 1423 985.202453988 1423 985.202453988 1423 671.679351994 c 128,-1,25
 1423 358.15625 1423 358.15625 1256.74309392 170.078125 c 128,-1,26
 1090.48618785 -18 1090.48618785 -18 778.315719621 -18 c 128,-1,16
 466.145251397 -18 466.145251397 -18 299.072625698 167.751552795 c 128,-1,17
EndSplineSet
EndChar

StartChar: P
Encoding: 80 80 45
Width: 1188
GlyphClass: 2
Flags: W
LayerCount: 2
UndoRedoHistory
Layer: 1
Undoes
EndUndoes
Redoes
EndRedoes
EndUndoRedoHistory
Fore
SplineSet
199 0 m 1,0,-1
 199 1349 l 1,1,-1
 662 1349 l 2,2,3
 855.5 1349 855.5 1349 977.75 1264.7605042 c 0,4,5
 1100 1180.5210084 1100 1180.5210084 1100 1000 c 0,6,7
 1100 618 1100 618 658 618 c 0,8,9
 527 618 527 618 358 619 c 1,10,-1
 358 0 l 1,11,-1
 199 0 l 1,0,-1
653 734 m 2,12,13
 855 734 855 734 911.5 847 c 0,14,15
 940 904 940 904 940 998 c 0,16,17
 940 1229 940 1229 657 1229 c 2,18,-1
 358 1229 l 1,19,-1
 358 734 l 1,20,-1
 653 734 l 2,12,13
EndSplineSet
EndChar

StartChar: Q
Encoding: 81 81 46
Width: 1555
GlyphClass: 2
Flags: W
LayerCount: 2
UndoRedoHistory
Layer: 1
Undoes
EndUndoes
Redoes
EndRedoes
EndUndoRedoHistory
Fore
SplineSet
1178 -402 m 1,0,1
 1124 -351 1124 -351 1035 -230.5 c 128,-1,2
 946 -110 946 -110 888 2 c 1,3,-1
 1017 26 l 1,4,5
 1052 -46 1052 -46 1128 -149.5 c 128,-1,6
 1204 -253 1204 -253 1269 -319 c 1,7,-1
 1178 -402 l 1,0,1
778 997 m 0,8,-1
1144.58053691 261.392241379 m 128,-1,10
 1264 414.784482759 1264 414.784482759 1264 670.34563121 c 128,-1,11
 1264 925.906779661 1264 925.906779661 1142.10784314 1083.95338983 c 128,-1,12
 1020.21568627 1242 1020.21568627 1242 780 1242 c 0,13,14
 621 1242 621 1242 510 1169 c 0,15,16
 292 1025.63063063 292 1025.63063063 292 666 c 0,17,18
 292 413.5 292 413.5 412.969798658 260.75 c 128,-1,19
 533.939597315 108 533.939597315 108 779.55033557 108 c 128,-1,9
 1025.16107383 108 1025.16107383 108 1144.58053691 261.392241379 c 128,-1,10
299.072625698 167.751552795 m 128,-1,21
 132 353.50310559 132 353.50310559 132 667 c 0,22,23
 132 879 132 879 207.5 1036.5 c 128,-1,24
 283 1194 283 1194 430 1281 c 128,-1,25
 577 1368 577 1368 778.5 1368 c 128,-1,26
 980 1368 980 1368 1125.5 1280.5 c 128,-1,27
 1271 1193 1271 1193 1347 1035 c 128,-1,28
 1423 877 1423 877 1423 695 c 0,29,30
 1423 358.15625 1423 358.15625 1256.74309392 170.078125 c 128,-1,31
 1090.48618785 -18 1090.48618785 -18 778.315719621 -18 c 128,-1,20
 466.145251397 -18 466.145251397 -18 299.072625698 167.751552795 c 128,-1,21
EndSplineSet
EndChar

StartChar: S
Encoding: 83 83 47
Width: 1137
GlyphClass: 2
Flags: W
LayerCount: 2
UndoRedoHistory
Layer: 1
Undoes
EndUndoes
Redoes
EndRedoes
EndUndoRedoHistory
Fore
SplineSet
196 231 m 1,0,1
 363.416666667 108 363.416666667 108 567.414755352 108 c 128,-1,2
 771.412844037 108 771.412844037 108 841 210.5 c 0,3,4
 881.692307692 270.438669439 881.692307692 270.438669439 881.692307692 340.930873181 c 128,-1,5
 881.692307692 411.423076923 881.692307692 411.423076923 872.846153846 443.711538462 c 128,-1,6
 864 476 864 476 827.550847458 515.762711864 c 128,-1,7
 791.101694915 555.525423729 791.101694915 555.525423729 657 608 c 1,8,-1
 435 691 l 2,9,10
 221.0264205 771.627725609 221.0264205 771.627725609 173.5 906.5 c 0,11,12
 157.202380952 952.75 157.202380952 952.75 157.202380952 984.726190476 c 128,-1,13
 157.202380952 1016.70238095 157.202380952 1016.70238095 158.601190476 1053.35119048 c 128,-1,14
 160 1090 160 1090 178.5 1142.5 c 128,-1,15
 197 1195 197 1195 229 1232 c 0,16,17
 346.621621622 1368 346.621621622 1368 607 1368 c 0,18,19
 813.333333333 1368 813.333333333 1368 978 1254 c 1,20,-1
 918 1145 l 1,21,22
 916 1147 916 1147 910 1150 c 0,23,24
 747 1242 747 1242 601 1242 c 0,25,26
 314.791666667 1242 314.791666667 1242 306 1031 c 0,27,28
 305.863546485 1026.22412696 305.863546485 1026.22412696 305.863546485 1021.56921084 c 0,29,30
 305.863546485 927.153997115 305.863546485 927.153997115 353.798809253 889.023674458 c 128,-1,31
 401.734072022 850.893351801 401.734072022 850.893351801 483 818 c 1,32,-1
 695 736 l 2,33,34
 946.817891374 639.559105431 946.817891374 639.559105431 994.329867675 530.960302457 c 0,35,36
 1027.30939945 455.578515533 1027.30939945 455.578515533 1027.30939945 359.598657221 c 0,37,38
 1027.30939945 263.618798909 1027.30939945 263.618798909 988.654699727 186.309399454 c 0,39,40
 886.5 -18 886.5 -18 568 -18 c 0,41,42
 329.416666667 -18 329.416666667 -18 141 115 c 1,43,-1
 196 231 l 1,0,1
EndSplineSet
EndChar

StartChar: T
Encoding: 84 84 48
Width: 1087
GlyphClass: 2
Flags: W
LayerCount: 2
UndoRedoHistory
Layer: 1
Undoes
EndUndoes
Redoes
EndRedoes
EndUndoRedoHistory
Fore
SplineSet
622 1234 m 1,0,-1
 622 0 l 1,1,-1
 463 0 l 1,2,-1
 463 1234 l 1,3,-1
 55 1234 l 1,4,-1
 55 1349 l 1,5,-1
 1032 1349 l 1,6,-1
 1032 1234 l 1,7,-1
 622 1234 l 1,0,-1
EndSplineSet
EndChar

StartChar: U
Encoding: 85 85 49
Width: 1383
GlyphClass: 2
Flags: W
LayerCount: 2
UndoRedoHistory
Layer: 1
Undoes
EndUndoes
Redoes
EndRedoes
EndUndoRedoHistory
Fore
SplineSet
691 109 m 0,0,1
 1066 109 1066 109 1066 500 c 2,2,-1
 1066 1349 l 1,3,-1
 1225 1349 l 1,4,-1
 1225 495 l 2,5,6
 1225 243 1225 243 1078 112.5 c 128,-1,7
 931 -18 931 -18 677.975 -18 c 0,8,9
 424.95 -18 424.95 -18 291.975 126.313953488 c 0,10,11
 159 270.627906977 159 270.627906977 159 498 c 2,12,-1
 159 1349 l 1,13,-1
 318 1349 l 1,14,-1
 318 500 l 2,15,16
 318 306 318 306 408.5 207.5 c 128,-1,17
 499 109 499 109 691 109 c 0,0,1
EndSplineSet
EndChar

StartChar: V
Encoding: 86 86 50
Width: 1288
GlyphClass: 2
Flags: W
LayerCount: 2
UndoRedoHistory
Layer: 1
Undoes
EndUndoes
Redoes
EndRedoes
EndUndoRedoHistory
Fore
SplineSet
576 0 m 1,0,-1
 67 1349 l 1,1,-1
 232 1349 l 1,2,-1
 645 196 l 1,3,-1
 1058 1349 l 1,4,-1
 1221 1349 l 1,5,-1
 712 0 l 1,6,-1
 576 0 l 1,0,-1
EndSplineSet
EndChar

StartChar: W
Encoding: 87 87 51
Width: 1942
GlyphClass: 2
Flags: W
LayerCount: 2
UndoRedoHistory
Layer: 1
Undoes
EndUndoes
Redoes
EndRedoes
EndUndoRedoHistory
Fore
SplineSet
470 0 m 1,0,-1
 56 1349 l 1,1,-1
 207 1349 l 1,2,-1
 547 202 l 1,3,-1
 895 1319 l 1,4,-1
 1049 1319 l 1,5,-1
 1395 201 l 1,6,-1
 1733 1349 l 1,7,-1
 1887 1349 l 1,8,-1
 1473 0 l 1,9,-1
 1317 0 l 1,10,-1
 974 1135 l 1,11,-1
 623 0 l 1,12,-1
 470 0 l 1,0,-1
EndSplineSet
EndChar

StartChar: Y
Encoding: 89 89 52
Width: 1174
GlyphClass: 2
Flags: W
LayerCount: 2
UndoRedoHistory
Layer: 1
Undoes
EndUndoes
Redoes
EndRedoes
EndUndoRedoHistory
Fore
SplineSet
680 552 m 1,0,-1
 680 0 l 1,1,-1
 522 0 l 1,2,-1
 522 549 l 1,3,-1
 57 1349 l 1,4,-1
 214 1349 l 1,5,-1
 599 669 l 1,6,-1
 962 1349 l 1,7,-1
 1118 1349 l 1,8,-1
 680 552 l 1,0,-1
EndSplineSet
EndChar

StartChar: Z
Encoding: 90 90 53
Width: 1148
GlyphClass: 2
Flags: W
LayerCount: 2
UndoRedoHistory
Layer: 1
Undoes
EndUndoes
Redoes
EndRedoes
EndUndoRedoHistory
Fore
SplineSet
139 0 m 1,0,-1
 139 114 l 1,1,-1
 852 1229 l 1,2,-1
 171 1229 l 1,3,-1
 171 1349 l 1,4,-1
 1023 1349 l 1,5,-1
 1029 1239 l 1,6,-1
 319 121 l 1,7,-1
 1036 121 l 1,8,-1
 1028 0 l 1,9,-1
 139 0 l 1,0,-1
EndSplineSet
EndChar

StartChar: bracketleft
Encoding: 91 91 54
Width: 639
GlyphClass: 2
Flags: W
LayerCount: 2
UndoRedoHistory
Layer: 1
Undoes
EndUndoes
Redoes
EndRedoes
EndUndoRedoHistory
Fore
SplineSet
131 -240 m 1,0,-1
 131 1375 l 1,1,-1
 538 1375 l 1,2,-1
 538 1267 l 1,3,-1
 263 1267 l 1,4,-1
 263 -134 l 1,5,-1
 538 -134 l 1,6,-1
 538 -240 l 1,7,-1
 131 -240 l 1,0,-1
EndSplineSet
EndChar

StartChar: backslash
Encoding: 92 92 55
Width: 882
GlyphClass: 2
Flags: W
LayerCount: 2
UndoRedoHistory
Layer: 1
Undoes
EndUndoes
Redoes
EndRedoes
EndUndoRedoHistory
Fore
SplineSet
634 -41 m 1,0,-1
 119 1349 l 1,1,-1
 237 1349 l 1,2,-1
 751 -41 l 1,3,-1
 634 -41 l 1,0,-1
EndSplineSet
EndChar

StartChar: bracketright
Encoding: 93 93 56
Width: 641
GlyphClass: 2
Flags: W
LayerCount: 2
UndoRedoHistory
Layer: 1
Undoes
EndUndoes
Redoes
EndRedoes
EndUndoRedoHistory
Fore
SplineSet
104 -240 m 1,0,-1
 104 -134 l 1,1,-1
 379 -134 l 1,2,-1
 379 1267 l 1,3,-1
 104 1267 l 1,4,-1
 104 1375 l 1,5,-1
 511 1375 l 1,6,-1
 511 -240 l 1,7,-1
 104 -240 l 1,0,-1
EndSplineSet
EndChar

StartChar: asciicircum
Encoding: 94 94 57
Width: 1200
GlyphClass: 2
Flags: W
LayerCount: 2
UndoRedoHistory
Layer: 1
Undoes
EndUndoes
Redoes
EndRedoes
EndUndoRedoHistory
Fore
SplineSet
141 546 m 1,0,-1
 542 1388 l 1,1,-1
 625 1388 l 1,2,-1
 1048 546 l 1,3,-1
 942 546 l 1,4,-1
 584 1246 l 1,5,-1
 251 546 l 1,6,-1
 141 546 l 1,0,-1
EndSplineSet
EndChar

StartChar: underscore
Encoding: 95 95 58
Width: 1008
GlyphClass: 2
Flags: W
LayerCount: 2
UndoRedoHistory
Layer: 1
Undoes
EndUndoes
Redoes
EndRedoes
EndUndoRedoHistory
Fore
SplineSet
81 -253 m 1,0,-1
 81 -143 l 1,1,-1
 919 -143 l 1,2,-1
 919 -253 l 1,3,-1
 81 -253 l 1,0,-1
EndSplineSet
EndChar

StartChar: grave
Encoding: 96 96 59
Width: 625
GlyphClass: 2
Flags: W
LayerCount: 2
UndoRedoHistory
Layer: 1
Undoes
EndUndoes
Redoes
EndRedoes
EndUndoRedoHistory
Fore
SplineSet
394 1151 m 1,0,-1
 106 1502 l 1,1,-1
 313 1502 l 1,2,-1
 478 1151 l 1,3,-1
 394 1151 l 1,0,-1
EndSplineSet
EndChar

StartChar: a
Encoding: 97 97 60
Width: 1074
GlyphClass: 2
Flags: W
LayerCount: 2
UndoRedoHistory
Layer: 1
Undoes
EndUndoes
Redoes
EndRedoes
EndUndoRedoHistory
Fore
SplineSet
434 95 m 0,0,1
 645 95 645 95 763 267 c 1,2,-1
 763 496 l 1,3,-1
 617 494 l 2,4,5
 409.040261153 492.019431059 409.040261153 492.019431059 337.020130577 434.029196049 c 128,-1,6
 265 376.038961039 265 376.038961039 265 279.019480519 c 128,-1,7
 265 182 265 182 313.5 138.5 c 128,-1,8
 362 95 362 95 434 95 c 0,0,1
174 933 m 1,9,10
 326.470588235 1014 326.470588235 1014 553.5 1014 c 0,11,12
 711.759036145 1014 711.759036145 1014 811.879518072 931.722772277 c 128,-1,13
 912 849.445544554 912 849.445544554 912 657 c 2,14,-1
 912 3 l 1,15,-1
 803 3 l 1,16,-1
 781 151 l 1,17,18
 651 -7 651 -7 444 -15 c 1,19,-1
 427 -15 l 2,20,21
 288 -15 288 -15 202 57.5 c 128,-1,22
 116 130 116 130 116 250 c 128,-1,23
 116 370 116 370 165 440.5 c 0,24,25
 263.405288136 582.083118644 263.405288136 582.083118644 577 588 c 0,26,27
 582 589 582 589 764 593 c 1,28,-1
 764 679 l 2,29,30
 764 902 764 902 537 902 c 0,31,32
 462 902 462 902 371 881.5 c 128,-1,33
 280 861 280 861 214 827 c 1,34,35
 200 855 200 855 174 933 c 1,9,10
EndSplineSet
EndChar

StartChar: b
Encoding: 98 98 61
Width: 1176
GlyphClass: 2
Flags: W
LayerCount: 2
UndoRedoHistory
Layer: 1
Undoes
EndUndoes
Redoes
EndRedoes
EndUndoRedoHistory
Fore
SplineSet
319 836 m 1,0,1
 436.547169811 1014 436.547169811 1014 663.851709906 1014 c 0,2,3
 891.15625 1014 891.15625 1014 999 811 c 0,4,5
 1066 684.882352941 1066 684.882352941 1066 495 c 256,6,7
 1066 209.59223301 1066 209.59223301 908.5 73.5 c 0,8,9
 802.606741573 -18 802.606741573 -18 639.086952876 -18 c 128,-1,10
 475.567164179 -18 475.567164179 -18 358.5 106.5 c 0,11,12
 327 140 327 140 303 179 c 1,13,-1
 289 0 l 1,14,-1
 166 0 l 1,15,-1
 166 1380 l 1,16,-1
 320 1392 l 1,17,-1
 320 1010 l 1,18,-1
 319 836 l 1,0,1
915 495 m 0,19,20
 915 899 915 899 632 899 c 0,21,22
 474 899 474 899 395 795.5 c 128,-1,23
 316 692 316 692 316 511 c 0,24,25
 316 195.442307692 316 195.442307692 509 117.5 c 0,26,27
 559.761904762 97 559.761904762 97 624 97 c 0,28,29
 772 97 772 97 843.5 201 c 128,-1,30
 915 305 915 305 915 495 c 0,19,20
EndSplineSet
EndChar

StartChar: c
Encoding: 99 99 62
Width: 939
GlyphClass: 2
Flags: W
LayerCount: 2
UndoRedoHistory
Layer: 1
Undoes
EndUndoes
Redoes
EndRedoes
EndUndoRedoHistory
Fore
SplineSet
813 152 m 1,0,-1
 842 51 l 1,1,2
 811 25 811 25 739.5 3.5 c 128,-1,3
 668 -18 668 -18 579 -18 c 0,4,5
 439 -18 439 -18 332 47.5 c 128,-1,6
 225 113 225 113 168 228.5 c 128,-1,7
 111 344 111 344 111 494.5 c 128,-1,8
 111 645 111 645 171.5 764 c 128,-1,9
 232 883 232 883 341 948.5 c 128,-1,10
 450 1014 450 1014 593.5 1014 c 128,-1,11
 737 1014 737 1014 845 946 c 1,12,-1
 801 846 l 1,13,14
 707.75862069 898 707.75862069 898 603.879310345 898 c 128,-1,15
 500 898 500 898 420.5 846.5 c 0,16,17
 260 742.528301887 260 742.528301887 260 488.322974473 c 128,-1,18
 260 234.117647059 260 234.117647059 432 138 c 0,19,20
 506.269022848 96.4967225261 506.269022848 96.4967225261 611.531670947 96.4967225261 c 128,-1,21
 716.794319045 96.4967225261 716.794319045 96.4967225261 813 152 c 1,0,-1
EndSplineSet
EndChar

StartChar: d
Encoding: 100 100 63
Width: 1171
GlyphClass: 2
Flags: W
LayerCount: 2
UndoRedoHistory
Layer: 1
Undoes
EndUndoes
Redoes
EndRedoes
EndUndoRedoHistory
Fore
SplineSet
866 183 m 1,0,1
 761.739063983 -17.5018000327 761.739063983 -17.5018000327 548.925820894 -17.5018000327 c 128,-1,2
 336.112577804 -17.5018000327 336.112577804 -17.5018000327 223.556288902 120.63546362 c 128,-1,3
 111 258.772727273 111 258.772727273 111 504 c 0,4,5
 111 654 111 654 161.5 769 c 128,-1,6
 212 884 212 884 309 949 c 128,-1,7
 406 1014 406 1014 537 1014 c 0,8,9
 755.714285714 1014 755.714285714 1014 862 828 c 1,10,-1
 854 1063 l 1,11,-1
 854 1380 l 1,12,-1
 1005 1392 l 1,13,-1
 1005 0 l 1,14,-1
 880 0 l 1,15,-1
 866 183 l 1,0,1
551 97 m 0,16,17
 854.629213483 97 854.629213483 97 859 486 c 1,18,19
 859 755.029850746 859 755.029850746 720 851.5 c 0,20,21
 653 898 653 898 559 898 c 0,22,23
 411 898 411 898 336.5 794 c 128,-1,24
 262 690 262 690 262 501 c 0,25,26
 262 172.6 262 172.6 457.5 110.5 c 0,27,28
 500 97 500 97 551 97 c 0,16,17
EndSplineSet
EndChar

StartChar: e
Encoding: 101 101 64
Width: 1085
GlyphClass: 2
Flags: W
LayerCount: 2
UndoRedoHistory
Layer: 1
Undoes
EndUndoes
Redoes
EndRedoes
EndUndoRedoHistory
Fore
SplineSet
840 572 m 1,0,1
 825 901 825 901 583 901 c 0,2,3
 455 901 455 901 367 811.5 c 128,-1,4
 279 722 279 722 264 572 c 1,5,-1
 840 572 l 1,0,1
972 540 m 1,6,-1
 967 480 l 1,7,-1
 967 477 l 1,8,-1
 258 477 l 1,9,10
 269.464114833 193.263157895 269.464114833 193.263157895 472 119 c 0,11,12
 532 97 532 97 605 97 c 0,13,14
 763 97 763 97 915 171 c 1,15,-1
 949 69 l 1,16,17
 797 -18 797 -18 588.724806202 -18 c 0,18,19
 380.449612403 -18 380.449612403 -18 245.724806202 117.77734375 c 0,20,21
 111 253.5546875 111 253.5546875 111 490.77734375 c 128,-1,22
 111 728 111 728 245.649635036 871 c 0,23,24
 380.299270073 1014 380.299270073 1014 572.149635036 1014 c 128,-1,25
 764 1014 764 1014 868 889 c 128,-1,26
 972 764 972 764 972 552 c 2,27,-1
 972 540 l 1,6,-1
EndSplineSet
EndChar

StartChar: f
Encoding: 102 102 65
Width: 713
GlyphClass: 2
Flags: W
LayerCount: 2
UndoRedoHistory
Layer: 1
Undoes
EndUndoes
Redoes
EndRedoes
EndUndoRedoHistory
Fore
SplineSet
670 1272 m 1,0,-1
 560 1282 l 1,1,2
 460.85106383 1282 460.85106383 1282 433.425531915 1228.29166667 c 0,3,4
 406 1174.58333333 406 1174.58333333 406 1067 c 2,5,-1
 406 994 l 1,6,-1
 639 994 l 1,7,-1
 639 898 l 1,8,-1
 406 898 l 1,9,-1
 406 0 l 1,10,-1
 254 0 l 1,11,-1
 254 898 l 1,12,-1
 72 898 l 1,13,-1
 77 977 l 1,14,-1
 254 993 l 1,15,-1
 254 1061 l 2,16,17
 254 1367.19148936 254 1367.19148936 482.5 1391.5 c 0,18,19
 506 1394 506 1394 554 1394 c 128,-1,20
 602 1394 602 1394 681 1379 c 1,21,-1
 670 1272 l 1,0,-1
EndSplineSet
EndChar

StartChar: g
Encoding: 103 103 66
Width: 1186
GlyphClass: 2
Flags: W
LayerCount: 2
UndoRedoHistory
Layer: 1
Undoes
EndUndoes
Redoes
EndRedoes
EndUndoRedoHistory
Fore
SplineSet
562 1014 m 0,0,1
 780.373493976 1014 780.373493976 1014 881 840 c 1,2,-1
 891 994 l 1,3,-1
 1029 994 l 1,4,-1
 1029 105 l 2,5,6
 1029 -119.76 1029 -119.76 963 -228 c 0,7,8
 852.634146341 -409 852.634146341 -409 523 -409 c 0,9,10
 419 -409 419 -409 282 -391 c 1,11,-1
 272 -274 l 1,12,13
 408 -287 408 -287 530.986842105 -287 c 0,14,15
 653.973684211 -287 653.973684211 -287 735.978687161 -250.338939857 c 128,-1,16
 817.983690112 -213.677879715 817.983690112 -213.677879715 847.991845056 -137.293485312 c 128,-1,17
 878 -60.9090909091 878 -60.9090909091 878 73 c 2,18,-1
 878 177 l 1,19,20
 811.514211886 69.7648578811 811.514211886 69.7648578811 690.5 24.5 c 0,21,22
 625 0 625 0 542.5 0 c 128,-1,23
 460 0 460 0 386 28.5 c 0,24,25
 251.826133476 80.1750702153 251.826133476 80.1750702153 181.413066738 208.930392251 c 128,-1,26
 111 337.685714286 111 337.685714286 111 491 c 0,27,28
 111 762.884615385 111 762.884615385 265 908 c 0,29,30
 377.489795918 1014 377.489795918 1014 562 1014 c 0,0,1
562.5 115 m 0,31,32
 752.204545455 115 752.204545455 115 833.5 261 c 0,33,34
 881 346.306122449 881 346.306122449 881 458 c 2,35,-1
 881 545 l 2,36,37
 881 694.5 881 694.5 804.944444444 796.25 c 128,-1,38
 728.888888889 898 728.888888889 898 563 898 c 256,39,40
 481 898 481 898 419.5 860.5 c 128,-1,41
 358 823 358 823 325 761 c 0,42,43
 262 642.636363636 262 642.636363636 262 477.519674355 c 128,-1,44
 262 312.402985075 262 312.402985075 358.5 201.5 c 0,45,46
 433.766233766 115 433.766233766 115 562.5 115 c 0,31,32
EndSplineSet
EndChar

StartChar: h
Encoding: 104 104 67
Width: 1135
GlyphClass: 2
Flags: W
LayerCount: 2
UndoRedoHistory
Layer: 1
Undoes
EndUndoes
Redoes
EndRedoes
EndUndoRedoHistory
Fore
SplineSet
313 853 m 1,0,1
 422.397435897 1014 422.397435897 1014 642.631302218 1014 c 0,2,3
 862.865168539 1014 862.865168539 1014 941 831 c 0,4,5
 979 742 979 742 979 614 c 2,6,-1
 979 0 l 1,7,-1
 828 0 l 1,8,-1
 828 609 l 2,9,10
 828 758 828 758 779.5 828.5 c 128,-1,11
 731 899 731 899 618 899 c 0,12,13
 455.907692308 899 455.907692308 899 377 787.5 c 0,14,15
 317 702.717391304 317 702.717391304 317 547 c 2,16,-1
 317 0 l 1,17,-1
 166 0 l 1,18,-1
 166 1380 l 1,19,-1
 317 1392 l 1,20,-1
 317 1048 l 1,21,-1
 313 853 l 1,0,1
EndSplineSet
EndChar

StartChar: i
Encoding: 105 105 68
Width: 483
GlyphClass: 2
Flags: W
LayerCount: 2
UndoRedoHistory
Layer: 1
Undoes
EndUndoes
Redoes
EndRedoes
EndUndoRedoHistory
Fore
SplineSet
169 0 m 1,0,-1
 169 994 l 1,1,-1
 320 994 l 1,2,-1
 320 0 l 1,3,-1
 169 0 l 1,0,-1
169 1195 m 1,4,-1
 169 1359 l 1,5,-1
 320 1359 l 1,6,-1
 320 1195 l 1,7,-1
 169 1195 l 1,4,-1
EndSplineSet
EndChar

StartChar: j
Encoding: 106 106 69
Width: 516
GlyphClass: 2
Flags: W
LayerCount: 2
UndoRedoHistory
Layer: 1
Undoes
EndUndoes
Redoes
EndRedoes
EndUndoRedoHistory
Fore
SplineSet
34 -403 m 1,0,-1
 17 -273 l 1,1,-1
 60 -273 l 2,2,3
 150 -273 150 -273 175.928571429 -247.071428571 c 0,4,5
 201.857142857 -221.142857143 201.857142857 -221.142857143 204.428571429 -164.571428571 c 0,6,7
 207 -108 207 -108 207 -63 c 2,8,-1
 207 994 l 1,9,-1
 358 994 l 1,10,-1
 358 -92 l 2,11,12
 358 -184 358 -184 346.5 -240.5 c 128,-1,13
 335 -297 335 -297 303 -335 c 128,-1,14
 271 -373 271 -373 218 -388 c 128,-1,15
 165 -403 165 -403 78 -403 c 2,16,-1
 34 -403 l 1,0,-1
207 1195 m 1,17,-1
 207 1359 l 1,18,-1
 358 1359 l 1,19,-1
 358 1195 l 1,20,-1
 207 1195 l 1,17,-1
EndSplineSet
EndChar

StartChar: k
Encoding: 107 107 70
Width: 1041
GlyphClass: 2
Flags: W
LayerCount: 2
UndoRedoHistory
Layer: 1
Undoes
EndUndoes
Redoes
EndRedoes
EndUndoRedoHistory
Fore
SplineSet
166 0 m 1,0,-1
 166 1380 l 1,1,-1
 317 1392 l 1,2,-1
 317 690 l 1,3,-1
 312 494 l 1,4,-1
 817 994 l 1,5,-1
 1000 994 l 1,6,-1
 537 535 l 1,7,-1
 1010 0 l 1,8,-1
 834 0 l 1,9,-1
 432 460 l 1,10,-1
 317 355 l 1,11,-1
 317 0 l 1,12,-1
 166 0 l 1,0,-1
EndSplineSet
EndChar

StartChar: l
Encoding: 108 108 71
Width: 589
GlyphClass: 2
Flags: W
LayerCount: 2
UndoRedoHistory
Layer: 1
Undoes
EndUndoes
Redoes
EndRedoes
EndUndoRedoHistory
Fore
SplineSet
583 2 m 1,0,1
 512 -11 512 -11 447 -11 c 0,2,3
 318.6 -11 318.6 -11 242.3 52.5833333333 c 128,-1,4
 166 116.166666667 166 116.166666667 166 283 c 2,5,-1
 166 1380 l 1,6,-1
 317 1392 l 1,7,-1
 317 277 l 2,8,9
 317 175 317 175 350.5 136 c 128,-1,10
 384 97 384 97 470 97 c 0,11,12
 508 97 508 97 583 104 c 1,13,-1
 583 2 l 1,0,1
EndSplineSet
EndChar

StartChar: n
Encoding: 110 110 72
Width: 1140
GlyphClass: 2
Flags: W
LayerCount: 2
UndoRedoHistory
Layer: 1
Undoes
EndUndoes
Redoes
EndRedoes
EndUndoRedoHistory
Fore
SplineSet
833 625 m 2,0,1
 833 899 833 899 643.944444444 899 c 0,2,3
 403.730769231 899 403.730769231 899 343.5 725 c 0,4,5
 317 648.444444444 317 648.444444444 317 557 c 2,6,-1
 317 0 l 1,7,-1
 166 0 l 1,8,-1
 166 994 l 1,9,-1
 298 994 l 1,10,-1
 315 855 l 1,11,12
 426 1014 426 1014 652 1014 c 0,13,14
 822 1014 822 1014 903 912.5 c 128,-1,15
 984 811 984 811 984 606 c 2,16,-1
 984 0 l 1,17,-1
 833 0 l 1,18,-1
 833 625 l 2,0,1
EndSplineSet
EndChar

StartChar: o
Encoding: 111 111 73
Width: 1154
GlyphClass: 2
Flags: W
LayerCount: 2
UndoRedoHistory
Layer: 1
Undoes
EndUndoes
Redoes
EndRedoes
EndUndoRedoHistory
Fore
SplineSet
403 149.5 m 0,0,1
 476 97 476 97 559 97 c 0,2,3
 764.41 97 764.41 97 844.178516229 253.40885535 c 0,4,5
 895 353.058823529 895 353.058823529 895 482.529411765 c 128,-1,6
 895 612 895 612 861.5 702 c 128,-1,7
 828 792 828 792 755 845.5 c 128,-1,8
 682 899 682 899 591.5 899 c 0,9,10
 423.651376147 899 423.651376147 899 342.325688073 785.352564103 c 128,-1,11
 261 671.705128205 261 671.705128205 261 494 c 0,12,13
 261 251.623287671 261 251.623287671 403 149.5 c 0,0,1
822 48 m 128,-1,15
 715 -18 715 -18 576 -18 c 128,-1,16
 437 -18 437 -18 330.5 48 c 128,-1,17
 224 114 224 114 167.5 230.5 c 128,-1,18
 111 347 111 347 111 497.5 c 128,-1,19
 111 648 111 648 166.5 765 c 128,-1,20
 222 882 222 882 328.5 948 c 128,-1,21
 435 1014 435 1014 579 1014 c 128,-1,22
 723 1014 723 1014 829 948 c 128,-1,23
 935 882 935 882 990 765.5 c 128,-1,24
 1045 649 1045 649 1045 498.5 c 128,-1,25
 1045 348 1045 348 987 231 c 128,-1,14
 929 114 929 114 822 48 c 128,-1,15
EndSplineSet
EndChar

StartChar: p
Encoding: 112 112 74
Width: 1171
GlyphClass: 2
Flags: W
LayerCount: 2
UndoRedoHistory
Layer: 1
Undoes
EndUndoes
Redoes
EndRedoes
EndUndoRedoHistory
Fore
SplineSet
167 -438 m 1,0,-1
 167 994 l 1,1,-1
 292 994 l 1,2,-1
 308 816 l 1,3,4
 360 908 360 908 446 961 c 128,-1,5
 532 1014 532 1014 621 1014 c 0,6,7
 776.6875 1014 776.6875 1014 873 947 c 0,8,9
 1061 816.217391304 1061 816.217391304 1061 497.699841486 c 128,-1,10
 1061 179.182291667 1061 179.182291667 868 47.5 c 0,11,12
 772 -18 772 -18 650.5 -18 c 0,13,14
 426.964285714 -18 426.964285714 -18 311 173 c 1,15,-1
 318 -64 l 1,16,-1
 318 -429 l 1,17,-1
 167 -438 l 1,0,-1
619 97 m 0,18,19
 765 97 765 97 837.5 202 c 128,-1,20
 910 307 910 307 910 495 c 0,21,22
 910 785.545454545 910 785.545454545 757 869 c 0,23,24
 702 899 702 899 632.5 899 c 128,-1,25
 563 899 563 899 511 880.5 c 0,26,27
 316 811.125 316 811.125 316 511.8125 c 128,-1,28
 316 212.5 316 212.5 491 125 c 0,29,30
 547 97 547 97 619 97 c 0,18,19
EndSplineSet
EndChar

StartChar: q
Encoding: 113 113 75
Width: 1202
GlyphClass: 2
Flags: W
LayerCount: 2
UndoRedoHistory
Layer: 1
Undoes
EndUndoes
Redoes
EndRedoes
EndUndoRedoHistory
Fore
SplineSet
891 173 m 1,0,1
 781.229885057 -18 781.229885057 -18 548 -18 c 0,2,3
 420 -18 420 -18 320 47 c 128,-1,4
 220 112 220 112 165.5 227.5 c 128,-1,5
 111 343 111 343 111 493.5 c 128,-1,6
 111 644 111 644 161.5 761.5 c 128,-1,7
 212 879 212 879 312.5 946.5 c 128,-1,8
 413 1014 413 1014 551 1014 c 0,9,10
 776 1014 776 1014 882 828 c 1,11,-1
 899 994 l 1,12,-1
 1036 994 l 1,13,-1
 1036 -430 l 1,14,-1
 886 -438 l 1,15,-1
 886 -71 l 1,16,-1
 891 173 l 1,0,1
883 521 m 0,17,18
 883 898 883 898 572 898 c 0,19,20
 341.503448276 898 341.503448276 898 279 659.5 c 0,21,22
 260 587 260 587 260 496.5 c 0,23,24
 260 314.394736842 260 314.394736842 338.29245283 205.197368421 c 128,-1,25
 416.58490566 96 416.58490566 96 571 96 c 1,26,27
 571 -19.0592332156 571 -19.0592332156 613.289111421 -19.0592332156 c 0,28,29
 672.89198621 -19.0592332156 672.89198621 -19.0592332156 816.5 209.5 c 0,30,31
 883 315.338028169 883 315.338028169 883 521 c 0,17,18
EndSplineSet
EndChar

StartChar: r
Encoding: 114 114 76
Width: 763
GlyphClass: 2
Flags: W
LayerCount: 2
UndoRedoHistory
Layer: 1
Undoes
EndUndoes
Redoes
EndRedoes
EndUndoRedoHistory
Fore
SplineSet
688 876 m 1,0,1
 649.5 883 649.5 883 620 883 c 0,2,3
 534 883 534 883 464.5 839.5 c 128,-1,4
 395 796 395 796 356.5 723 c 128,-1,5
 318 650 318 650 318 564 c 2,6,-1
 318 0 l 1,7,-1
 167 0 l 1,8,-1
 167 994 l 1,9,-1
 287 994 l 1,10,-1
 304 793 l 1,11,12
 389.108280255 949.031847134 389.108280255 949.031847134 533.5 991.5 c 0,13,14
 576 1004 576 1004 620.5 1004 c 128,-1,15
 665 1004 665 1004 695 999 c 1,16,-1
 688 876 l 1,0,1
EndSplineSet
EndChar

StartChar: s
Encoding: 115 115 77
Width: 910
GlyphClass: 2
Flags: W
LayerCount: 2
UndoRedoHistory
Layer: 1
Undoes
EndUndoes
Redoes
EndRedoes
EndUndoRedoHistory
Fore
SplineSet
465 94 m 0,0,1
 672 94 672 94 672 253 c 0,2,3
 672 302 672 302 655 334 c 0,4,5
 623.062444246 394.117752007 623.062444246 394.117752007 460 451 c 1,6,-1
 378 478 l 1,7,8
 247 523 247 523 191 588 c 128,-1,9
 135 653 135 653 135 757 c 128,-1,10
 135 861 135 861 225.5 937.5 c 128,-1,11
 316 1014 316 1014 476 1014 c 0,12,13
 587.08 1014 587.08 1014 651.04 994.5 c 128,-1,14
 715 975 715 975 760 954 c 1,15,-1
 723 847 l 1,16,17
 604 901 604 901 511 901 c 128,-1,18
 418 901 418 901 367.5 882 c 0,19,20
 267 844.188118812 267 844.188118812 267 756 c 0,21,22
 267 691 267 691 307 656 c 128,-1,23
 347 621 347 621 450 587 c 1,24,-1
 527 560 l 1,25,26
 687 506 687 506 746.008264463 440.545454545 c 0,27,28
 805.016528926 375.090909091 805.016528926 375.090909091 805.016528926 250.449242424 c 0,29,30
 805.016528926 125.807575758 805.016528926 125.807575758 714.508264463 53.9037878788 c 0,31,32
 624 -18 624 -18 460 -18 c 0,33,34
 363 -18 363 -18 276 6 c 128,-1,35
 189 30 189 30 148 52 c 1,36,-1
 182 158 l 1,37,38
 320.863636364 93.9848484848 320.863636364 93.9848484848 460.697199265 93.9848484848 c 0,39,40
 462.848484848 93.9848484848 462.848484848 93.9848484848 465 94 c 0,0,1
EndSplineSet
EndChar

StartChar: t
Encoding: 116 116 78
Width: 767
GlyphClass: 2
Flags: W
LayerCount: 2
UndoRedoHistory
Layer: 1
Undoes
EndUndoes
Redoes
EndRedoes
EndUndoRedoHistory
Fore
SplineSet
508 -11 m 0,0,1
 223 -11 223 -11 223 295 c 2,2,-1
 223 902 l 1,3,-1
 79 902 l 1,4,-1
 82 984 l 1,5,-1
 236 993 l 1,6,-1
 271 1244 l 1,7,-1
 374 1247 l 1,8,-1
 374 994 l 1,9,-1
 669 994 l 1,10,-1
 669 902 l 1,11,-1
 374 902 l 1,12,-1
 374 297 l 2,13,14
 374 134.535714286 374 134.535714286 469 104 c 0,15,16
 497 95 497 95 531 95 c 128,-1,17
 565 95 565 95 600 98 c 128,-1,18
 635 101 635 101 656 104 c 128,-1,19
 677 107 677 107 678 107 c 1,20,-1
 678 9 l 1,21,22
 664.060606061 2.0303030303 664.060606061 2.0303030303 608.03030303 -4.48484848485 c 128,-1,23
 552 -11 552 -11 508 -11 c 0,0,1
EndSplineSet
EndChar

StartChar: v
Encoding: 118 118 80
Width: 1017
GlyphClass: 2
Flags: W
LayerCount: 2
UndoRedoHistory
Layer: 1
Undoes
EndUndoes
Redoes
EndRedoes
EndUndoRedoHistory
Fore
SplineSet
436 0 m 1,0,-1
 53 994 l 1,1,-1
 207 994 l 1,2,-1
 513 150 l 1,3,-1
 811 994 l 1,4,-1
 965 994 l 1,5,-1
 589 0 l 1,6,-1
 436 0 l 1,0,-1
EndSplineSet
EndChar

StartChar: w
Encoding: 119 119 81
Width: 1476
GlyphClass: 2
Flags: W
LayerCount: 2
UndoRedoHistory
Layer: 1
Undoes
EndUndoes
Redoes
EndRedoes
EndUndoRedoHistory
Fore
SplineSet
333 0 m 1,0,-1
 56 994 l 1,1,-1
 197 994 l 1,2,-1
 409 161 l 1,3,-1
 659 994 l 1,4,-1
 821 994 l 1,5,-1
 1084 165 l 1,6,-1
 1282 994 l 1,7,-1
 1421 994 l 1,8,-1
 1154 0 l 1,9,-1
 1021 0 l 1,10,-1
 741 869 l 1,11,-1
 478 0 l 1,12,-1
 333 0 l 1,0,-1
EndSplineSet
EndChar

StartChar: x
Encoding: 120 120 82
Width: 1015
GlyphClass: 2
Flags: W
LayerCount: 2
UndoRedoHistory
Layer: 1
Undoes
EndUndoes
Redoes
EndRedoes
EndUndoRedoHistory
Fore
SplineSet
504 406 m 1,0,-1
 205 0 l 1,1,-1
 56 0 l 1,2,-1
 429 507 l 1,3,-1
 67 994 l 1,4,-1
 220 994 l 1,5,-1
 515 598 l 1,6,-1
 797 994 l 1,7,-1
 946 994 l 1,8,-1
 590 497 l 1,9,-1
 960 0 l 1,10,-1
 805 0 l 1,11,-1
 504 406 l 1,0,-1
EndSplineSet
EndChar

StartChar: y
Encoding: 121 121 83
Width: 1018
GlyphClass: 2
Flags: W
LayerCount: 2
UndoRedoHistory
Layer: 1
Undoes
EndUndoes
Redoes
EndRedoes
EndUndoRedoHistory
Fore
SplineSet
450 -375 m 1,0,-1
 320 -356 l 1,1,-1
 465 22 l 1,2,-1
 68 994 l 1,3,-1
 222 994 l 1,4,-1
 535 194 l 1,5,-1
 826 994 l 1,6,-1
 975 994 l 1,7,-1
 450 -375 l 1,0,-1
EndSplineSet
EndChar

StartChar: z
Encoding: 122 122 84
Width: 885
GlyphClass: 2
Flags: W
LayerCount: 2
UndoRedoHistory
Layer: 1
Undoes
EndUndoes
Redoes
EndRedoes
EndUndoRedoHistory
Fore
SplineSet
111 0 m 1,0,-1
 111 98 l 1,1,-1
 623 888 l 1,2,-1
 132 888 l 1,3,-1
 132 994 l 1,4,-1
 776 994 l 1,5,-1
 776 890 l 1,6,-1
 271 108 l 1,7,-1
 784 108 l 1,8,-1
 784 0 l 1,9,-1
 111 0 l 1,0,-1
EndSplineSet
EndChar

StartChar: bar
Encoding: 124 124 85
Width: 312
GlyphClass: 2
Flags: W
LayerCount: 2
UndoRedoHistory
Layer: 1
Undoes
EndUndoes
Redoes
EndRedoes
EndUndoRedoHistory
Fore
SplineSet
99 -348 m 1,0,-1
 99 1457 l 1,1,-1
 211 1457 l 1,2,-1
 211 -348 l 1,3,-1
 99 -348 l 1,0,-1
EndSplineSet
EndChar

StartChar: braceright
Encoding: 125 125 86
Width: 736
GlyphClass: 2
Flags: W
LayerCount: 2
UndoRedoHistory
Layer: 1
Undoes
EndUndoes
Redoes
EndRedoes
EndUndoRedoHistory
Fore
SplineSet
107 -258 m 1,0,-1
 107 -149 l 1,1,2
 207 -148 207 -148 246 -99.5 c 128,-1,3
 285 -51 285 -51 285 71 c 2,4,-1
 285 313 l 2,5,6
 285 398 285 398 319 451.5 c 128,-1,7
 353 505 353 505 453 577 c 1,8,9
 285 628.130434783 285 628.130434783 285 833 c 2,10,-1
 285 1074 l 2,11,12
 285 1231.675 285 1231.675 214 1272.5 c 0,13,14
 173.130434783 1296 173.130434783 1296 107 1296 c 1,15,-1
 107 1404 l 1,16,17
 338.439655172 1404 338.439655172 1404 390.5 1221 c 0,18,19
 407 1163 407 1163 407 1083 c 2,20,-1
 407 909 l 2,21,22
 407 782.647058824 407 782.647058824 427.931415929 730.934148881 c 0,23,24
 448.862831858 679.221238938 448.862831858 679.221238938 490.265898688 655.562343607 c 128,-1,25
 531.668965517 631.903448276 531.668965517 631.903448276 604 630 c 1,26,-1
 604 517 l 1,27,28
 467 517 467 517 428 410 c 0,29,30
 407 353 407 353 407 238 c 2,31,-1
 407 26 l 2,32,33
 407 -112 407 -112 331 -185 c 128,-1,34
 255 -258 255 -258 107 -258 c 1,0,-1
EndSplineSet
EndChar

StartChar: asciitilde
Encoding: 126 126 87
Width: 1130
GlyphClass: 2
Flags: W
LayerCount: 2
UndoRedoHistory
Layer: 1
Undoes
EndUndoes
Redoes
EndRedoes
EndUndoRedoHistory
Fore
SplineSet
345.36 613 m 1,0,1
 214.142857143 613 214.142857143 613 132 463 c 1,2,-1
 96 549 l 1,3,4
 174.461538462 729 174.461538462 729 339 729 c 0,5,6
 420.5 729 420.5 729 529.328947368 680.631578947 c 0,7,8
 638.157894737 632.263157895 638.157894737 632.263157895 656.578947368 625.631578947 c 128,-1,9
 675 619 675 619 712.125 605.5 c 128,-1,10
 749.25 592 749.25 592 793.125 592 c 128,-1,11
 837 592 837 592 889 635 c 128,-1,12
 941 678 941 678 968 740 c 1,13,-1
 1011 661 l 1,14,15
 938 476 938 476 780 476 c 0,16,17
 706 476 706 476 607 520.5 c 128,-1,18
 508 565 508 565 478.5 577.5 c 1,19,20
 376.183797994 611.36183845 376.183797994 611.36183845 345.36 613 c 1,0,1
EndSplineSet
EndChar

StartChar: exclamdown
Encoding: 161 161 89
Width: 509
GlyphClass: 2
Flags: W
LayerCount: 2
UndoRedoHistory
Layer: 1
Undoes
EndUndoes
Redoes
EndRedoes
EndUndoRedoHistory
Fore
SplineSet
170 3 m 1,0,-1
 170 115 l 1,1,-1
 218 980 l 1,2,-1
 278 980 l 1,3,-1
 333 115 l 1,4,-1
 333 3 l 1,5,-1
 170 3 l 1,0,-1
366 1282.5 m 0,6,7
 366 1184.33333333 366 1184.33333333 294.5 1160.5 c 0,8,9
 275 1154 275 1154 244.5 1154 c 128,-1,10
 214 1154 214 1154 188 1171.5 c 0,11,12
 139 1204.48076923 139 1204.48076923 139 1259.24038462 c 128,-1,13
 139 1314 139 1314 167.5 1348 c 128,-1,14
 196 1382 196 1382 252 1382 c 256,15,16
 308 1382 308 1382 337 1348 c 128,-1,17
 366 1314 366 1314 366 1282.5 c 0,6,7
EndSplineSet
EndChar

StartChar: cent
Encoding: 162 162 90
Width: 986
GlyphClass: 2
Flags: W
LayerCount: 2
UndoRedoHistory
Layer: 1
Undoes
EndUndoes
Redoes
EndRedoes
EndUndoRedoHistory
Fore
SplineSet
638 289 m 1,0,1
 744.5625 298.6875 744.5625 298.6875 836 364 c 1,2,-1
 868 269 l 1,3,4
 788.5 189.5 788.5 189.5 638 179 c 1,5,-1
 638 42 l 1,6,-1
 555 42 l 1,7,-1
 555 179 l 1,8,9
 311.417818289 199.543075566 311.417818289 199.543075566 192 413.5 c 0,10,11
 122 538.916666667 122 538.916666667 122 698 c 256,12,13
 122 942.068627451 122 942.068627451 282 1100.5 c 0,14,15
 392.544395339 1209.96062676 392.544395339 1209.96062676 555 1224 c 1,16,-1
 555 1383 l 1,17,-1
 638 1383 l 1,18,-1
 638 1225 l 1,19,20
 795.844625113 1215.33604336 795.844625113 1215.33604336 869 1139 c 1,21,-1
 836 1046 l 1,22,23
 737.029411765 1105.38235294 737.029411765 1105.38235294 638 1113 c 1,24,-1
 638 289 l 1,0,1
555 289 m 1,25,-1
 555 1110 l 1,26,27
 422.850393701 1089.66929134 422.850393701 1089.66929134 337.42519685 972.209645669 c 0,28,29
 252 854.75 252 854.75 252 694.375 c 128,-1,30
 252 534 252 534 335.5 421.5 c 128,-1,31
 419 309 419 309 555 289 c 1,25,-1
EndSplineSet
EndChar

StartChar: currency
Encoding: 164 164 91
Width: 1228
GlyphClass: 2
Flags: W
LayerCount: 2
UndoRedoHistory
Layer: 1
Undoes
EndUndoes
Redoes
EndRedoes
EndUndoRedoHistory
Fore
SplineSet
913 894 m 1,0,1
 992 783.815789474 992 783.815789474 992 659.197368421 c 128,-1,2
 992 534.578947368 992 534.578947368 914 434 c 1,3,-1
 1080 271 l 1,4,-1
 1026 211 l 1,5,-1
 856 372 l 1,6,7
 751.571428571 286 751.571428571 286 610.785714286 286 c 128,-1,8
 470 286 470 286 367 372 c 1,9,-1
 198 212 l 1,10,-1
 140 272 l 1,11,-1
 311 434 l 1,12,13
 231 539 231 539 231 665.217948718 c 128,-1,14
 231 791.435897436 231 791.435897436 311 894 c 1,15,-1
 139 1059 l 1,16,-1
 198 1116 l 1,17,-1
 367 957 l 1,18,19
 469 1043 469 1043 610.5 1043 c 128,-1,20
 752 1043 752 1043 856 955 c 1,21,-1
 1026 1116 l 1,22,-1
 1081 1056 l 1,23,-1
 913 894 l 1,0,1
533.5 384.5 m 128,-1,25
 572 374 572 374 632.5 374 c 128,-1,26
 693 374 693 374 761 413 c 128,-1,27
 829 452 829 452 868 518.5 c 128,-1,28
 907 585 907 585 907 648 c 0,29,30
 907 808 907 808 787.120300752 897.909774436 c 0,31,32
 711 955 711 955 621.5 955 c 128,-1,33
 532 955 532 955 464 916 c 128,-1,34
 396 877 396 877 356.5 810 c 128,-1,35
 317 743 317 743 317 683.5 c 128,-1,36
 317 624 317 624 327.5 586.5 c 128,-1,37
 338 549 338 549 357 517.5 c 128,-1,38
 376 486 376 486 403.5 459 c 128,-1,39
 431 432 431 432 463 413.5 c 128,-1,24
 495 395 495 395 533.5 384.5 c 128,-1,25
EndSplineSet
EndChar

StartChar: yen
Encoding: 165 165 92
Width: 1223
GlyphClass: 2
Flags: W
LayerCount: 2
UndoRedoHistory
Layer: 1
Undoes
EndUndoes
Redoes
EndRedoes
EndUndoRedoHistory
Fore
SplineSet
552 0 m 1,0,-1
 552 275 l 1,1,-1
 225 275 l 1,2,-1
 225 377 l 1,3,-1
 552 377 l 1,4,-1
 552 557 l 1,5,-1
 226 557 l 1,6,-1
 226 659 l 1,7,-1
 517 659 l 1,8,-1
 143 1349 l 1,9,-1
 271 1349 l 1,10,-1
 608 721 l 1,11,-1
 952 1349 l 1,12,-1
 1075 1349 l 1,13,-1
 688 659 l 1,14,-1
 979 659 l 1,15,-1
 979 557 l 1,16,-1
 662 557 l 1,17,-1
 662 377 l 1,18,-1
 980 377 l 1,19,-1
 980 275 l 1,20,-1
 662 275 l 1,21,-1
 662 0 l 1,22,-1
 552 0 l 1,0,-1
EndSplineSet
EndChar

StartChar: brokenbar
Encoding: 166 166 93
Width: 304
GlyphClass: 2
Flags: W
LayerCount: 2
UndoRedoHistory
Layer: 1
Undoes
EndUndoes
Redoes
EndRedoes
EndUndoRedoHistory
Fore
SplineSet
95 -369 m 1,0,-1
 95 271 l 1,1,-1
 208 271 l 1,2,-1
 208 -369 l 1,3,-1
 95 -369 l 1,0,-1
95 806 m 1,4,-1
 95 1444 l 1,5,-1
 208 1444 l 1,6,-1
 208 806 l 1,7,-1
 95 806 l 1,4,-1
EndSplineSet
EndChar

StartChar: section
Encoding: 167 167 94
Width: 927
GlyphClass: 2
Flags: W
LayerCount: 2
UndoRedoHistory
Layer: 1
Undoes
EndUndoes
Redoes
EndRedoes
EndUndoRedoHistory
Fore
SplineSet
687.5 47.5 m 128,-1,1
 583 -26 583 -26 411 -26 c 128,-1,2
 239 -26 239 -26 134 27 c 1,3,-1
 134 168 l 1,4,5
 267 99 267 99 394.5 99 c 128,-1,6
 522 99 522 99 584.5 137.5 c 128,-1,7
 647 176 647 176 647 244.679104478 c 128,-1,8
 647 313.358208955 647 313.358208955 569.5 355 c 0,9,10
 524.963178295 378.930232558 524.963178295 378.930232558 424 420 c 1,11,12
 267 480 267 480 198.5 548 c 128,-1,13
 130 616 130 616 130 710 c 0,14,15
 130 885.217391304 130 885.217391304 281 964 c 1,16,17
 213 1007 213 1007 180 1059.5 c 128,-1,18
 147 1112 147 1112 147 1189 c 0,19,20
 147 1314 147 1314 248.5 1378.5 c 128,-1,21
 350 1443 350 1443 523 1443 c 0,22,23
 636 1443 636 1443 763 1392 c 1,24,25
 759 1369 759 1369 751 1326 c 128,-1,26
 743 1283 743 1283 739 1260 c 1,27,28
 616 1316 616 1316 499 1316 c 0,29,30
 291 1316 291 1316 291 1193 c 0,31,32
 291 1137 291 1137 339.5 1097.5 c 128,-1,33
 388 1058 388 1058 527.5 1002 c 128,-1,34
 667 946 667 946 734.5 880.5 c 128,-1,35
 802 815 802 815 802 727.5 c 0,36,37
 802 559.52238806 802 559.52238806 656 468 c 1,38,39
 792 391 792 391 792 256 c 128,-1,0
 792 121 792 121 687.5 47.5 c 128,-1,1
399 905 m 1,40,41
 268 848.534482759 268 848.534482759 268 736 c 0,42,43
 268 677 268 677 316 635.5 c 128,-1,44
 364 594 364 594 481 548 c 1,45,-1
 533 526 l 1,46,47
 663 605 663 605 663 694.613924051 c 128,-1,48
 663 784.227848101 663 784.227848101 556.5 839.5 c 0,49,50
 506.862831858 865.261061947 506.862831858 865.261061947 399 905 c 1,40,41
EndSplineSet
EndChar

StartChar: dieresis
Encoding: 168 168 95
Width: 706
GlyphClass: 2
Flags: W
LayerCount: 2
UndoRedoHistory
Layer: 1
Undoes
EndUndoes
Redoes
EndRedoes
EndUndoRedoHistory
Fore
SplineSet
120 1146 m 1,0,-1
 120 1327 l 1,1,-1
 245 1327 l 1,2,-1
 245 1146 l 1,3,-1
 120 1146 l 1,0,-1
469 1146 m 1,4,-1
 469 1327 l 1,5,-1
 594 1327 l 1,6,-1
 594 1146 l 1,7,-1
 469 1146 l 1,4,-1
EndSplineSet
EndChar

StartChar: copyright
Encoding: 169 169 96
Width: 1711
GlyphClass: 2
Flags: W
LayerCount: 2
UndoRedoHistory
Layer: 1
Undoes
EndUndoes
Redoes
EndRedoes
EndUndoRedoHistory
Fore
SplineSet
1095 1030 m 1,0,1
 1009.48275862 1092 1009.48275862 1092 855 1092 c 0,2,3
 631.589041096 1092 631.589041096 1092 559.5 881.5 c 0,4,5
 536 812.88 536 812.88 536 729.94 c 0,6,7
 536 565.5 536 565.5 618.095238095 457.75 c 128,-1,8
 700.19047619 350 700.19047619 350 877 350 c 0,9,10
 942 350 942 350 1013.5 370.5 c 128,-1,11
 1085 391 1085 391 1122 418 c 1,12,-1
 1154 323 l 1,13,14
 1078.21455939 273.574712644 1078.21455939 273.574712644 942 255 c 0,15,16
 898 249 898 249 856 249 c 0,17,18
 731 249 731 249 631 310 c 128,-1,19
 531 371 531 371 475.5 479 c 128,-1,20
 420 587 420 587 420 722.5 c 128,-1,21
 420 858 420 858 475 965.5 c 128,-1,22
 530 1073 530 1073 633 1134.5 c 128,-1,23
 736 1196 736 1196 883.5 1196 c 128,-1,24
 1031 1196 1031 1196 1151 1113 c 1,25,-1
 1095 1030 l 1,0,1
806 51 m 0,26,27
 826 50 826 50 888.5 50 c 128,-1,28
 951 50 951 50 1042 74 c 128,-1,29
 1133 98 1133 98 1202.5 141.5 c 0,30,31
 1344.80049127 230.565775109 1344.80049127 230.565775109 1413.40024563 379.871122849 c 128,-1,32
 1482 529.176470588 1482 529.176470588 1482 713 c 0,33,34
 1482 1062.54 1482 1062.54 1254 1249.5 c 0,35,36
 1094.85365854 1380 1094.85365854 1380 840 1380 c 0,37,38
 490.210843373 1380 490.210843373 1380 323.5 1106 c 0,39,40
 224 942.465346535 224 942.465346535 224 718 c 0,41,42
 224 444 224 444 373 254.5 c 128,-1,43
 522 65 522 65 806 51 c 0,26,27
424 97 m 0,44,45
 127 300.930875576 127 300.930875576 127 716 c 0,46,47
 127 1022.94285714 127 1022.94285714 296.5 1221.5 c 0,48,49
 393.309511016 1334.90542719 393.309511016 1334.90542719 538.971422174 1396.45271359 c 128,-1,50
 684.633333333 1458 684.633333333 1458 820.316666667 1458 c 0,51,52
 1212.87719298 1458 1212.87719298 1458 1431.98916816 1192.26845564 c 0,53,54
 1580 1012.76595745 1580 1012.76595745 1580 716 c 256,55,56
 1580 286.787234043 1580 286.787234043 1267 87 c 0,57,58
 1083.7 -30 1083.7 -30 845.85 -30 c 128,-1,59
 608 -30 608 -30 424 97 c 0,44,45
EndSplineSet
EndChar

StartChar: ordfeminine
Encoding: 170 170 97
Width: 777
GlyphClass: 2
Flags: W
LayerCount: 2
UndoRedoHistory
Layer: 1
Undoes
EndUndoes
Redoes
EndRedoes
EndUndoRedoHistory
Fore
SplineSet
150 1335 m 1,0,1
 231 1461 231 1461 379.5 1461 c 0,2,3
 486.454545455 1461 486.454545455 1461 548.227272727 1404.375 c 128,-1,4
 610 1347.75 610 1347.75 610 1223 c 2,5,-1
 608 912 l 1,6,-1
 608 901.5 l 2,7,8
 608 898 608 898 614 787 c 1,9,-1
 516 787 l 1,10,-1
 516 861 l 1,11,12
 460 767 460 767 345 767 c 0,13,14
 257 767 257 767 201.5 823.5 c 128,-1,15
 146 880 146 880 146 968.6875 c 128,-1,16
 146 1057.375 146 1057.375 193.185873606 1101.61175651 c 128,-1,17
 240.371747212 1145.84851301 240.371747212 1145.84851301 324.924171478 1163.31042672 c 128,-1,18
 409.476595745 1180.77234043 409.476595745 1180.77234043 521 1186 c 1,19,-1
 521 1201 l 1,20,21
 517.097911227 1314.16057441 517.097911227 1314.16057441 470.5 1343.5 c 0,22,23
 444.294117647 1360 444.294117647 1360 392.71372549 1360 c 128,-1,24
 341.133333333 1360 341.133333333 1360 295.657254902 1347.12941176 c 128,-1,25
 250.181176471 1334.25882353 250.181176471 1334.25882353 208 1274 c 1,26,-1
 150 1335 l 1,0,1
142 599 m 1,27,-1
 142 688 l 1,28,-1
 631 688 l 1,29,-1
 631 599 l 1,30,-1
 142 599 l 1,27,-1
364.451219512 862 m 0,31,32
 521.444444444 862 521.444444444 862 521.444444444 1076.40740741 c 0,33,34
 521.444444444 1086.55555556 521.444444444 1086.55555556 521 1097 c 2,35,-1
 521 1108 l 1,36,37
 507 1106 507 1106 479 1104.5 c 128,-1,38
 451 1103 451 1103 432 1101.5 c 0,39,40
 238 1086.18421053 238 1086.18421053 238 970 c 0,41,42
 238 862 238 862 364.451219512 862 c 0,31,32
EndSplineSet
EndChar

StartChar: guillemotleft
Encoding: 171 171 98
Width: 939
GlyphClass: 2
Flags: W
LayerCount: 2
UndoRedoHistory
Layer: 1
Undoes
EndUndoes
Redoes
EndRedoes
EndUndoRedoHistory
Fore
SplineSet
368 140 m 1,0,-1
 133 466 l 1,1,-1
 106 509 l 1,2,-1
 371 875 l 1,3,-1
 480 848 l 1,4,-1
 230 509 l 1,5,-1
 474 167 l 1,6,-1
 368 140 l 1,0,-1
707 140 m 1,7,-1
 437 516 l 1,8,-1
 709 875 l 1,9,-1
 800 848 l 1,10,-1
 569 509 l 1,11,-1
 797 167 l 1,12,-1
 707 140 l 1,7,-1
EndSplineSet
EndChar

StartChar: logicalnot
Encoding: 172 172 99
Width: 1127
GlyphClass: 2
Flags: W
LayerCount: 2
UndoRedoHistory
Layer: 1
Undoes
EndUndoes
Redoes
EndRedoes
EndUndoRedoHistory
Fore
SplineSet
898 239 m 1,0,-1
 898 629 l 1,1,-1
 104 629 l 1,2,-1
 104 747 l 1,3,-1
 1001 747 l 1,4,-1
 1001 239 l 1,5,-1
 898 239 l 1,0,-1
EndSplineSet
EndChar

StartChar: uni00AD
Encoding: 173 173 100
Width: 921
GlyphClass: 2
Flags: W
LayerCount: 2
UndoRedoHistory
Layer: 1
Undoes
EndUndoes
Redoes
EndRedoes
EndUndoRedoHistory
Fore
SplineSet
109 185 m 1,0,-1
 109 306 l 1,1,-1
 814 306 l 1,2,-1
 814 185 l 1,3,-1
 109 185 l 1,0,-1
EndSplineSet
EndChar

StartChar: registered
Encoding: 174 174 101
Width: 1713
GlyphClass: 2
Flags: W
LayerCount: 2
UndoRedoHistory
Layer: 1
Undoes
EndUndoes
Redoes
EndRedoes
EndUndoRedoHistory
Fore
SplineSet
571 279 m 1,0,-1
 571 1171 l 1,1,-1
 857 1171 l 2,2,3
 1221 1171 1221 1171 1221 925 c 0,4,5
 1221 756.727272727 1221 756.727272727 1069 698 c 0,6,7
 1025 681 1025 681 969 675 c 1,8,9
 1027.85636487 633.978897209 1027.85636487 633.978897209 1083.64386871 529.744350565 c 128,-1,10
 1139.43137255 425.509803922 1139.43137255 425.509803922 1231 279 c 1,11,-1
 1107 279 l 1,12,13
 1086 315 1086 315 1051 382 c 128,-1,14
 1016 449 1016 449 991.5 494 c 0,15,16
 925.802547771 614.668789809 925.802547771 614.668789809 863 659 c 1,17,-1
 682 659 l 1,18,-1
 682 279 l 1,19,-1
 571 279 l 1,0,-1
683 770 m 1,20,-1
 866 770 l 2,21,22
 977 770 977 770 1028 801 c 128,-1,23
 1079 832 1079 832 1079 926.842105263 c 128,-1,24
 1079 1021.68421053 1079 1021.68421053 1002.5 1044.5 c 0,25,26
 953.882352941 1059 953.882352941 1059 856 1059 c 2,27,-1
 683 1059 l 1,28,-1
 683 770 l 1,20,-1
807 51 m 0,29,30
 826 50 826 50 888.5 50 c 128,-1,31
 951 50 951 50 1042.5 74 c 128,-1,32
 1134 98 1134 98 1203.5 141.5 c 0,33,34
 1345.09032878 230.12128492 1345.09032878 230.12128492 1414.04516439 378.024410576 c 128,-1,35
 1483 525.927536232 1483 525.927536232 1483 713 c 0,36,37
 1483 986 1483 986 1340 1164 c 0,38,39
 1175 1369 1175 1369 870 1379 c 2,40,-1
 840 1380 l 1,41,42
 492.361445783 1380 492.361445783 1380 324 1106 c 0,43,44
 224 943.254901961 224 943.254901961 224 718 c 0,45,46
 224 444 224 444 373 254.5 c 128,-1,47
 522 65 522 65 807 51 c 0,29,30
440.5 87 m 0,48,49
 127 290.351351351 127 290.351351351 127 716 c 0,50,51
 127 1059 127 1059 330.870253165 1258.5 c 128,-1,52
 534.740506329 1458 534.740506329 1458 840 1458 c 0,53,54
 1080.33333333 1458 1080.33333333 1458 1272.32263863 1336.74359666 c 128,-1,55
 1464.31194392 1215.48719331 1464.31194392 1215.48719331 1540 987.5 c 0,56,57
 1581 864 1581 864 1581 716 c 256,58,59
 1581 287.425531915 1581 287.425531915 1267 87 c 0,60,61
 1083.7 -30 1083.7 -30 852.2875 -30 c 128,-1,62
 620.875 -30 620.875 -30 440.5 87 c 0,48,49
EndSplineSet
EndChar

StartChar: macron
Encoding: 175 175 102
Width: 1014
GlyphClass: 2
Flags: W
LayerCount: 2
UndoRedoHistory
Layer: 1
Undoes
EndUndoes
Redoes
EndRedoes
EndUndoRedoHistory
Fore
SplineSet
130 1377 m 1,0,-1
 130 1497 l 1,1,-1
 882 1497 l 1,2,-1
 882 1377 l 1,3,-1
 130 1377 l 1,0,-1
EndSplineSet
EndChar

StartChar: degree
Encoding: 176 176 103
Width: 771
GlyphClass: 2
Flags: W
LayerCount: 2
UndoRedoHistory
Layer: 1
Undoes
EndUndoes
Redoes
EndRedoes
EndUndoRedoHistory
Fore
SplineSet
252.5 976 m 128,-1,1
 306 921 306 921 381.5 921 c 128,-1,2
 457 921 457 921 510.5 976.5 c 128,-1,3
 564 1032 564 1032 564 1107.5 c 128,-1,4
 564 1183 564 1183 510.5 1237.5 c 128,-1,5
 457 1292 457 1292 381.5 1292 c 128,-1,6
 306 1292 306 1292 252.5 1237.5 c 128,-1,7
 199 1183 199 1183 199 1107 c 256,8,0
 199 1031 199 1031 252.5 976 c 128,-1,1
366.5 817 m 0,9,10
 308 817 308 817 243.5 855 c 128,-1,11
 179 893 179 893 139.5 960 c 128,-1,12
 100 1027 100 1027 100 1095.5 c 0,13,14
 100 1225.58974359 100 1225.58974359 184.792207792 1309.29487179 c 128,-1,15
 269.584415584 1393 269.584415584 1393 381.792207792 1393 c 128,-1,16
 494 1393 494 1393 578.5 1308.5 c 128,-1,17
 663 1224 663 1224 663 1094.97826087 c 128,-1,18
 663 965.956521739 663 965.956521739 545.5 874 c 0,19,20
 472.666666667 817 472.666666667 817 366.5 817 c 0,9,10
EndSplineSet
EndChar

StartChar: plusminus
Encoding: 177 177 104
Width: 1124
GlyphClass: 2
Flags: W
LayerCount: 2
UndoRedoHistory
Layer: 1
Undoes
EndUndoes
Redoes
EndRedoes
EndUndoRedoHistory
Fore
SplineSet
507 206 m 1,0,-1
 507 592 l 1,1,-1
 116 592 l 1,2,-1
 116 706 l 1,3,-1
 506 706 l 1,4,-1
 506 1096 l 1,5,-1
 608 1096 l 1,6,-1
 608 706 l 1,7,-1
 1002 706 l 1,8,-1
 1002 592 l 1,9,-1
 610 592 l 1,10,-1
 610 206 l 1,11,-1
 507 206 l 1,0,-1
116 0 m 1,12,-1
 116 119 l 1,13,-1
 1005 119 l 1,14,-1
 1005 0 l 1,15,-1
 116 0 l 1,12,-1
EndSplineSet
EndChar

StartChar: uni00B2
Encoding: 178 178 105
Width: 683
GlyphClass: 2
Flags: W
LayerCount: 2
UndoRedoHistory
Layer: 1
Undoes
EndUndoes
Redoes
EndRedoes
EndUndoRedoHistory
Fore
SplineSet
120 592 m 1,0,-1
 120 700 l 1,1,2
 171 757 171 757 191.5 780.5 c 128,-1,3
 212 804 212 804 254.291666667 852.333333333 c 0,4,5
 296.583333333 900.666666667 296.583333333 900.666666667 376.791666667 1003.98587571 c 128,-1,6
 457 1107.30508475 457 1107.30508475 457 1189.11290323 c 0,7,8
 457 1236 457 1236 427 1266 c 128,-1,9
 397 1296 397 1296 344 1296 c 0,10,11
 247 1296 247 1296 196 1167 c 1,12,-1
 128 1244 l 1,13,14
 155 1323 155 1323 214 1367 c 128,-1,15
 273 1411 273 1411 357 1411 c 128,-1,16
 441 1411 441 1411 500.5 1349.5 c 128,-1,17
 560 1288 560 1288 560 1188 c 0,18,19
 560 1024.97183099 560 1024.97183099 362.5 808 c 0,20,21
 327 769 327 769 268 708 c 1,22,-1
 558 708 l 1,23,-1
 558 592 l 1,24,-1
 120 592 l 1,0,-1
EndSplineSet
EndChar

StartChar: acute
Encoding: 180 180 106
Width: 592
GlyphClass: 2
Flags: W
LayerCount: 2
UndoRedoHistory
Layer: 1
Undoes
EndUndoes
Redoes
EndRedoes
EndUndoRedoHistory
Fore
SplineSet
102 1151 m 1,0,-1
 275 1502 l 1,1,-1
 486 1502 l 1,2,-1
 191 1151 l 1,3,-1
 102 1151 l 1,0,-1
EndSplineSet
EndChar

StartChar: paragraph
Encoding: 182 182 107
Width: 1039
GlyphClass: 2
Flags: W
LayerCount: 2
UndoRedoHistory
Layer: 1
Undoes
EndUndoes
Redoes
EndRedoes
EndUndoRedoHistory
Fore
SplineSet
465 -147 m 1,0,-1
 465 786 l 1,1,2
 390 786 390 786 322 815.5 c 128,-1,3
 254 845 254 845 207.5 892 c 0,4,5
 107 993.580645161 107 993.580645161 107 1118 c 0,6,7
 107 1295.02439024 107 1295.02439024 259 1384 c 0,8,9
 346.125 1435 346.125 1435 494 1435 c 2,10,-1
 932 1435 l 1,11,-1
 932 1326 l 1,12,-1
 865 1326 l 1,13,-1
 865 -147 l 1,14,-1
 779 -147 l 1,15,-1
 779 1326 l 1,16,-1
 558 1326 l 1,17,-1
 558 -147 l 1,18,-1
 465 -147 l 1,0,-1
EndSplineSet
EndChar

StartChar: periodcentered
Encoding: 183 183 108
Width: 372
GlyphClass: 2
Flags: W
LayerCount: 2
UndoRedoHistory
Layer: 1
Undoes
EndUndoes
Redoes
EndRedoes
EndUndoRedoHistory
Fore
SplineSet
107 511 m 1,0,-1
 107 691 l 1,1,-1
 260 691 l 1,2,-1
 260 511 l 1,3,-1
 107 511 l 1,0,-1
EndSplineSet
EndChar

StartChar: cedilla
Encoding: 184 184 109
Width: 550
GlyphClass: 2
Flags: W
LayerCount: 2
UndoRedoHistory
Layer: 1
Undoes
EndUndoes
Redoes
EndRedoes
EndUndoRedoHistory
Fore
SplineSet
121 -390 m 1,0,-1
 219 5 l 1,1,-1
 276 5 l 1,2,-1
 241 -390 l 1,3,-1
 121 -390 l 1,0,-1
EndSplineSet
EndChar

StartChar: ordmasculine
Encoding: 186 186 110
Width: 788
GlyphClass: 2
Flags: W
LayerCount: 2
UndoRedoHistory
Layer: 1
Undoes
EndUndoes
Redoes
EndRedoes
EndUndoRedoHistory
Fore
SplineSet
263.5 923.5 m 128,-1,1
 310 856 310 856 394 856 c 128,-1,2
 478 856 478 856 524.5 925 c 128,-1,3
 571 994 571 994 571 1097.5 c 128,-1,4
 571 1201 571 1201 523.5 1270.5 c 128,-1,5
 476 1340 476 1340 393.5 1340 c 128,-1,6
 311 1340 311 1340 264 1270.5 c 128,-1,7
 217 1201 217 1201 217 1096 c 128,-1,0
 217 991 217 991 263.5 923.5 c 128,-1,1
606.5 850 m 128,-1,9
 530 752 530 752 393 752 c 128,-1,10
 256 752 256 752 179.5 849.5 c 128,-1,11
 103 947 103 947 103 1099 c 128,-1,12
 103 1251 103 1251 181 1349 c 128,-1,13
 259 1447 259 1447 394 1447 c 128,-1,14
 529 1447 529 1447 606 1348 c 128,-1,15
 683 1249 683 1249 683 1098.5 c 128,-1,8
 683 948 683 948 606.5 850 c 128,-1,9
EndSplineSet
EndChar

StartChar: guillemotright
Encoding: 187 187 111
Width: 940
GlyphClass: 2
Flags: W
LayerCount: 2
UndoRedoHistory
Layer: 1
Undoes
EndUndoes
Redoes
EndRedoes
EndUndoRedoHistory
Fore
SplineSet
215 140 m 1,0,-1
 124 167 l 1,1,-1
 354 509 l 1,2,-1
 124 848 l 1,3,-1
 216 875 l 1,4,-1
 487 500 l 1,5,-1
 215 140 l 1,0,-1
565 140 m 1,6,-1
 459 167 l 1,7,-1
 705 509 l 1,8,-1
 464 848 l 1,9,-1
 568 875 l 1,10,-1
 822 500 l 1,11,-1
 565 140 l 1,6,-1
EndSplineSet
EndChar

StartChar: threequarters
Encoding: 190 190 112
Width: 1544
GlyphClass: 2
Flags: W
LayerCount: 2
UndoRedoHistory
Layer: 1
Undoes
EndUndoes
Redoes
EndRedoes
EndUndoRedoHistory
Fore
SplineSet
442 1200 m 0,0,1
 442 1318 442 1318 316 1318 c 0,2,3
 257 1318 257 1318 172 1233 c 1,4,-1
 133 1324 l 1,5,6
 167 1370 167 1370 217 1399 c 128,-1,7
 267 1428 267 1428 309.5 1428 c 128,-1,8
 352 1428 352 1428 403.100634802 1412.74607916 c 0,9,10
 454.201269604 1397.49215833 454.201269604 1397.49215833 504.100634802 1340.16097278 c 128,-1,11
 554 1282.82978723 554 1282.82978723 554 1201 c 0,12,13
 554 1078.57142857 554 1078.57142857 448 1018 c 1,14,15
 572 961 572 961 572 829.233333333 c 128,-1,16
 572 697.466666667 572 697.466666667 471.5 626 c 0,17,18
 402.59375 577 402.59375 577 318 577 c 0,19,20
 202 577 202 577 130 677 c 1,21,-1
 176 764 l 1,22,23
 250.23255814 680 250.23255814 680 311.61627907 680 c 128,-1,24
 373 680 373 680 417.5 720.5 c 128,-1,25
 462 761 462 761 462 825 c 0,26,27
 462 963 462 963 281 963 c 2,28,-1
 248 963 l 1,29,-1
 248 1073 l 1,30,-1
 276 1073 l 2,31,32
 442 1073 442 1073 442 1200 c 0,0,1
1241 45 m 1,33,-1
 1241 233 l 1,34,-1
 884 233 l 1,35,-1
 884 311 l 1,36,-1
 1229 822 l 1,37,-1
 1321 822 l 1,38,-1
 1321 331 l 1,39,-1
 1403 331 l 1,40,-1
 1413 233 l 1,41,-1
 1320 233 l 1,42,-1
 1320 45 l 1,43,-1
 1241 45 l 1,33,-1
337 -5 m 1,44,-1
 1149 1422 l 1,45,-1
 1261 1422 l 1,46,-1
 435 -5 l 1,47,-1
 337 -5 l 1,44,-1
995 331 m 1,48,-1
 1238 331 l 1,49,50
 1238 507 1238 507 1242 674 c 1,51,-1
 995 331 l 1,48,-1
EndSplineSet
EndChar

StartChar: AE
Encoding: 198 198 113
Width: 1958
GlyphClass: 2
Flags: W
LayerCount: 2
UndoRedoHistory
Layer: 1
Undoes
EndUndoes
Redoes
EndRedoes
EndUndoRedoHistory
Fore
SplineSet
102 0 m 1,0,-1
 957 1443 l 1,1,-1
 1802 1443 l 1,2,-1
 1807 1310 l 1,3,-1
 1134 1310 l 1,4,-1
 1172 807 l 1,5,-1
 1772 807 l 1,6,-1
 1772 674 l 1,7,-1
 1189 674 l 1,8,-1
 1230 133 l 1,9,-1
 1816 133 l 1,10,-1
 1821 0 l 1,11,-1
 1116 0 l 1,12,-1
 1088 401 l 1,13,-1
 450 401 l 1,14,-1
 219 0 l 1,15,-1
 102 0 l 1,0,-1
520 536 m 1,16,-1
 1067 536 l 1,17,-1
 1006 1326 l 1,18,-1
 520 536 l 1,16,-1
EndSplineSet
EndChar

StartChar: Eth
Encoding: 208 208 114
Width: 1534
GlyphClass: 2
Flags: W
LayerCount: 2
UndoRedoHistory
Layer: 1
Undoes
EndUndoes
Redoes
EndRedoes
EndUndoRedoHistory
Fore
SplineSet
389 125 m 1,0,-1
 702 125 l 2,1,2
 965 125 965 125 1109.5 262 c 128,-1,3
 1254 399 1254 399 1254 668 c 0,4,5
 1254 976.900900901 1254 976.900900901 1073.5 1120 c 0,6,7
 923.397727273 1239 923.397727273 1239 610 1239 c 2,8,-1
 389 1239 l 1,9,-1
 389 754 l 1,10,-1
 623 754 l 1,11,-1
 623 644 l 1,12,-1
 389 644 l 1,13,-1
 389 125 l 1,0,-1
256 0 m 1,14,-1
 256 645 l 1,15,-1
 151 645 l 1,16,-1
 151 755 l 1,17,-1
 256 755 l 1,18,-1
 256 1366 l 1,19,-1
 589 1366 l 2,20,21
 1052.46153846 1366 1052.46153846 1366 1249 1147 c 0,22,23
 1400 978.742857143 1400 978.742857143 1400 673 c 0,24,25
 1400 273.858757062 1400 273.858757062 1121.5 105.5 c 0,26,27
 946.981308411 1.42108547152e-14 946.981308411 1.42108547152e-14 685 0 c 2,28,-1
 256 0 l 1,14,-1
EndSplineSet
EndChar

StartChar: multiply
Encoding: 215 215 115
Width: 828
GlyphClass: 2
Flags: W
LayerCount: 2
UndoRedoHistory
Layer: 1
Undoes
EndUndoes
Redoes
EndRedoes
EndUndoRedoHistory
Fore
SplineSet
165 173 m 1,0,-1
 76 249 l 1,1,-1
 336 553 l 1,2,-1
 76 857 l 1,3,-1
 162 932 l 1,4,-1
 407 643 l 1,5,-1
 652 932 l 1,6,-1
 736 857 l 1,7,-1
 478 553 l 1,8,9
 474 555 474 555 483 544 c 128,-1,10
 492 533 492 533 510.5 511 c 128,-1,11
 529 489 529 489 551 463.5 c 128,-1,12
 573 438 573 438 600 406 c 128,-1,13
 627 374 627 374 649 349 c 128,-1,14
 671 324 671 324 693.5 297.5 c 128,-1,15
 716 271 716 271 724 262 c 128,-1,16
 732 253 732 253 736 248 c 1,17,-1
 649 173 l 1,18,-1
 407 462 l 1,19,-1
 165 173 l 1,0,-1
EndSplineSet
EndChar

StartChar: Oslash
Encoding: 216 216 116
Width: 1596
GlyphClass: 2
Flags: W
LayerCount: 2
UndoRedoHistory
Layer: 1
Undoes
EndUndoes
Redoes
EndRedoes
EndUndoRedoHistory
Fore
SplineSet
130 682.5 m 0,0,1
 130 1245.57936508 130 1245.57936508 509 1405 c 0,2,3
 635 1458 635 1458 777 1458 c 128,-1,4
 919 1458 919 1458 1021 1426 c 1,5,-1
 1089 1601 l 1,6,-1
 1211 1560 l 1,7,-1
 1137 1377 l 1,8,9
 1295 1289 1295 1289 1377 1119.5 c 128,-1,10
 1459 950 1459 950 1459 715 c 0,11,12
 1459 374 1459 374 1285.5 175.5 c 128,-1,13
 1112 -23 1112 -23 795 -24 c 0,14,15
 682 -24 682 -24 584 4 c 1,16,-1
 521 -161 l 1,17,-1
 405 -123 l 1,18,-1
 471 47 l 1,19,20
 302 132 302 132 216 306.5 c 128,-1,21
 130 481 130 481 130 682.5 c 0,0,1
527 191 m 1,22,-1
 967 1286 l 1,23,24
 889 1310 889 1310 790.5 1310 c 128,-1,25
 692 1310 692 1310 607 1280 c 0,26,27
 447.313559322 1223.64007976 447.313559322 1223.64007976 361.656779661 1074.49651047 c 128,-1,28
 276 925.352941176 276 925.352941176 276 733.676470588 c 128,-1,29
 276 542 276 542 339.5 402.5 c 128,-1,30
 403 263 403 263 527 191 c 1,22,-1
760.5 126 m 1,31,-1
 794 125 l 1,32,33
 1095.10596026 125 1095.10596026 125 1229.5 369.5 c 0,34,35
 1311 517.771084337 1311 517.771084337 1311 725 c 0,36,37
 1311 1080.66666667 1311 1080.66666667 1081 1234 c 1,38,-1
 640 145 l 1,39,40
 706.5 126 706.5 126 760.5 126 c 1,31,-1
EndSplineSet
EndChar

StartChar: Thorn
Encoding: 222 222 117
Width: 1227
GlyphClass: 2
Flags: W
LayerCount: 2
UndoRedoHistory
Layer: 1
Undoes
EndUndoes
Redoes
EndRedoes
EndUndoRedoHistory
Fore
SplineSet
1092 720 m 0,0,1
 1092 311 1092 311 661 311 c 0,2,3
 657 311 657 311 561 313.5 c 128,-1,4
 465 316 465 316 371 318 c 2,5,-1
 277 320 l 1,6,-1
 277 -4 l 1,7,-1
 131 -4 l 1,8,-1
 131 1369 l 1,9,-1
 277 1369 l 1,10,-1
 277 1102 l 1,11,-1
 586 1102 l 2,12,13
 843.033707865 1102 843.033707865 1102 967.516853933 1016.77692308 c 0,14,15
 1092 931.553846154 1092 931.553846154 1092 720 c 0,0,1
276 436 m 1,16,-1
 644 436 l 2,17,18
 890.052631579 436 890.052631579 436 942 600.5 c 0,19,20
 957 648 957 648 957 726 c 128,-1,21
 957 804 957 804 924.5 861.5 c 0,22,23
 858.652173913 978 858.652173913 978 602 978 c 2,24,-1
 277 978 l 1,25,-1
 276 436 l 1,16,-1
EndSplineSet
EndChar

StartChar: eth
Encoding: 240 240 118
Width: 1190
GlyphClass: 2
Flags: W
LayerCount: 2
UndoRedoHistory
Layer: 1
Undoes
EndUndoes
Redoes
EndRedoes
EndUndoRedoHistory
Fore
SplineSet
247.209923664 115.35840708 m 128,-1,1
 127 254.716814159 127 254.716814159 127 449.85840708 c 128,-1,2
 127 645 127 645 246.5 767.5 c 128,-1,3
 366 890 366 890 563 890 c 0,4,5
 659 890 659 890 727 861 c 128,-1,6
 795 832 795 832 853 788 c 1,7,8
 772 949 772 949 542 1171 c 1,9,-1
 287 1066 l 1,10,-1
 254 1175 l 1,11,-1
 467 1257 l 1,12,-1
 244 1461 l 1,13,-1
 421 1461 l 1,14,-1
 562 1310 l 1,15,-1
 832 1414 l 1,16,-1
 868 1309 l 1,17,-1
 636 1222 l 1,18,19
 872 971 872 971 963 804.642857143 c 128,-1,20
 1054 638.285714286 1054 638.285714286 1054 442.977678571 c 128,-1,21
 1054 247.669642857 1054 247.669642857 937.866412214 111.834821429 c 128,-1,22
 821.732824427 -24 821.732824427 -24 594.576335878 -24 c 128,-1,0
 367.419847328 -24 367.419847328 -24 247.209923664 115.35840708 c 128,-1,1
771 133.5 m 0,23,24
 918 225.871621622 918 225.871621622 918 430 c 0,25,26
 918 561.417721519 918 561.417721519 834.5 665 c 0,27,28
 795 714 795 714 731 744 c 128,-1,29
 667 774 667 774 592 774 c 0,30,31
 441.879120879 774 441.879120879 774 356.93956044 676.158227848 c 128,-1,32
 272 578.316455696 272 578.316455696 272 443 c 0,33,34
 272 261.692307692 272 261.692307692 387.5 161 c 0,35,36
 472.382352941 87 472.382352941 87 584.691176471 87 c 128,-1,37
 697 87 697 87 771 133.5 c 0,23,24
EndSplineSet
EndChar

StartChar: divide
Encoding: 247 247 119
Width: 1070
GlyphClass: 2
Flags: W
LayerCount: 2
UndoRedoHistory
Layer: 1
Undoes
EndUndoes
Redoes
EndRedoes
EndUndoRedoHistory
Fore
SplineSet
443 20 m 1,0,-1
 443 215 l 1,1,-1
 590 215 l 1,2,-1
 590 20 l 1,3,-1
 443 20 l 1,0,-1
85 483 m 1,4,-1
 85 608 l 1,5,-1
 973 608 l 1,6,-1
 973 483 l 1,7,-1
 85 483 l 1,4,-1
443 867 m 1,8,-1
 443 1064 l 1,9,-1
 627 1064 l 1,10,-1
 627 867 l 1,11,-1
 443 867 l 1,8,-1
EndSplineSet
EndChar

StartChar: oslash
Encoding: 248 248 120
Width: 1193
GlyphClass: 2
Flags: W
LayerCount: 2
UndoRedoHistory
Layer: 1
Undoes
EndUndoes
Redoes
EndRedoes
EndUndoRedoHistory
Fore
SplineSet
699 -14 m 0,0,1
 649 -25 649 -25 573 -25 c 128,-1,2
 497 -25 497 -25 422 5 c 1,3,-1
 306 -261 l 1,4,-1
 244 -228 l 1,5,-1
 357 36 l 1,6,7
 246 100 246 100 185.5 223 c 128,-1,8
 125 346 125 346 125 474 c 128,-1,9
 125 602 125 602 157 696.5 c 128,-1,10
 189 791 189 791 248 863.5 c 128,-1,11
 307 936 307 936 397 978.5 c 128,-1,12
 487 1021 487 1021 583.576923077 1021 c 128,-1,13
 680.153846154 1021 680.153846154 1021 762 993 c 1,14,-1
 873 1259 l 1,15,-1
 940 1230 l 1,16,-1
 827 962 l 1,17,18
 937 899 937 899 995 775 c 128,-1,19
 1053 651 1053 651 1053 497 c 0,20,21
 1053 283.684210526 1053 283.684210526 934.5 134 c 0,22,23
 842.289606458 17.5237134208 842.289606458 17.5237134208 699 -14 c 0,0,1
719 886 m 1,24,25
 660.2 907 660.2 907 593.6 907 c 128,-1,26
 527 907 527 907 470.5 883 c 0,27,28
 367.657303371 839.314606742 367.657303371 839.314606742 313.328651685 730.657303371 c 128,-1,29
 259 622 259 622 259 484.454545455 c 128,-1,30
 259 346.909090909 259 346.909090909 322 240 c 0,31,32
 355 184 355 184 403 147 c 1,33,-1
 719 886 l 1,24,25
465 114 m 1,34,35
 522 89 522 89 593.5 89 c 128,-1,36
 665 89 665 89 720.5 112.5 c 0,37,38
 822.81616879 155.823062461 822.81616879 155.823062461 870.908084395 260.840102659 c 128,-1,39
 919 365.857142857 919 365.857142857 919 469.428571429 c 0,40,41
 919 750.5 919 750.5 781 854 c 1,42,-1
 465 114 l 1,34,35
EndSplineSet
EndChar

StartChar: Dcroat
Encoding: 272 272 121
Width: 1490
GlyphClass: 2
Flags: W
LayerCount: 2
UndoRedoHistory
Layer: 1
Undoes
EndUndoes
Redoes
EndRedoes
EndUndoRedoHistory
Fore
SplineSet
384 141 m 1,0,-1
 671 141 l 2,1,2
 925 141 925 141 1063.5 274.5 c 128,-1,3
 1202 408 1202 408 1202 668 c 0,4,5
 1202 1029.53164557 1202 1029.53164557 960 1149 c 0,6,7
 816.179487179 1220 816.179487179 1220 581 1220 c 2,8,-1
 384 1220 l 1,9,-1
 384 757 l 1,10,-1
 604 757 l 1,11,-1
 604 634 l 1,12,-1
 384 634 l 1,13,-1
 384 141 l 1,0,-1
223 0 m 1,14,-1
 223 634 l 1,15,-1
 116 634 l 1,16,-1
 116 757 l 1,17,-1
 223 757 l 1,18,-1
 223 1361 l 1,19,-1
 561 1361 l 2,20,21
 1025.55769231 1361 1025.55769231 1361 1223.5 1142 c 0,22,23
 1374 975.489361702 1374 975.489361702 1374 656.628891377 c 0,24,25
 1374 337.768421053 1374 337.768421053 1178.34146341 168.884210526 c 0,26,27
 982.682926829 -4.26325641456e-14 982.682926829 -4.26325641456e-14 654 0 c 2,28,-1
 223 0 l 1,14,-1
EndSplineSet
EndChar

StartChar: dcroat
Encoding: 273 273 122
Width: 1193
GlyphClass: 2
Flags: W
LayerCount: 2
UndoRedoHistory
Layer: 1
Undoes
EndUndoes
Redoes
EndRedoes
EndUndoRedoHistory
Fore
SplineSet
565 -21 m 0,0,1
 360 -21 360 -21 243 124 c 128,-1,2
 126 269 126 269 126 500.5 c 0,3,4
 126 732 126 732 247.5 875.5 c 128,-1,5
 369 1019 369 1019 564 1019 c 0,6,7
 662 1019 662 1019 750 976 c 128,-1,8
 838 933 838 933 888 862 c 1,9,10
 884 928 884 928 884 1053 c 2,11,-1
 884 1417 l 1,12,-1
 1058 1431 l 1,13,-1
 1058 0 l 1,14,-1
 901 0 l 1,15,-1
 884 163 l 1,16,17
 844 76 844 76 757 27.5 c 128,-1,18
 670 -21 670 -21 565 -21 c 0,0,1
128 1118 m 1,19,-1
 128 1220 l 1,20,-1
 591 1220 l 1,21,-1
 591 1118 l 1,22,-1
 128 1118 l 1,19,-1
592 108 m 0,23,24
 884 108 884 108 884 482 c 0,25,26
 884 685 884 685 816 788 c 128,-1,27
 748 891 748 891 599.5 891 c 0,28,29
 451 891 451 891 376 786.5 c 128,-1,30
 301 682 301 682 301 500 c 0,31,32
 301 318 301 318 375.5 213 c 128,-1,33
 450 108 450 108 592 108 c 0,23,24
EndSplineSet
EndChar

StartChar: Hbar
Encoding: 294 294 123
Width: 1501
GlyphClass: 2
Flags: W
LayerCount: 2
UndoRedoHistory
Layer: 1
Undoes
EndUndoes
Redoes
EndRedoes
EndUndoRedoHistory
Fore
SplineSet
222 0 m 1,0,-1
 222 1038 l 1,1,-1
 137 1038 l 1,2,-1
 137 1123 l 1,3,-1
 222 1123 l 1,4,-1
 222 1367 l 1,5,-1
 354 1367 l 1,6,-1
 354 1123 l 1,7,-1
 1141 1123 l 1,8,-1
 1141 1367 l 1,9,-1
 1273 1367 l 1,10,-1
 1273 1123 l 1,11,-1
 1357 1123 l 1,12,-1
 1357 1038 l 1,13,-1
 1273 1038 l 1,14,-1
 1273 0 l 1,15,-1
 1141 0 l 1,16,-1
 1141 642 l 1,17,-1
 354 642 l 1,18,-1
 354 0 l 1,19,-1
 222 0 l 1,0,-1
354 768 m 1,20,-1
 1141 768 l 1,21,-1
 1141 1038 l 1,22,-1
 354 1038 l 1,23,-1
 354 768 l 1,20,-1
EndSplineSet
EndChar

StartChar: hbar
Encoding: 295 295 124
Width: 1155
GlyphClass: 2
Flags: W
LayerCount: 2
UndoRedoHistory
Layer: 1
Undoes
EndUndoes
Redoes
EndRedoes
EndUndoRedoHistory
Fore
SplineSet
226 0 m 1,0,-1
 226 1167 l 1,1,-1
 143 1167 l 1,2,-1
 143 1264 l 1,3,-1
 226 1264 l 1,4,-1
 226 1353 l 1,5,-1
 352 1371 l 1,6,-1
 352 1264 l 1,7,-1
 600 1264 l 1,8,-1
 600 1167 l 1,9,-1
 352 1167 l 1,10,-1
 352 851 l 1,11,12
 488 1021 488 1021 722 1021 c 0,13,14
 1015 1021 1015 1021 1015 602 c 2,15,-1
 1015 0 l 1,16,-1
 889 0 l 1,17,-1
 889 551 l 2,18,19
 889 748.6 889 748.6 851 817 c 0,20,21
 803.222222222 903 803.222222222 903 669.207602339 903 c 0,22,23
 535.192982456 903 535.192982456 903 425.5 800.5 c 0,24,25
 365.290819902 744.238962859 365.290819902 744.238962859 352 680 c 1,26,-1
 352 0 l 1,27,-1
 226 0 l 1,0,-1
EndSplineSet
EndChar

StartChar: dotlessi
Encoding: 305 305 125
Width: 393
GlyphClass: 2
Flags: W
LayerCount: 2
UndoRedoHistory
Layer: 1
Undoes
EndUndoes
Redoes
EndRedoes
EndUndoRedoHistory
Fore
SplineSet
136 0 m 1,0,-1
 136 995 l 1,1,-1
 263 995 l 1,2,-1
 263 0 l 1,3,-1
 136 0 l 1,0,-1
EndSplineSet
EndChar

StartChar: IJ
Encoding: 306 306 126
Width: 1115
GlyphClass: 2
Flags: W
LayerCount: 2
UndoRedoHistory
Layer: 1
Undoes
EndUndoes
Redoes
EndRedoes
EndUndoRedoHistory
Fore
SplineSet
622 -177 m 0,0,1
 617.4 -177 617.4 -177 600.6 -135 c 128,-1,2
 583.8 -93 583.8 -93 580 -93 c 0,3,4
 568 -91 568 -91 590 -62.5 c 128,-1,5
 612 -34 612 -34 607 -34 c 1,6,7
 721.137931034 -34 721.137931034 -34 750.5 31.5 c 0,8,9
 764.298245614 62.2807017544 764.298245614 62.2807017544 767.149122807 93.6403508772 c 128,-1,10
 770 125 770 125 772 145 c 1,11,12
 795.085959885 145 795.085959885 145 804.042979943 535.75 c 128,-1,13
 813 926.5 813 926.5 813 1030 c 1,14,-1
 880 1347 l 1,15,-1
 955 548 l 1,16,-1
 955 520 l 2,17,18
 955 295.375 955 295.375 942.5 228.1875 c 0,19,20
 913.45154911 72.0520764667 913.45154911 72.0520764667 873.5 18.5 c 0,21,22
 815.682539683 -59 815.682539683 -59 729 -59 c 1,23,24
 731.813953488 -72.8139534884 731.813953488 -72.8139534884 731.813953488 -96.8081395349 c 128,-1,25
 731.813953488 -120.802325581 731.813953488 -120.802325581 703.906976744 -147.401162791 c 128,-1,26
 676 -174 676 -174 622 -177 c 0,0,1
138 0 m 1,27,-1
 138 1347 l 1,28,-1
 279 1347 l 1,29,-1
 279 0 l 1,30,-1
 138 0 l 1,27,-1
EndSplineSet
EndChar

StartChar: ldot
Encoding: 320 320 127
Width: 1062
GlyphClass: 2
Flags: W
LayerCount: 2
UndoRedoHistory
Layer: 1
Undoes
EndUndoes
Redoes
EndRedoes
EndUndoRedoHistory
Fore
SplineSet
551 -3 m 1,0,1
 461 -18 461 -18 399.5 -18 c 0,2,3
 278.101449275 -18 278.101449275 -18 206.550724638 48.7162162162 c 128,-1,4
 135 115.432432432 135 115.432432432 135 305 c 2,5,-1
 135 1417 l 1,6,-1
 309 1431 l 1,7,-1
 309 360 l 2,8,9
 309 209.5 309 209.5 318 187.75 c 0,10,11
 338.937418514 137.151238592 338.937418514 137.151238592 360.5 129.5 c 0,12,13
 398.545454545 116 398.545454545 116 448.272727273 116 c 128,-1,14
 498 116 498 116 542 122 c 1,15,-1
 551 -3 l 1,0,1
802 511 m 1,16,-1
 802 691 l 1,17,-1
 955 691 l 1,18,-1
 955 511 l 1,19,-1
 802 511 l 1,16,-1
EndSplineSet
EndChar

StartChar: Eng
Encoding: 330 330 128
Width: 1305
GlyphClass: 2
Flags: W
LayerCount: 2
UndoRedoHistory
Layer: 1
Undoes
EndUndoes
Redoes
EndRedoes
EndUndoRedoHistory
Fore
SplineSet
741 1254 m 0,0,1
 458.909090909 1254 458.909090909 1254 272 997 c 1,2,-1
 272 0 l 1,3,-1
 151 0 l 1,4,-1
 148 1366 l 1,5,-1
 261 1366 l 1,6,-1
 276 1162 l 1,7,8
 443.586206897 1337.03448276 443.586206897 1337.03448276 620.466793169 1371.99924981 c 0,9,10
 696.352941176 1387 696.352941176 1387 786 1387 c 0,11,12
 962 1387 962 1387 1053 1270.5 c 128,-1,13
 1144 1154 1144 1154 1144 928 c 2,14,-1
 1144 152 l 2,15,16
 1144 -145.909090909 1144 -145.909090909 1045.81188119 -220.889108911 c 128,-1,17
 947.452380952 -296 947.452380952 -296 813.75625 -296 c 0,18,19
 727.2 -296 727.2 -296 566 -283 c 1,20,-1
 545 -168 l 1,21,22
 675.5 -177 675.5 -177 694.75 -177 c 2,23,-1
 724 -177 l 2,24,25
 869.628571429 -177 869.628571429 -177 914.314285714 -154 c 128,-1,26
 959 -131 959 -131 978 -110 c 0,27,28
 1023 -60.2631578947 1023 -60.2631578947 1023 160 c 2,29,-1
 1023 924 l 2,30,31
 1023 1117 1023 1117 959 1185.5 c 128,-1,32
 895 1254 895 1254 741 1254 c 0,0,1
EndSplineSet
EndChar

StartChar: eng
Encoding: 331 331 129
Width: 1111
GlyphClass: 2
Flags: W
LayerCount: 2
UndoRedoHistory
Layer: 1
Undoes
EndUndoes
Redoes
EndRedoes
EndUndoRedoHistory
Fore
SplineSet
591 -262 m 1,0,-1
 584 -125 l 1,1,-1
 617 -125 l 2,2,3
 738.555555556 -125 738.555555556 -125 764.474675152 -91.6754176611 c 128,-1,4
 790.393794749 -58.3508353222 790.393794749 -58.3508353222 793.696897375 -4.6754176611 c 128,-1,5
 797 49 797 49 797 104 c 2,6,-1
 797 625 l 2,7,8
 797 793.822222222 797 793.822222222 743.215909091 846.411111111 c 128,-1,9
 689.431818182 899 689.431818182 899 610.715909091 899 c 0,10,11
 464.548387097 899 464.548387097 899 401.32089572 838.690700533 c 128,-1,12
 338.093404342 778.381401065 338.093404342 778.381401065 314 680 c 1,13,14
 308 604 308 604 308 557 c 2,15,-1
 308 0 l 1,16,-1
 157 0 l 1,17,-1
 157 994 l 1,18,-1
 288 994 l 1,19,-1
 305 844 l 1,20,21
 409 1014 409 1014 623 1014 c 0,22,23
 792 1014 792 1014 870 913.5 c 128,-1,24
 948 813 948 813 948 606 c 2,25,-1
 948 153 l 2,26,27
 948 -54 948 -54 908 -138 c 0,28,29
 849.009708738 -262 849.009708738 -262 655 -262 c 2,30,-1
 591 -262 l 1,0,-1
EndSplineSet
EndChar

StartChar: OE
Encoding: 338 338 130
Width: 1849
GlyphClass: 2
Flags: W
LayerCount: 2
UndoRedoHistory
Layer: 1
Undoes
EndUndoes
Redoes
EndRedoes
EndUndoRedoHistory
Fore
SplineSet
782 -22 m 0,0,1
 453.502590674 -22 453.502590674 -22 290.251295337 176.160377358 c 128,-1,2
 127 374.320754717 127 374.320754717 127 708 c 1,3,4
 131 855 131 855 179.5 982 c 128,-1,5
 228 1109 228 1109 309.5 1199.5 c 128,-1,6
 391 1290 391 1290 507 1341.5 c 128,-1,7
 623 1393 623 1393 740.5 1393 c 0,8,9
 967.531914894 1393 967.531914894 1393 1077 1288 c 1,10,-1
 1077 1365 l 1,11,-1
 1681 1365 l 1,12,-1
 1667 1239 l 1,13,-1
 1212 1239 l 1,14,-1
 1212 763 l 1,15,-1
 1632 763 l 1,16,-1
 1632 637 l 1,17,-1
 1212 637 l 1,18,-1
 1212 127 l 1,19,-1
 1702 127 l 1,20,-1
 1689 -1 l 1,21,-1
 1077 -1 l 1,22,-1
 1077 77 l 1,23,24
 1063 57 1063 57 1012.5 33.5 c 0,25,26
 893.234042553 -22 893.234042553 -22 782 -22 c 0,0,1
278.777777778 710.975308642 m 0,27,28
 278.777777778 110.03968254 278.777777778 110.03968254 785 101 c 1,29,30
 857 101 857 101 942.5 129 c 128,-1,31
 1028 157 1028 157 1077 183 c 1,32,-1
 1077 1168 l 1,33,34
 948.454545455 1269 948.454545455 1269 786.727272727 1269 c 128,-1,35
 625 1269 625 1269 513 1198.5 c 128,-1,36
 401 1128 401 1128 339.888888889 999.666666667 c 0,37,38
 278.777777778 871.333333333 278.777777778 871.333333333 278.777777778 710.975308642 c 0,27,28
EndSplineSet
EndChar

StartChar: Tbar
Encoding: 358 358 131
Width: 1131
GlyphClass: 2
Flags: W
LayerCount: 2
UndoRedoHistory
Layer: 1
Undoes
EndUndoes
Redoes
EndRedoes
EndUndoRedoHistory
Fore
SplineSet
484 0 m 1,0,-1
 484 483 l 1,1,-1
 330 483 l 1,2,-1
 330 595 l 1,3,-1
 484 595 l 1,4,-1
 484 1220 l 1,5,-1
 77 1220 l 1,6,-1
 77 1361 l 1,7,-1
 1053 1361 l 1,8,-1
 1053 1220 l 1,9,-1
 645 1220 l 1,10,-1
 645 595 l 1,11,-1
 793 595 l 1,12,-1
 793 483 l 1,13,-1
 645 483 l 1,14,-1
 645 0 l 1,15,-1
 484 0 l 1,0,-1
EndSplineSet
EndChar

StartChar: tbar
Encoding: 359 359 132
Width: 815
GlyphClass: 2
Flags: W
LayerCount: 2
UndoRedoHistory
Layer: 1
Undoes
EndUndoes
Redoes
EndRedoes
EndUndoRedoHistory
Fore
SplineSet
563 107 m 1,0,-1
 687 117 l 1,1,-1
 701 -6 l 1,2,3
 564 -18 564 -18 520 -18 c 0,4,5
 372.4 -18 372.4 -18 319.782276334 58.1572316212 c 0,6,7
 284.271777003 109.554006969 284.271777003 109.554006969 275.135888502 191.777003484 c 128,-1,8
 266 274 266 274 266 405 c 2,9,-1
 266 581 l 1,10,-1
 125 581 l 1,11,-1
 125 695 l 1,12,-1
 266 695 l 1,13,-1
 266 892 l 1,14,-1
 114 892 l 1,15,-1
 126 999 l 1,16,-1
 266 999 l 1,17,-1
 306 1225 l 1,18,-1
 419 1233 l 1,19,-1
 419 999 l 1,20,-1
 683 999 l 1,21,-1
 683 892 l 1,22,-1
 419 892 l 1,23,-1
 419 695 l 1,24,-1
 609 695 l 1,25,-1
 609 581 l 1,26,-1
 419 581 l 1,27,-1
 419 334 l 2,28,29
 419 193 419 193 445.5 150 c 128,-1,30
 472 107 472 107 563 107 c 1,0,-1
EndSplineSet
EndChar

StartChar: uni01C4
Encoding: 452 452 133
Width: 2621
GlyphClass: 2
Flags: W
LayerCount: 2
UndoRedoHistory
Layer: 1
Undoes
EndUndoes
Redoes
EndRedoes
EndUndoRedoHistory
Fore
SplineSet
1535 0 m 1,0,-1
 1535 113 l 1,1,-1
 2263 1226 l 1,2,-1
 1560 1226 l 1,3,-1
 1559 1346 l 1,4,-1
 2439 1346 l 1,5,-1
 2439 1245 l 1,6,-1
 1707 121 l 1,7,-1
 2448 121 l 1,8,-1
 2441 0 l 1,9,-1
 1535 0 l 1,0,-1
1972 1556 m 1,10,-1
 1825 1913 l 1,11,-1
 1919 1913 l 1,12,-1
 2072 1603 l 1,13,-1
 2216 1913 l 1,14,-1
 2313 1913 l 1,15,-1
 2167 1556 l 1,16,-1
 1972 1556 l 1,10,-1
298 117 m 1,17,-1
 539 117 l 2,18,19
 818 117 818 117 963 256.5 c 128,-1,20
 1108 396 1108 396 1108 670 c 0,21,22
 1108 1126.49180328 1108 1126.49180328 718.5 1209.5 c 0,23,24
 627 1229 627 1229 513 1229 c 2,25,-1
 298 1229 l 1,26,-1
 298 117 l 1,17,-1
157 0 m 1,27,-1
 157 1346 l 1,28,-1
 523 1346 l 2,29,30
 1088.47085202 1346 1088.47085202 1346 1217 924.5 c 0,31,32
 1251 813 1251 813 1251 674 c 0,33,34
 1251 343 1251 343 1067.5 171.5 c 128,-1,35
 884 0 884 0 551 0 c 2,36,-1
 157 0 l 1,27,-1
EndSplineSet
EndChar

StartChar: uni01F1
Encoding: 497 497 134
Width: 2621
GlyphClass: 2
Flags: W
LayerCount: 2
UndoRedoHistory
Layer: 1
Undoes
EndUndoes
Redoes
EndRedoes
EndUndoRedoHistory
Fore
SplineSet
1535 0 m 1,0,-1
 1535 113 l 1,1,-1
 2263 1226 l 1,2,-1
 1560 1226 l 1,3,-1
 1559 1346 l 1,4,-1
 2439 1346 l 1,5,-1
 2439 1245 l 1,6,-1
 1707 121 l 1,7,-1
 2448 121 l 1,8,-1
 2441 0 l 1,9,-1
 1535 0 l 1,0,-1
298 117 m 1,10,-1
 539 117 l 2,11,12
 818 117 818 117 963 256.5 c 128,-1,13
 1108 396 1108 396 1108 670 c 0,14,15
 1108 1126.49180328 1108 1126.49180328 718.5 1209.5 c 0,16,17
 627 1229 627 1229 513 1229 c 2,18,-1
 298 1229 l 1,19,-1
 298 117 l 1,10,-1
157 0 m 1,20,-1
 157 1346 l 1,21,-1
 523 1346 l 2,22,23
 1088.47085202 1346 1088.47085202 1346 1217 924.5 c 0,24,25
 1251 813 1251 813 1251 674 c 0,26,27
 1251 343 1251 343 1067.5 171.5 c 128,-1,28
 884 0 884 0 551 0 c 2,29,-1
 157 0 l 1,20,-1
EndSplineSet
EndChar

StartChar: uni0237
Encoding: 567 567 135
Width: 404
GlyphClass: 2
Flags: W
LayerCount: 2
UndoRedoHistory
Layer: 1
Undoes
EndUndoes
Redoes
EndRedoes
EndUndoRedoHistory
Fore
SplineSet
117 -159 m 1,0,-1
 115 -77 l 1,1,-1
 115 1001 l 1,2,-1
 274 1001 l 1,3,-1
 274 -106 l 2,4,5
 274 -198 274 -198 262.5 -254 c 128,-1,6
 251 -310 251 -310 219.5 -348 c 128,-1,7
 188 -386 188 -386 134 -400.5 c 128,-1,8
 80 -415 80 -415 -8 -415 c 2,9,-1
 -57 -415 l 1,10,-1
 -82 -287 l 1,11,-1
 -32 -287 l 2,12,13
 49.2857142857 -287 49.2857142857 -287 68.1428571429 -275 c 128,-1,14
 87 -263 87 -263 94.5 -257.5 c 0,15,16
 117 -241 117 -241 117 -159 c 1,0,-1
EndSplineSet
EndChar

StartChar: uni02BC
Encoding: 700 700 136
Width: 494
GlyphClass: 2
Flags: W
LayerCount: 2
UndoRedoHistory
Layer: 1
Undoes
EndUndoes
Redoes
EndRedoes
EndUndoRedoHistory
Fore
SplineSet
130 1031 m 1,0,-1
 242 1449 l 1,1,-1
 368 1449 l 1,2,-1
 224 1031 l 1,3,-1
 130 1031 l 1,0,-1
EndSplineSet
EndChar

StartChar: circumflex
Encoding: 710 710 137
Width: 742
GlyphClass: 2
Flags: W
LayerCount: 2
UndoRedoHistory
Layer: 1
Undoes
EndUndoes
Redoes
EndRedoes
EndUndoRedoHistory
Fore
SplineSet
117 1159 m 1,0,-1
 269 1508 l 1,1,-1
 462 1508 l 1,2,-1
 612 1159 l 1,3,-1
 511 1159 l 1,4,-1
 367 1419 l 1,5,-1
 219 1159 l 1,6,-1
 117 1159 l 1,0,-1
EndSplineSet
EndChar

StartChar: caron
Encoding: 711 711 138
Width: 742
GlyphClass: 2
Flags: W
LayerCount: 2
UndoRedoHistory
Layer: 1
Undoes
EndUndoes
Redoes
EndRedoes
EndUndoRedoHistory
Fore
SplineSet
267 1152 m 1,0,-1
 120 1508 l 1,1,-1
 215 1508 l 1,2,-1
 367 1201 l 1,3,-1
 513 1508 l 1,4,-1
 609 1508 l 1,5,-1
 462 1152 l 1,6,-1
 267 1152 l 1,0,-1
EndSplineSet
EndChar

StartChar: breve
Encoding: 728 728 139
Width: 704
GlyphClass: 2
Flags: W
LayerCount: 2
UndoRedoHistory
Layer: 1
Undoes
EndUndoes
Redoes
EndRedoes
EndUndoRedoHistory
Fore
SplineSet
136 1417 m 1,0,-1
 224 1417 l 1,1,2
 224 1319.40909091 224 1319.40909091 304 1288.5 c 0,3,4
 326 1280 326 1280 364.5 1280 c 128,-1,5
 403 1280 403 1280 442.5 1316 c 128,-1,6
 482 1352 482 1352 482 1417 c 1,7,-1
 569 1417 l 1,8,9
 569 1290.15789474 569 1290.15789474 471.5 1232 c 0,10,11
 417.852941176 1200 417.852941176 1200 343.926470588 1200 c 0,12,13
 270 1200 270 1200 203 1252.34375 c 128,-1,14
 136 1304.6875 136 1304.6875 136 1417 c 1,0,-1
EndSplineSet
EndChar

StartChar: dotaccent
Encoding: 729 729 140
Width: 344
GlyphClass: 2
Flags: W
LayerCount: 2
UndoRedoHistory
Layer: 1
Undoes
EndUndoes
Redoes
EndRedoes
EndUndoRedoHistory
Fore
SplineSet
104 1193 m 1,0,-1
 104 1366 l 1,1,-1
 244 1366 l 1,2,-1
 244 1193 l 1,3,-1
 104 1193 l 1,0,-1
EndSplineSet
EndChar

StartChar: ring
Encoding: 730 730 141
Width: 574
GlyphClass: 2
Flags: W
LayerCount: 2
UndoRedoHistory
Layer: 1
Undoes
EndUndoes
Redoes
EndRedoes
EndUndoRedoHistory
Fore
SplineSet
222.5 1254 m 128,-1,1
 247 1226 247 1226 284.857142857 1226 c 0,2,3
 322.714285714 1226 322.714285714 1226 350.357142857 1256.96 c 128,-1,4
 378 1287.92 378 1287.92 378 1330.46 c 128,-1,5
 378 1373 378 1373 351.5 1404.5 c 128,-1,6
 325 1436 325 1436 296 1436 c 128,-1,7
 267 1436 267 1436 246 1422 c 0,8,9
 198 1390 198 1390 198 1336 c 128,-1,0
 198 1282 198 1282 222.5 1254 c 128,-1,1
407 1211.5 m 128,-1,11
 356 1168 356 1168 282.5 1168 c 128,-1,12
 209 1168 209 1168 165 1218 c 128,-1,13
 121 1268 121 1268 121 1337.5 c 128,-1,14
 121 1407 121 1407 172.5 1456 c 128,-1,15
 224 1505 224 1505 289.5 1505 c 128,-1,16
 355 1505 355 1505 406.5 1454.5 c 128,-1,17
 458 1404 458 1404 458 1329.5 c 128,-1,10
 458 1255 458 1255 407 1211.5 c 128,-1,11
EndSplineSet
EndChar

StartChar: ogonek
Encoding: 731 731 142
Width: 545
GlyphClass: 2
Flags: W
LayerCount: 2
UndoRedoHistory
Layer: 1
Undoes
EndUndoes
Redoes
EndRedoes
EndUndoRedoHistory
Fore
SplineSet
206 -207.5 m 0,0,1
 206 -260.263157895 206 -260.263157895 253 -285 c 0,2,3
 272 -295 272 -295 306.166666667 -295 c 128,-1,4
 340.333333333 -295 340.333333333 -295 417 -265 c 1,5,-1
 415 -363 l 1,6,7
 358.545454545 -390 358.545454545 -390 282.272727273 -390 c 128,-1,8
 206 -390 206 -390 158.5 -348 c 128,-1,9
 111 -306 111 -306 111 -236.5 c 0,10,11
 111 -109.384615385 111 -109.384615385 285 -9 c 1,12,-1
 388 -5 l 1,13,14
 271.062801932 -91.1642512077 271.062801932 -91.1642512077 238.531400966 -135.582125604 c 128,-1,15
 206 -180 206 -180 206 -207.5 c 0,0,1
EndSplineSet
EndChar

StartChar: tilde
Encoding: 732 732 143
Width: 839
GlyphClass: 2
Flags: W
LayerCount: 2
UndoRedoHistory
Layer: 1
Undoes
EndUndoes
Redoes
EndRedoes
EndUndoRedoHistory
Fore
SplineSet
320.072740515 1331.92296867 m 1,0,-1
 469 1318 l 1,1,-1
 518.5 1319 l 1,2,3
 572.2 1319 572.2 1319 580 1358 c 1,4,-1
 635 1380 l 1,5,6
 635 1263.45454545 635 1263.45454545 626 1257.72727273 c 128,-1,7
 617 1252 617 1252 614 1252 c 2,8,-1
 585 1254 l 1,9,-1
 526.5 1254 l 1,10,-1
 372.5 1255 l 1,11,-1
 338 1255 l 1,12,-1
 277.5 1258 l 1,13,14
 229.222222222 1258 229.222222222 1258 217 1214 c 1,15,-1
 164 1187 l 1,16,17
 164 1274.18181818 164 1274.18181818 180 1293.09090909 c 128,-1,18
 196 1312 196 1312 207.5 1316 c 128,-1,19
 219 1320 219 1320 238 1320 c 1,20,21
 278.24001927 1331.92296867 278.24001927 1331.92296867 320.072740515 1331.92296867 c 1,0,-1
EndSplineSet
EndChar

StartChar: hungarumlaut
Encoding: 733 733 144
Width: 706
GlyphClass: 2
Flags: W
LayerCount: 2
UndoRedoHistory
Layer: 1
Undoes
EndUndoes
Redoes
EndRedoes
EndUndoRedoHistory
Fore
SplineSet
114 1169 m 1,0,-1
 280 1466 l 1,1,-1
 393 1466 l 1,2,-1
 190 1169 l 1,3,-1
 114 1169 l 1,0,-1
309 1169 m 1,4,-1
 476 1466 l 1,5,-1
 586 1466 l 1,6,-1
 386 1169 l 1,7,-1
 309 1169 l 1,4,-1
EndSplineSet
EndChar

StartChar: uni0307
Encoding: 775 775 145
Width: 318
GlyphClass: 2
Flags: W
LayerCount: 2
UndoRedoHistory
Layer: 1
Undoes
EndUndoes
Redoes
EndRedoes
EndUndoRedoHistory
Fore
SplineSet
85 1201 m 1,0,-1
 85 1374 l 1,1,-1
 225 1374 l 1,2,-1
 225 1201 l 1,3,-1
 85 1201 l 1,0,-1
EndSplineSet
EndChar

StartChar: dblgravecmb
Encoding: 783 783 146
Width: 700
GlyphClass: 2
Flags: W
LayerCount: 2
UndoRedoHistory
Layer: 1
Undoes
EndUndoes
Redoes
EndRedoes
EndUndoRedoHistory
Fore
SplineSet
309 1160 m 1,0,-1
 102 1461 l 1,1,-1
 198 1461 l 1,2,-1
 379 1160 l 1,3,-1
 309 1160 l 1,0,-1
529 1160 m 1,4,-1
 322 1461 l 1,5,-1
 423 1461 l 1,6,-1
 593 1160 l 1,7,-1
 529 1160 l 1,4,-1
EndSplineSet
EndChar

StartChar: uni0311
Encoding: 785 785 147
Width: 654
GlyphClass: 2
Flags: W
LayerCount: 2
UndoRedoHistory
Layer: 1
Undoes
EndUndoes
Redoes
EndRedoes
EndUndoRedoHistory
Fore
SplineSet
332 1333 m 0,0,1
 195 1333 195 1333 195 1196 c 1,2,-1
 109 1196 l 1,3,4
 109 1364.2 109 1364.2 243.5 1418 c 0,5,6
 281 1433 281 1433 321.5 1433 c 0,7,8
 405.842105263 1433 405.842105263 1433 472.921052632 1372.30952381 c 128,-1,9
 540 1311.61904762 540 1311.61904762 540 1196 c 1,10,-1
 453 1196 l 1,11,12
 453 1262 453 1262 415.5 1297.5 c 128,-1,13
 378 1333 378 1333 332 1333 c 0,0,1
EndSplineSet
EndChar

StartChar: commaaccentcomb
Encoding: 806 806 148
Width: 333
GlyphClass: 2
Flags: W
LayerCount: 2
UndoRedoHistory
Layer: 1
Undoes
EndUndoes
Redoes
EndRedoes
EndUndoRedoHistory
Fore
SplineSet
53 -615 m 1,0,-1
 135 -167 l 1,1,-1
 265 -167 l 1,2,-1
 142 -615 l 1,3,-1
 53 -615 l 1,0,-1
EndSplineSet
EndChar

StartChar: tonos
Encoding: 900 900 149
Width: 430
GlyphClass: 2
Flags: W
LayerCount: 2
UndoRedoHistory
Layer: 1
Undoes
EndUndoes
Redoes
EndRedoes
EndUndoRedoHistory
Fore
SplineSet
304 519 m 128,-1,1
 273 484 273 484 217 484 c 128,-1,2
 161 484 161 484 129 519.5 c 128,-1,3
 97 555 97 555 97 603 c 128,-1,4
 97 651 97 651 129 686 c 128,-1,5
 161 721 161 721 218.264705882 721 c 0,6,7
 275.529411765 721 275.529411765 721 305.264705882 684.892857143 c 128,-1,8
 335 648.785714286 335 648.785714286 335 601.392857143 c 128,-1,0
 335 554 335 554 304 519 c 128,-1,1
EndSplineSet
EndChar

StartChar: dieresistonos
Encoding: 901 901 150
Width: 430
GlyphClass: 2
Flags: W
LayerCount: 2
UndoRedoHistory
Layer: 1
Undoes
EndUndoes
Redoes
EndRedoes
EndUndoRedoHistory
Fore
SplineSet
304 519 m 128,-1,1
 273 484 273 484 217 484 c 128,-1,2
 161 484 161 484 129 519.5 c 128,-1,3
 97 555 97 555 97 603 c 128,-1,4
 97 651 97 651 129 686 c 128,-1,5
 161 721 161 721 218.264705882 721 c 0,6,7
 275.529411765 721 275.529411765 721 305.264705882 684.892857143 c 128,-1,8
 335 648.785714286 335 648.785714286 335 601.392857143 c 128,-1,0
 335 554 335 554 304 519 c 128,-1,1
EndSplineSet
EndChar

StartChar: Alphatonos
Encoding: 902 902 151
Width: 463
GlyphClass: 2
Flags: W
LayerCount: 2
UndoRedoHistory
Layer: 1
Undoes
EndUndoes
Redoes
EndRedoes
EndUndoRedoHistory
Fore
SplineSet
313.5 519 m 128,-1,1
 282 484 282 484 224.909090909 484 c 0,2,3
 167.818181818 484 167.818181818 484 136.909090909 520.428571429 c 128,-1,4
 106 556.857142857 106 556.857142857 106 603.928571429 c 128,-1,5
 106 651 106 651 137.5 686 c 128,-1,6
 169 721 169 721 225.5 721 c 128,-1,7
 282 721 282 721 313.5 686 c 128,-1,8
 345 651 345 651 345 602.5 c 128,-1,0
 345 554 345 554 313.5 519 c 128,-1,1
EndSplineSet
EndChar

StartChar: Epsilontonos
Encoding: 904 904 152
Width: 463
GlyphClass: 2
Flags: W
LayerCount: 2
UndoRedoHistory
Layer: 1
Undoes
EndUndoes
Redoes
EndRedoes
EndUndoRedoHistory
Fore
SplineSet
313.5 519 m 128,-1,1
 282 484 282 484 224.909090909 484 c 0,2,3
 167.818181818 484 167.818181818 484 136.909090909 520.428571429 c 128,-1,4
 106 556.857142857 106 556.857142857 106 603.928571429 c 128,-1,5
 106 651 106 651 137.5 686 c 128,-1,6
 169 721 169 721 225.5 721 c 128,-1,7
 282 721 282 721 313.5 686 c 128,-1,8
 345 651 345 651 345 602.5 c 128,-1,0
 345 554 345 554 313.5 519 c 128,-1,1
EndSplineSet
EndChar

StartChar: Etatonos
Encoding: 905 905 153
Width: 463
GlyphClass: 2
Flags: W
LayerCount: 2
UndoRedoHistory
Layer: 1
Undoes
EndUndoes
Redoes
EndRedoes
EndUndoRedoHistory
Fore
SplineSet
313.5 519 m 128,-1,1
 282 484 282 484 224.909090909 484 c 0,2,3
 167.818181818 484 167.818181818 484 136.909090909 520.428571429 c 128,-1,4
 106 556.857142857 106 556.857142857 106 603.928571429 c 128,-1,5
 106 651 106 651 137.5 686 c 128,-1,6
 169 721 169 721 225.5 721 c 128,-1,7
 282 721 282 721 313.5 686 c 128,-1,8
 345 651 345 651 345 602.5 c 128,-1,0
 345 554 345 554 313.5 519 c 128,-1,1
EndSplineSet
EndChar

StartChar: Iotatonos
Encoding: 906 906 154
Width: 463
GlyphClass: 2
Flags: W
LayerCount: 2
UndoRedoHistory
Layer: 1
Undoes
EndUndoes
Redoes
EndRedoes
EndUndoRedoHistory
Fore
SplineSet
313.5 519 m 128,-1,1
 282 484 282 484 224.909090909 484 c 0,2,3
 167.818181818 484 167.818181818 484 136.909090909 520.428571429 c 128,-1,4
 106 556.857142857 106 556.857142857 106 603.928571429 c 128,-1,5
 106 651 106 651 137.5 686 c 128,-1,6
 169 721 169 721 225.5 721 c 128,-1,7
 282 721 282 721 313.5 686 c 128,-1,8
 345 651 345 651 345 602.5 c 128,-1,0
 345 554 345 554 313.5 519 c 128,-1,1
EndSplineSet
EndChar

StartChar: Omicrontonos
Encoding: 908 908 155
Width: 463
GlyphClass: 2
Flags: W
LayerCount: 2
UndoRedoHistory
Layer: 1
Undoes
EndUndoes
Redoes
EndRedoes
EndUndoRedoHistory
Fore
SplineSet
313.5 519 m 128,-1,1
 282 484 282 484 224.909090909 484 c 0,2,3
 167.818181818 484 167.818181818 484 136.909090909 520.428571429 c 128,-1,4
 106 556.857142857 106 556.857142857 106 603.928571429 c 128,-1,5
 106 651 106 651 137.5 686 c 128,-1,6
 169 721 169 721 225.5 721 c 128,-1,7
 282 721 282 721 313.5 686 c 128,-1,8
 345 651 345 651 345 602.5 c 128,-1,0
 345 554 345 554 313.5 519 c 128,-1,1
EndSplineSet
EndChar

StartChar: Upsilontonos
Encoding: 910 910 156
Width: 463
GlyphClass: 2
Flags: W
LayerCount: 2
UndoRedoHistory
Layer: 1
Undoes
EndUndoes
Redoes
EndRedoes
EndUndoRedoHistory
Fore
SplineSet
313.5 519 m 128,-1,1
 282 484 282 484 224.909090909 484 c 0,2,3
 167.818181818 484 167.818181818 484 136.909090909 520.428571429 c 128,-1,4
 106 556.857142857 106 556.857142857 106 603.928571429 c 128,-1,5
 106 651 106 651 137.5 686 c 128,-1,6
 169 721 169 721 225.5 721 c 128,-1,7
 282 721 282 721 313.5 686 c 128,-1,8
 345 651 345 651 345 602.5 c 128,-1,0
 345 554 345 554 313.5 519 c 128,-1,1
EndSplineSet
EndChar

StartChar: Omegatonos
Encoding: 911 911 157
Width: 463
GlyphClass: 2
Flags: W
LayerCount: 2
UndoRedoHistory
Layer: 1
Undoes
EndUndoes
Redoes
EndRedoes
EndUndoRedoHistory
Fore
SplineSet
313.5 519 m 128,-1,1
 282 484 282 484 224.909090909 484 c 0,2,3
 167.818181818 484 167.818181818 484 136.909090909 520.428571429 c 128,-1,4
 106 556.857142857 106 556.857142857 106 603.928571429 c 128,-1,5
 106 651 106 651 137.5 686 c 128,-1,6
 169 721 169 721 225.5 721 c 128,-1,7
 282 721 282 721 313.5 686 c 128,-1,8
 345 651 345 651 345 602.5 c 128,-1,0
 345 554 345 554 313.5 519 c 128,-1,1
EndSplineSet
EndChar

StartChar: iotadieresistonos
Encoding: 912 912 158
Width: 549
GlyphClass: 2
Flags: W
LayerCount: 2
UndoRedoHistory
Layer: 1
Undoes
EndUndoes
Redoes
EndRedoes
EndUndoRedoHistory
Fore
SplineSet
385.5 519 m 128,-1,1
 354 484 354 484 297.727272727 484 c 0,2,3
 241.454545455 484 241.454545455 484 210.227272727 519.534482759 c 128,-1,4
 179 555.068965517 179 555.068965517 179 603 c 128,-1,5
 179 651 179 651 210.5 686 c 128,-1,6
 242 721 242 721 298 721 c 256,7,8
 354 721 354 721 385.5 686 c 128,-1,9
 417 651 417 651 417 602.5 c 128,-1,0
 417 554 417 554 385.5 519 c 128,-1,1
134 1079 m 0,10,11
 115 1107.5 115 1107.5 115 1150.45689655 c 0,12,13
 115 1193.4137931 115 1193.4137931 145.529411765 1229.20689655 c 128,-1,14
 176.058823529 1265 176.058823529 1265 233.029411765 1265 c 128,-1,15
 290 1265 290 1265 321.5 1230 c 128,-1,16
 353 1195 353 1195 353 1146.5 c 128,-1,17
 353 1098 353 1098 322 1063 c 128,-1,18
 291 1028 291 1028 229.5 1028 c 128,-1,19
 168 1028 168 1028 134 1079 c 0,10,11
EndSplineSet
EndChar

StartChar: Alpha
Encoding: 913 913 159
Width: 1388
GlyphClass: 2
Flags: W
LayerCount: 2
UndoRedoHistory
Layer: 1
Undoes
EndUndoes
Redoes
EndRedoes
EndUndoRedoHistory
Fore
SplineSet
119 0 m 1,0,-1
 611 1347 l 1,1,-1
 769 1347 l 1,2,-1
 1263 0 l 1,3,-1
 1134 0 l 1,4,-1
 971 444 l 1,5,-1
 423 444 l 1,6,-1
 255 0 l 1,7,-1
 119 0 l 1,0,-1
473 557 m 1,8,-1
 924 557 l 1,9,-1
 889 654 l 1,10,11
 701 1171 701 1171 688 1216 c 1,12,13
 674 1164 674 1164 473 557 c 1,8,-1
EndSplineSet
EndChar

StartChar: Beta
Encoding: 914 914 160
Width: 1210
GlyphClass: 2
Flags: W
LayerCount: 2
UndoRedoHistory
Layer: 1
Undoes
EndUndoes
Redoes
EndRedoes
EndUndoRedoHistory
Fore
SplineSet
1011 1018 m 0,0,1
 1011 782.658536585 1011 782.658536585 773 713 c 1,2,3
 870 698 870 698 936 648.5 c 0,4,5
 1061 554.75 1061 554.75 1061 377.375 c 128,-1,6
 1061 200 1061 200 945.5 100 c 128,-1,7
 830 0 830 0 592 0 c 2,8,-1
 142 0 l 1,9,-1
 142 1347 l 1,10,-1
 504 1347 l 2,11,12
 764 1347 764 1347 887.5 1268 c 128,-1,13
 1011 1189 1011 1189 1011 1018 c 0,0,1
567 108 m 2,14,15
 933 108 933 108 933 384 c 0,16,17
 933 587.209302326 933 587.209302326 719 632 c 0,18,19
 637.777777778 649 637.777777778 649 520 649 c 2,20,-1
 261 649 l 1,21,-1
 261 108 l 1,22,-1
 567 108 l 2,14,15
261 761 m 1,23,-1
 577 761 l 2,24,25
 755.735849057 761 755.735849057 761 825.5 833.5 c 0,26,27
 879 889.098039216 879 889.098039216 879 999 c 0,28,29
 879 1155.69473684 879 1155.69473684 738.5 1204.5 c 0,30,31
 653.575757576 1234 653.575757576 1234 503 1234 c 2,32,-1
 261 1234 l 1,33,-1
 261 761 l 1,23,-1
EndSplineSet
EndChar

StartChar: Gamma
Encoding: 915 915 161
Width: 1005
GlyphClass: 2
Flags: W
LayerCount: 2
UndoRedoHistory
Layer: 1
Undoes
EndUndoes
Redoes
EndRedoes
EndUndoRedoHistory
Fore
SplineSet
136 0 m 1,0,-1
 136 1361 l 1,1,-1
 930 1361 l 1,2,-1
 916 1220 l 1,3,-1
 298 1220 l 1,4,-1
 298 0 l 1,5,-1
 136 0 l 1,0,-1
EndSplineSet
EndChar

StartChar: Delta
Encoding: 916 916 162
Width: 1416
GlyphClass: 2
Flags: W
LayerCount: 2
UndoRedoHistory
Layer: 1
Undoes
EndUndoes
Redoes
EndRedoes
EndUndoRedoHistory
Fore
SplineSet
121 0 m 1,0,-1
 630 1358 l 1,1,-1
 783 1358 l 1,2,-1
 1292 0 l 1,3,-1
 121 0 l 1,0,-1
322 131 m 1,4,-1
 1095 131 l 1,5,-1
 706 1201 l 1,6,-1
 322 131 l 1,4,-1
EndSplineSet
EndChar

StartChar: Epsilon
Encoding: 917 917 163
Width: 1093
GlyphClass: 2
Flags: W
LayerCount: 2
UndoRedoHistory
Layer: 1
Undoes
EndUndoes
Redoes
EndRedoes
EndUndoRedoHistory
Fore
SplineSet
138 0 m 1,0,-1
 138 1347 l 1,1,-1
 950 1347 l 1,2,-1
 944 1226 l 1,3,-1
 280 1226 l 1,4,-1
 280 757 l 1,5,-1
 886 757 l 1,6,-1
 886 636 l 1,7,-1
 280 636 l 1,8,-1
 280 121 l 1,9,-1
 947 121 l 1,10,-1
 940 0 l 1,11,-1
 138 0 l 1,0,-1
EndSplineSet
EndChar

StartChar: Zeta
Encoding: 918 918 164
Width: 1188
GlyphClass: 2
Flags: W
LayerCount: 2
UndoRedoHistory
Layer: 1
Undoes
EndUndoes
Redoes
EndRedoes
EndUndoRedoHistory
Fore
SplineSet
123 0 m 1,0,-1
 123 113 l 1,1,-1
 873 1225 l 1,2,-1
 150 1225 l 1,3,-1
 150 1347 l 1,4,-1
 1041 1347 l 1,5,-1
 1041 1245 l 1,6,-1
 282 122 l 1,7,-1
 1047 122 l 1,8,-1
 1041 0 l 1,9,-1
 123 0 l 1,0,-1
EndSplineSet
EndChar

StartChar: Eta
Encoding: 919 919 165
Width: 1314
GlyphClass: 2
Flags: W
LayerCount: 2
UndoRedoHistory
Layer: 1
Undoes
EndUndoes
Redoes
EndRedoes
EndUndoRedoHistory
Fore
SplineSet
138 0 m 1,0,-1
 138 1347 l 1,1,-1
 279 1347 l 1,2,-1
 279 760 l 1,3,-1
 1024 760 l 1,4,-1
 1024 1347 l 1,5,-1
 1166 1347 l 1,6,-1
 1166 0 l 1,7,-1
 1024 0 l 1,8,-1
 1024 642 l 1,9,-1
 279 642 l 1,10,-1
 279 0 l 1,11,-1
 138 0 l 1,0,-1
EndSplineSet
EndChar

StartChar: Theta
Encoding: 920 920 166
Width: 463
GlyphClass: 2
Flags: W
LayerCount: 2
UndoRedoHistory
Layer: 1
Undoes
EndUndoes
Redoes
EndRedoes
EndUndoRedoHistory
Fore
SplineSet
313.5 519 m 128,-1,1
 282 484 282 484 224.909090909 484 c 0,2,3
 167.818181818 484 167.818181818 484 136.909090909 520.428571429 c 128,-1,4
 106 556.857142857 106 556.857142857 106 603.928571429 c 128,-1,5
 106 651 106 651 137.5 686 c 128,-1,6
 169 721 169 721 225.5 721 c 128,-1,7
 282 721 282 721 313.5 686 c 128,-1,8
 345 651 345 651 345 602.5 c 128,-1,0
 345 554 345 554 313.5 519 c 128,-1,1
EndSplineSet
EndChar

StartChar: Iota
Encoding: 921 921 167
Width: 422
GlyphClass: 2
Flags: W
LayerCount: 2
UndoRedoHistory
Layer: 1
Undoes
EndUndoes
Redoes
EndRedoes
EndUndoRedoHistory
Fore
SplineSet
138 0 m 1,0,-1
 138 1347 l 1,1,-1
 279 1347 l 1,2,-1
 279 0 l 1,3,-1
 138 0 l 1,0,-1
EndSplineSet
EndChar

StartChar: Lambda
Encoding: 923 923 168
Width: 1416
GlyphClass: 2
Flags: W
LayerCount: 2
UndoRedoHistory
Layer: 1
Undoes
EndUndoes
Redoes
EndRedoes
EndUndoRedoHistory
Fore
SplineSet
122 0 m 1,0,-1
 624 1359 l 1,1,-1
 789 1359 l 1,2,-1
 1292 0 l 1,3,-1
 1133 0 l 1,4,-1
 706 1196 l 1,5,-1
 287 0 l 1,6,-1
 122 0 l 1,0,-1
EndSplineSet
EndChar

StartChar: Mu
Encoding: 924 924 169
Width: 1607
GlyphClass: 2
Flags: W
LayerCount: 2
UndoRedoHistory
Layer: 1
Undoes
EndUndoes
Redoes
EndRedoes
EndUndoRedoHistory
Fore
SplineSet
131 0 m 1,0,-1
 131 1347 l 1,1,-1
 307 1347 l 1,2,-1
 798 244 l 1,3,-1
 1294 1347 l 1,4,-1
 1462 1347 l 1,5,-1
 1462 0 l 1,6,-1
 1336 0 l 1,7,-1
 1336 844 l 1,8,-1
 1344 1169 l 1,9,-1
 1304 1065 l 1,10,-1
 869 82 l 1,11,-1
 734 82 l 1,12,-1
 287 1069 l 1,13,-1
 247 1173 l 1,14,-1
 259 840 l 1,15,-1
 259 0 l 1,16,-1
 131 0 l 1,0,-1
EndSplineSet
EndChar

StartChar: Nu
Encoding: 925 925 170
Width: 1381
GlyphClass: 2
Flags: W
LayerCount: 2
UndoRedoHistory
Layer: 1
Undoes
EndUndoes
Redoes
EndRedoes
EndUndoRedoHistory
Fore
SplineSet
1120 181 m 1,0,-1
 1118 499 l 1,1,-1
 1118 1347 l 1,2,-1
 1232 1347 l 1,3,-1
 1232 0 l 1,4,-1
 1092 0 l 1,5,6
 774 437 774 437 253 1168 c 1,7,8
 252 999 252 999 252 871 c 2,9,-1
 252 0 l 1,10,-1
 138 0 l 1,11,-1
 138 1347 l 1,12,-1
 278 1347 l 1,13,14
 526 1008 526 1008 1120 181 c 1,0,-1
EndSplineSet
EndChar

StartChar: Xi
Encoding: 926 926 171
Width: 463
GlyphClass: 2
Flags: W
LayerCount: 2
UndoRedoHistory
Layer: 1
Undoes
EndUndoes
Redoes
EndRedoes
EndUndoRedoHistory
Fore
SplineSet
313.5 519 m 128,-1,1
 282 484 282 484 224.909090909 484 c 0,2,3
 167.818181818 484 167.818181818 484 136.909090909 520.428571429 c 128,-1,4
 106 556.857142857 106 556.857142857 106 603.928571429 c 128,-1,5
 106 651 106 651 137.5 686 c 128,-1,6
 169 721 169 721 225.5 721 c 128,-1,7
 282 721 282 721 313.5 686 c 128,-1,8
 345 651 345 651 345 602.5 c 128,-1,0
 345 554 345 554 313.5 519 c 128,-1,1
EndSplineSet
EndChar

StartChar: Omicron
Encoding: 927 927 172
Width: 1534
GlyphClass: 2
Flags: W
LayerCount: 2
UndoRedoHistory
Layer: 1
Undoes
EndUndoes
Redoes
EndRedoes
EndUndoRedoHistory
Fore
SplineSet
1132.15909091 255.970588235 m 128,-1,1
 1255 414.941176471 1255 414.941176471 1255 667 c 0,2,3
 1255 986.482758621 1255 986.482758621 1077 1143 c 0,4,5
 955.31372549 1250 955.31372549 1250 760 1250 c 0,6,7
 518.653846154 1250 518.653846154 1250 389.826923077 1090.5 c 128,-1,8
 261 931 261 931 261 672.641666667 c 128,-1,9
 261 414.283333333 261 414.283333333 384.616883117 255.641666667 c 128,-1,10
 508.233766234 97 508.233766234 97 758.775974026 97 c 128,-1,0
 1009.31818182 97 1009.31818182 97 1132.15909091 255.970588235 c 128,-1,1
758 -21 m 0,11,12
 388.615384615 -21 388.615384615 -21 224 246.5 c 0,13,14
 121 413.875 121 413.875 121 667 c 0,15,16
 121 1105.9787234 121 1105.9787234 410.5 1280.5 c 0,17,18
 555.647058824 1368 555.647058824 1368 732.323529412 1368 c 0,19,20
 1061.1420765 1368 1061.1420765 1368 1229.07103825 1177.1242236 c 128,-1,21
 1397 986.248447205 1397 986.248447205 1397 666 c 0,22,23
 1397 288.736842105 1397 288.736842105 1163 104 c 0,24,25
 1004.66666667 -21 1004.66666667 -21 758 -21 c 0,11,12
EndSplineSet
EndChar

StartChar: Pi
Encoding: 928 928 173
Width: 1351
GlyphClass: 2
Flags: W
LayerCount: 2
UndoRedoHistory
Layer: 1
Undoes
EndUndoes
Redoes
EndRedoes
EndUndoRedoHistory
Fore
SplineSet
139 0 m 1,0,-1
 139 1359 l 1,1,-1
 1209 1359 l 1,2,-1
 1209 0 l 1,3,-1
 1053 0 l 1,4,-1
 1053 1225 l 1,5,-1
 297 1225 l 1,6,-1
 297 0 l 1,7,-1
 139 0 l 1,0,-1
EndSplineSet
EndChar

StartChar: Rho
Encoding: 929 929 174
Width: 1133
GlyphClass: 2
Flags: W
LayerCount: 2
UndoRedoHistory
Layer: 1
Undoes
EndUndoes
Redoes
EndRedoes
EndUndoRedoHistory
Fore
SplineSet
503 588 m 0,0,1
 436.333333333 588 436.333333333 588 280 602 c 1,2,-1
 280 0 l 1,3,-1
 138 0 l 1,4,-1
 138 1347 l 1,5,-1
 530 1347 l 2,6,7
 719.639534884 1347 719.639534884 1347 848.319767442 1257.02845528 c 128,-1,8
 977 1167.05691057 977 1167.05691057 977 982.028455285 c 128,-1,9
 977 797 977 797 858.5 692.5 c 128,-1,10
 740 588 740 588 503 588 c 0,0,1
521 705 m 0,11,12
 836 705 836 705 836 987.284810127 c 0,13,14
 836 1129.56962025 836 1129.56962025 707.5 1186.5 c 0,15,16
 634.142857143 1219 634.142857143 1219 525 1219 c 2,17,-1
 280 1219 l 1,18,-1
 280 717 l 1,19,20
 455 705 455 705 521 705 c 0,11,12
EndSplineSet
EndChar

StartChar: Sigma
Encoding: 931 931 175
Width: 1093
GlyphClass: 2
Flags: W
LayerCount: 2
UndoRedoHistory
Layer: 1
Undoes
EndUndoes
Redoes
EndRedoes
EndUndoRedoHistory
Fore
SplineSet
138 0 m 1,0,-1
 138 1347 l 1,1,-1
 950 1347 l 1,2,-1
 944 1226 l 1,3,-1
 280 1226 l 1,4,-1
 280 757 l 1,5,-1
 886 757 l 1,6,-1
 886 636 l 1,7,-1
 280 636 l 1,8,-1
 280 121 l 1,9,-1
 947 121 l 1,10,-1
 940 0 l 1,11,-1
 138 0 l 1,0,-1
EndSplineSet
EndChar

StartChar: Tau
Encoding: 932 932 176
Width: 1191
GlyphClass: 2
Flags: W
LayerCount: 2
UndoRedoHistory
Layer: 1
Undoes
EndUndoes
Redoes
EndRedoes
EndUndoRedoHistory
Fore
SplineSet
505 0 m 1,0,-1
 505 1226 l 1,1,-1
 85 1226 l 1,2,-1
 85 1347 l 1,3,-1
 1065 1347 l 1,4,-1
 1065 1226 l 1,5,-1
 647 1226 l 1,6,-1
 647 0 l 1,7,-1
 505 0 l 1,0,-1
EndSplineSet
EndChar

StartChar: Upsilon
Encoding: 933 933 177
Width: 1291
GlyphClass: 2
Flags: W
LayerCount: 2
UndoRedoHistory
Layer: 1
Undoes
EndUndoes
Redoes
EndRedoes
EndUndoRedoHistory
Fore
SplineSet
560 0 m 1,0,-1
 560 533 l 1,1,-1
 91 1347 l 1,2,-1
 233 1347 l 1,3,-1
 634 660 l 1,4,-1
 1036 1347 l 1,5,-1
 1179 1347 l 1,6,-1
 710 537 l 1,7,-1
 710 0 l 1,8,-1
 560 0 l 1,0,-1
EndSplineSet
EndChar

StartChar: Phi
Encoding: 934 934 178
Width: 1572
GlyphClass: 2
Flags: W
LayerCount: 2
UndoRedoHistory
Layer: 1
Undoes
EndUndoes
Redoes
EndRedoes
EndUndoRedoHistory
Fore
SplineSet
702 0 m 1,0,-1
 702 155 l 1,1,2
 416.328285448 175.117726377 416.328285448 175.117726377 265.664142724 326.820932154 c 128,-1,3
 115 478.524137931 115 478.524137931 115 702.913075677 c 128,-1,4
 115 927.302013423 115 927.302013423 269.676223306 1071.59728214 c 128,-1,5
 424.352446612 1215.89255087 424.352446612 1215.89255087 702 1234 c 1,6,-1
 702 1359 l 1,7,-1
 859 1359 l 1,8,-1
 859 1234 l 1,9,10
 1142.37488967 1215.78304281 1142.37488967 1215.78304281 1295.68744484 1071.79354843 c 128,-1,11
 1449 927.804054054 1449 927.804054054 1449 702 c 0,12,13
 1449 426.273381295 1449 426.273381295 1234.5 273.5 c 0,14,15
 1090.97778651 171.279142913 1090.97778651 171.279142913 859 155 c 1,16,-1
 859 0 l 1,17,-1
 702 0 l 1,0,-1
702 289 m 1,18,-1
 702 1101 l 1,19,20
 394.027225741 1074.08975759 394.027225741 1074.08975759 309.5 854 c 0,21,22
 283 785 283 785 283 703 c 0,23,24
 283 538 283 538 385.115526122 423.630610743 c 128,-1,25
 487.231052244 309.261221486 487.231052244 309.261221486 702 289 c 1,18,-1
859 289 m 1,26,27
 1171.82587749 315.312456986 1171.82587749 315.312456986 1256 551 c 0,28,29
 1281 621 1281 621 1281 702 c 0,30,31
 1281 872 1281 872 1173.5 978 c 128,-1,32
 1066 1084 1066 1084 859 1101 c 1,33,-1
 859 289 l 1,26,27
EndSplineSet
EndChar

StartChar: Chi
Encoding: 935 935 179
Width: 1310
GlyphClass: 2
Flags: W
LayerCount: 2
UndoRedoHistory
Layer: 1
Undoes
EndUndoes
Redoes
EndRedoes
EndUndoRedoHistory
Fore
SplineSet
128 0 m 1,0,-1
 572 677 l 1,1,-1
 119 1347 l 1,2,-1
 268 1347 l 1,3,-1
 640 807 l 1,4,-1
 1012 1347 l 1,5,-1
 1165 1347 l 1,6,-1
 714 678 l 1,7,-1
 1158 0 l 1,8,-1
 1011 0 l 1,9,-1
 644 549 l 1,10,-1
 279 0 l 1,11,-1
 128 0 l 1,0,-1
EndSplineSet
EndChar

StartChar: Psi
Encoding: 936 936 180
Width: 463
GlyphClass: 2
Flags: W
LayerCount: 2
UndoRedoHistory
Layer: 1
Undoes
EndUndoes
Redoes
EndRedoes
EndUndoRedoHistory
Fore
SplineSet
313.5 519 m 128,-1,1
 282 484 282 484 224.909090909 484 c 0,2,3
 167.818181818 484 167.818181818 484 136.909090909 520.428571429 c 128,-1,4
 106 556.857142857 106 556.857142857 106 603.928571429 c 128,-1,5
 106 651 106 651 137.5 686 c 128,-1,6
 169 721 169 721 225.5 721 c 128,-1,7
 282 721 282 721 313.5 686 c 128,-1,8
 345 651 345 651 345 602.5 c 128,-1,0
 345 554 345 554 313.5 519 c 128,-1,1
EndSplineSet
EndChar

StartChar: Omega
Encoding: 937 937 181
Width: 1511
GlyphClass: 2
Flags: W
LayerCount: 2
UndoRedoHistory
Layer: 1
Undoes
EndUndoes
Redoes
EndRedoes
EndUndoRedoHistory
Fore
SplineSet
754 118 m 128,-1,1
 909 118 909 118 1015.5 190 c 0,2,3
 1220 328.253521127 1220 328.253521127 1220 671.824873771 c 0,4,5
 1220 1015.39622642 1220 1015.39622642 1013 1156 c 0,6,7
 907 1228 907 1228 755 1228 c 0,8,9
 528 1228 528 1228 408 1075.5 c 128,-1,10
 288 923 288 923 288 667 c 0,11,12
 288 328.253521127 288 328.253521127 492.5 190 c 0,13,0
 599 118 599 118 754 118 c 128,-1,1
754 -20 m 0,14,15
 448 -20 448 -20 281 165 c 128,-1,16
 114 350 114 350 114 670.5 c 128,-1,17
 114 991 114 991 283 1178.5 c 128,-1,18
 452 1366 452 1366 753 1366 c 128,-1,19
 1054 1366 1054 1366 1224.5 1177 c 128,-1,20
 1395 988 1395 988 1395 667 c 0,21,22
 1395 461 1395 461 1321 307 c 128,-1,23
 1247 153 1247 153 1101 66.5 c 128,-1,24
 955 -20 955 -20 754 -20 c 0,14,15
EndSplineSet
EndChar

StartChar: alphatonos
Encoding: 940 940 182
Width: 463
GlyphClass: 2
Flags: W
LayerCount: 2
UndoRedoHistory
Layer: 1
Undoes
EndUndoes
Redoes
EndRedoes
EndUndoRedoHistory
Fore
SplineSet
313.5 519 m 128,-1,1
 282 484 282 484 224.909090909 484 c 0,2,3
 167.818181818 484 167.818181818 484 136.909090909 520.428571429 c 128,-1,4
 106 556.857142857 106 556.857142857 106 603.928571429 c 128,-1,5
 106 651 106 651 137.5 686 c 128,-1,6
 169 721 169 721 225.5 721 c 128,-1,7
 282 721 282 721 313.5 686 c 128,-1,8
 345 651 345 651 345 602.5 c 128,-1,0
 345 554 345 554 313.5 519 c 128,-1,1
EndSplineSet
EndChar

StartChar: epsilontonos
Encoding: 941 941 183
Width: 463
GlyphClass: 2
Flags: W
LayerCount: 2
UndoRedoHistory
Layer: 1
Undoes
EndUndoes
Redoes
EndRedoes
EndUndoRedoHistory
Fore
SplineSet
313.5 519 m 128,-1,1
 282 484 282 484 224.909090909 484 c 0,2,3
 167.818181818 484 167.818181818 484 136.909090909 520.428571429 c 128,-1,4
 106 556.857142857 106 556.857142857 106 603.928571429 c 128,-1,5
 106 651 106 651 137.5 686 c 128,-1,6
 169 721 169 721 225.5 721 c 128,-1,7
 282 721 282 721 313.5 686 c 128,-1,8
 345 651 345 651 345 602.5 c 128,-1,0
 345 554 345 554 313.5 519 c 128,-1,1
EndSplineSet
EndChar

StartChar: etatonos
Encoding: 942 942 184
Width: 463
GlyphClass: 2
Flags: W
LayerCount: 2
UndoRedoHistory
Layer: 1
Undoes
EndUndoes
Redoes
EndRedoes
EndUndoRedoHistory
Fore
SplineSet
313.5 519 m 128,-1,1
 282 484 282 484 224.909090909 484 c 0,2,3
 167.818181818 484 167.818181818 484 136.909090909 520.428571429 c 128,-1,4
 106 556.857142857 106 556.857142857 106 603.928571429 c 128,-1,5
 106 651 106 651 137.5 686 c 128,-1,6
 169 721 169 721 225.5 721 c 128,-1,7
 282 721 282 721 313.5 686 c 128,-1,8
 345 651 345 651 345 602.5 c 128,-1,0
 345 554 345 554 313.5 519 c 128,-1,1
EndSplineSet
EndChar

StartChar: iotatonos
Encoding: 943 943 185
Width: 463
GlyphClass: 2
Flags: W
LayerCount: 2
UndoRedoHistory
Layer: 1
Undoes
EndUndoes
Redoes
EndRedoes
EndUndoRedoHistory
Fore
SplineSet
313.5 519 m 128,-1,1
 282 484 282 484 224.909090909 484 c 0,2,3
 167.818181818 484 167.818181818 484 136.909090909 520.428571429 c 128,-1,4
 106 556.857142857 106 556.857142857 106 603.928571429 c 128,-1,5
 106 651 106 651 137.5 686 c 128,-1,6
 169 721 169 721 225.5 721 c 128,-1,7
 282 721 282 721 313.5 686 c 128,-1,8
 345 651 345 651 345 602.5 c 128,-1,0
 345 554 345 554 313.5 519 c 128,-1,1
EndSplineSet
EndChar

StartChar: upsilondieresistonos
Encoding: 944 944 186
Width: 463
GlyphClass: 2
Flags: W
LayerCount: 2
UndoRedoHistory
Layer: 1
Undoes
EndUndoes
Redoes
EndRedoes
EndUndoRedoHistory
Fore
SplineSet
313.5 519 m 128,-1,1
 282 484 282 484 224.909090909 484 c 0,2,3
 167.818181818 484 167.818181818 484 136.909090909 520.428571429 c 128,-1,4
 106 556.857142857 106 556.857142857 106 603.928571429 c 128,-1,5
 106 651 106 651 137.5 686 c 128,-1,6
 169 721 169 721 225.5 721 c 128,-1,7
 282 721 282 721 313.5 686 c 128,-1,8
 345 651 345 651 345 602.5 c 128,-1,0
 345 554 345 554 313.5 519 c 128,-1,1
EndSplineSet
EndChar

StartChar: alpha
Encoding: 945 945 187
Width: 463
GlyphClass: 2
Flags: W
LayerCount: 2
UndoRedoHistory
Layer: 1
Undoes
EndUndoes
Redoes
EndRedoes
EndUndoRedoHistory
Fore
SplineSet
313.5 519 m 128,-1,1
 282 484 282 484 224.909090909 484 c 0,2,3
 167.818181818 484 167.818181818 484 136.909090909 520.428571429 c 128,-1,4
 106 556.857142857 106 556.857142857 106 603.928571429 c 128,-1,5
 106 651 106 651 137.5 686 c 128,-1,6
 169 721 169 721 225.5 721 c 128,-1,7
 282 721 282 721 313.5 686 c 128,-1,8
 345 651 345 651 345 602.5 c 128,-1,0
 345 554 345 554 313.5 519 c 128,-1,1
EndSplineSet
EndChar

StartChar: beta
Encoding: 946 946 188
Width: 463
GlyphClass: 2
Flags: W
LayerCount: 2
UndoRedoHistory
Layer: 1
Undoes
EndUndoes
Redoes
EndRedoes
EndUndoRedoHistory
Fore
SplineSet
313.5 519 m 128,-1,1
 282 484 282 484 224.909090909 484 c 0,2,3
 167.818181818 484 167.818181818 484 136.909090909 520.428571429 c 128,-1,4
 106 556.857142857 106 556.857142857 106 603.928571429 c 128,-1,5
 106 651 106 651 137.5 686 c 128,-1,6
 169 721 169 721 225.5 721 c 128,-1,7
 282 721 282 721 313.5 686 c 128,-1,8
 345 651 345 651 345 602.5 c 128,-1,0
 345 554 345 554 313.5 519 c 128,-1,1
EndSplineSet
EndChar

StartChar: gamma
Encoding: 947 947 189
Width: 463
GlyphClass: 2
Flags: W
LayerCount: 2
UndoRedoHistory
Layer: 1
Undoes
EndUndoes
Redoes
EndRedoes
EndUndoRedoHistory
Fore
SplineSet
313.5 519 m 128,-1,1
 282 484 282 484 224.909090909 484 c 0,2,3
 167.818181818 484 167.818181818 484 136.909090909 520.428571429 c 128,-1,4
 106 556.857142857 106 556.857142857 106 603.928571429 c 128,-1,5
 106 651 106 651 137.5 686 c 128,-1,6
 169 721 169 721 225.5 721 c 128,-1,7
 282 721 282 721 313.5 686 c 128,-1,8
 345 651 345 651 345 602.5 c 128,-1,0
 345 554 345 554 313.5 519 c 128,-1,1
EndSplineSet
EndChar

StartChar: delta
Encoding: 948 948 190
Width: 463
GlyphClass: 2
Flags: W
LayerCount: 2
UndoRedoHistory
Layer: 1
Undoes
EndUndoes
Redoes
EndRedoes
EndUndoRedoHistory
Fore
SplineSet
313.5 519 m 128,-1,1
 282 484 282 484 224.909090909 484 c 0,2,3
 167.818181818 484 167.818181818 484 136.909090909 520.428571429 c 128,-1,4
 106 556.857142857 106 556.857142857 106 603.928571429 c 128,-1,5
 106 651 106 651 137.5 686 c 128,-1,6
 169 721 169 721 225.5 721 c 128,-1,7
 282 721 282 721 313.5 686 c 128,-1,8
 345 651 345 651 345 602.5 c 128,-1,0
 345 554 345 554 313.5 519 c 128,-1,1
EndSplineSet
EndChar

StartChar: epsilon
Encoding: 949 949 191
Width: 463
GlyphClass: 2
Flags: W
LayerCount: 2
UndoRedoHistory
Layer: 1
Undoes
EndUndoes
Redoes
EndRedoes
EndUndoRedoHistory
Fore
SplineSet
313.5 519 m 128,-1,1
 282 484 282 484 224.909090909 484 c 0,2,3
 167.818181818 484 167.818181818 484 136.909090909 520.428571429 c 128,-1,4
 106 556.857142857 106 556.857142857 106 603.928571429 c 128,-1,5
 106 651 106 651 137.5 686 c 128,-1,6
 169 721 169 721 225.5 721 c 128,-1,7
 282 721 282 721 313.5 686 c 128,-1,8
 345 651 345 651 345 602.5 c 128,-1,0
 345 554 345 554 313.5 519 c 128,-1,1
EndSplineSet
EndChar

StartChar: zeta
Encoding: 950 950 192
Width: 463
GlyphClass: 2
Flags: W
LayerCount: 2
UndoRedoHistory
Layer: 1
Undoes
EndUndoes
Redoes
EndRedoes
EndUndoRedoHistory
Fore
SplineSet
313.5 519 m 128,-1,1
 282 484 282 484 224.909090909 484 c 0,2,3
 167.818181818 484 167.818181818 484 136.909090909 520.428571429 c 128,-1,4
 106 556.857142857 106 556.857142857 106 603.928571429 c 128,-1,5
 106 651 106 651 137.5 686 c 128,-1,6
 169 721 169 721 225.5 721 c 128,-1,7
 282 721 282 721 313.5 686 c 128,-1,8
 345 651 345 651 345 602.5 c 128,-1,0
 345 554 345 554 313.5 519 c 128,-1,1
EndSplineSet
EndChar

StartChar: eta
Encoding: 951 951 193
Width: 463
GlyphClass: 2
Flags: W
LayerCount: 2
UndoRedoHistory
Layer: 1
Undoes
EndUndoes
Redoes
EndRedoes
EndUndoRedoHistory
Fore
SplineSet
313.5 519 m 128,-1,1
 282 484 282 484 224.909090909 484 c 0,2,3
 167.818181818 484 167.818181818 484 136.909090909 520.428571429 c 128,-1,4
 106 556.857142857 106 556.857142857 106 603.928571429 c 128,-1,5
 106 651 106 651 137.5 686 c 128,-1,6
 169 721 169 721 225.5 721 c 128,-1,7
 282 721 282 721 313.5 686 c 128,-1,8
 345 651 345 651 345 602.5 c 128,-1,0
 345 554 345 554 313.5 519 c 128,-1,1
EndSplineSet
EndChar

StartChar: theta
Encoding: 952 952 194
Width: 463
GlyphClass: 2
Flags: W
LayerCount: 2
UndoRedoHistory
Layer: 1
Undoes
EndUndoes
Redoes
EndRedoes
EndUndoRedoHistory
Fore
SplineSet
313.5 519 m 128,-1,1
 282 484 282 484 224.909090909 484 c 0,2,3
 167.818181818 484 167.818181818 484 136.909090909 520.428571429 c 128,-1,4
 106 556.857142857 106 556.857142857 106 603.928571429 c 128,-1,5
 106 651 106 651 137.5 686 c 128,-1,6
 169 721 169 721 225.5 721 c 128,-1,7
 282 721 282 721 313.5 686 c 128,-1,8
 345 651 345 651 345 602.5 c 128,-1,0
 345 554 345 554 313.5 519 c 128,-1,1
EndSplineSet
EndChar

StartChar: iota
Encoding: 953 953 195
Width: 463
GlyphClass: 2
Flags: W
LayerCount: 2
UndoRedoHistory
Layer: 1
Undoes
EndUndoes
Redoes
EndRedoes
EndUndoRedoHistory
Fore
SplineSet
313.5 519 m 128,-1,1
 282 484 282 484 224.909090909 484 c 0,2,3
 167.818181818 484 167.818181818 484 136.909090909 520.428571429 c 128,-1,4
 106 556.857142857 106 556.857142857 106 603.928571429 c 128,-1,5
 106 651 106 651 137.5 686 c 128,-1,6
 169 721 169 721 225.5 721 c 128,-1,7
 282 721 282 721 313.5 686 c 128,-1,8
 345 651 345 651 345 602.5 c 128,-1,0
 345 554 345 554 313.5 519 c 128,-1,1
EndSplineSet
EndChar

StartChar: lambda
Encoding: 955 955 196
Width: 463
GlyphClass: 2
Flags: W
LayerCount: 2
UndoRedoHistory
Layer: 1
Undoes
EndUndoes
Redoes
EndRedoes
EndUndoRedoHistory
Fore
SplineSet
313.5 519 m 128,-1,1
 282 484 282 484 224.909090909 484 c 0,2,3
 167.818181818 484 167.818181818 484 136.909090909 520.428571429 c 128,-1,4
 106 556.857142857 106 556.857142857 106 603.928571429 c 128,-1,5
 106 651 106 651 137.5 686 c 128,-1,6
 169 721 169 721 225.5 721 c 128,-1,7
 282 721 282 721 313.5 686 c 128,-1,8
 345 651 345 651 345 602.5 c 128,-1,0
 345 554 345 554 313.5 519 c 128,-1,1
EndSplineSet
EndChar

StartChar: mu
Encoding: 956 956 197
Width: 451
GlyphClass: 2
Flags: W
LayerCount: 2
UndoRedoHistory
Layer: 1
Undoes
EndUndoes
Redoes
EndRedoes
EndUndoRedoHistory
Fore
SplineSet
223 484 m 128,-1,1
 166 484 166 484 134 519.5 c 128,-1,2
 102 555 102 555 102 604 c 128,-1,3
 102 653 102 653 134 688.5 c 128,-1,4
 166 724 166 724 223 724 c 128,-1,5
 280 724 280 724 312 688.5 c 128,-1,6
 344 653 344 653 344 604 c 128,-1,7
 344 555 344 555 312 519.5 c 128,-1,0
 280 484 280 484 223 484 c 128,-1,1
EndSplineSet
EndChar

StartChar: nu
Encoding: 957 957 198
Width: 463
GlyphClass: 2
Flags: W
LayerCount: 2
UndoRedoHistory
Layer: 1
Undoes
EndUndoes
Redoes
EndRedoes
EndUndoRedoHistory
Fore
SplineSet
313.5 519 m 128,-1,1
 282 484 282 484 224.909090909 484 c 0,2,3
 167.818181818 484 167.818181818 484 136.909090909 520.428571429 c 128,-1,4
 106 556.857142857 106 556.857142857 106 603.928571429 c 128,-1,5
 106 651 106 651 137.5 686 c 128,-1,6
 169 721 169 721 225.5 721 c 128,-1,7
 282 721 282 721 313.5 686 c 128,-1,8
 345 651 345 651 345 602.5 c 128,-1,0
 345 554 345 554 313.5 519 c 128,-1,1
EndSplineSet
EndChar

StartChar: xi
Encoding: 958 958 199
Width: 463
GlyphClass: 2
Flags: W
LayerCount: 2
UndoRedoHistory
Layer: 1
Undoes
EndUndoes
Redoes
EndRedoes
EndUndoRedoHistory
Fore
SplineSet
313.5 519 m 128,-1,1
 282 484 282 484 224.909090909 484 c 0,2,3
 167.818181818 484 167.818181818 484 136.909090909 520.428571429 c 128,-1,4
 106 556.857142857 106 556.857142857 106 603.928571429 c 128,-1,5
 106 651 106 651 137.5 686 c 128,-1,6
 169 721 169 721 225.5 721 c 128,-1,7
 282 721 282 721 313.5 686 c 128,-1,8
 345 651 345 651 345 602.5 c 128,-1,0
 345 554 345 554 313.5 519 c 128,-1,1
EndSplineSet
EndChar

StartChar: omicron
Encoding: 959 959 200
Width: 1175
GlyphClass: 2
Flags: W
LayerCount: 2
UndoRedoHistory
Layer: 1
Undoes
EndUndoes
Redoes
EndRedoes
EndUndoRedoHistory
Fore
SplineSet
272 509 m 0,0,1
 272 177.695652174 272 177.695652174 482 111.5 c 0,2,3
 528 97 528 97 596 97 c 128,-1,4
 664 97 664 97 725 128 c 128,-1,5
 786 159 786 159 822 214 c 0,6,7
 893 322.472222222 893 322.472222222 893 495.013888889 c 128,-1,8
 893 667.555555556 893 667.555555556 819.571428571 781.777777778 c 128,-1,9
 746.142857143 896 746.142857143 896 583 896 c 256,10,11
 349.887323944 896 349.887323944 896 289.5 651 c 0,12,13
 272 580 272 580 272 509 c 0,0,1
584 -22 m 0,14,15
 446 -22 446 -22 339.5 46 c 128,-1,16
 233 114 233 114 176.5 231 c 128,-1,17
 120 348 120 348 120 497.5 c 128,-1,18
 120 647 120 647 174 764 c 128,-1,19
 228 881 228 881 333.5 947.5 c 128,-1,20
 439 1014 439 1014 582 1014 c 128,-1,21
 725 1014 725 1014 831 947.5 c 0,22,23
 1045 813.245283019 1045 813.245283019 1045 496 c 0,24,25
 1045 272 1045 272 917.5 125 c 128,-1,26
 790 -22 790 -22 584 -22 c 0,14,15
EndSplineSet
EndChar

StartChar: rho
Encoding: 961 961 201
Width: 1195
GlyphClass: 2
Flags: W
LayerCount: 2
UndoRedoHistory
Layer: 1
Undoes
EndUndoes
Redoes
EndRedoes
EndUndoRedoHistory
Fore
SplineSet
285 819 m 1,0,1
 367.978723404 1014 367.978723404 1014 614.659904338 1014 c 0,2,3
 861.341085271 1014 861.341085271 1014 983 807.5 c 0,4,5
 1060 676.802631579 1060 676.802631579 1060 471.901315789 c 128,-1,6
 1060 267 1060 267 935 122.5 c 128,-1,7
 810 -22 810 -22 615 -22 c 0,8,9
 513 -22 513 -22 419.5 24 c 128,-1,10
 326 70 326 70 277 144 c 1,11,12
 282 50 282 50 282 -64 c 2,13,-1
 282 -429 l 1,14,-1
 130 -438 l 1,15,-1
 130 993 l 1,16,-1
 270 993 l 1,17,-1
 285 819 l 1,0,1
595 900 m 0,18,19
 282 900 282 900 282 513 c 0,20,21
 282 195.655737705 282 195.655737705 445 119.5 c 0,22,23
 506 91 506 91 593 91 c 0,24,25
 747 91 747 91 827.5 200 c 128,-1,26
 908 309 908 309 908 497 c 0,27,28
 908 746.538461538 908 746.538461538 770.5 847.5 c 0,29,30
 699 900 699 900 595 900 c 0,18,19
EndSplineSet
EndChar

StartChar: sigmafinal
Encoding: 962 962 202
Width: 484
GlyphClass: 2
Flags: W
LayerCount: 2
UndoRedoHistory
Layer: 1
Undoes
EndUndoes
Redoes
EndRedoes
EndUndoRedoHistory
Fore
SplineSet
229 485 m 128,-1,1
 174 485 174 485 143.5 519 c 128,-1,2
 113 553 113 553 113 600 c 128,-1,3
 113 647 113 647 143.5 681 c 128,-1,4
 174 715 174 715 229 715 c 128,-1,5
 284 715 284 715 315 681 c 128,-1,6
 346 647 346 647 346 600 c 128,-1,7
 346 553 346 553 315 519 c 128,-1,0
 284 485 284 485 229 485 c 128,-1,1
EndSplineSet
EndChar

StartChar: sigma
Encoding: 963 963 203
Width: 463
GlyphClass: 2
Flags: W
LayerCount: 2
UndoRedoHistory
Layer: 1
Undoes
EndUndoes
Redoes
EndRedoes
EndUndoRedoHistory
Fore
SplineSet
313.5 519 m 128,-1,1
 282 484 282 484 224.909090909 484 c 0,2,3
 167.818181818 484 167.818181818 484 136.909090909 520.428571429 c 128,-1,4
 106 556.857142857 106 556.857142857 106 603.928571429 c 128,-1,5
 106 651 106 651 137.5 686 c 128,-1,6
 169 721 169 721 225.5 721 c 128,-1,7
 282 721 282 721 313.5 686 c 128,-1,8
 345 651 345 651 345 602.5 c 128,-1,0
 345 554 345 554 313.5 519 c 128,-1,1
EndSplineSet
EndChar

StartChar: tau
Encoding: 964 964 204
Width: 463
GlyphClass: 2
Flags: W
LayerCount: 2
UndoRedoHistory
Layer: 1
Undoes
EndUndoes
Redoes
EndRedoes
EndUndoRedoHistory
Fore
SplineSet
313.5 519 m 128,-1,1
 282 484 282 484 224.909090909 484 c 0,2,3
 167.818181818 484 167.818181818 484 136.909090909 520.428571429 c 128,-1,4
 106 556.857142857 106 556.857142857 106 603.928571429 c 128,-1,5
 106 651 106 651 137.5 686 c 128,-1,6
 169 721 169 721 225.5 721 c 128,-1,7
 282 721 282 721 313.5 686 c 128,-1,8
 345 651 345 651 345 602.5 c 128,-1,0
 345 554 345 554 313.5 519 c 128,-1,1
EndSplineSet
EndChar

StartChar: upsilon
Encoding: 965 965 205
Width: 463
GlyphClass: 2
Flags: W
LayerCount: 2
UndoRedoHistory
Layer: 1
Undoes
EndUndoes
Redoes
EndRedoes
EndUndoRedoHistory
Fore
SplineSet
313.5 519 m 128,-1,1
 282 484 282 484 224.909090909 484 c 0,2,3
 167.818181818 484 167.818181818 484 136.909090909 520.428571429 c 128,-1,4
 106 556.857142857 106 556.857142857 106 603.928571429 c 128,-1,5
 106 651 106 651 137.5 686 c 128,-1,6
 169 721 169 721 225.5 721 c 128,-1,7
 282 721 282 721 313.5 686 c 128,-1,8
 345 651 345 651 345 602.5 c 128,-1,0
 345 554 345 554 313.5 519 c 128,-1,1
EndSplineSet
EndChar

StartChar: phi
Encoding: 966 966 206
Width: 463
GlyphClass: 2
Flags: W
LayerCount: 2
UndoRedoHistory
Layer: 1
Undoes
EndUndoes
Redoes
EndRedoes
EndUndoRedoHistory
Fore
SplineSet
313.5 519 m 128,-1,1
 282 484 282 484 224.909090909 484 c 0,2,3
 167.818181818 484 167.818181818 484 136.909090909 520.428571429 c 128,-1,4
 106 556.857142857 106 556.857142857 106 603.928571429 c 128,-1,5
 106 651 106 651 137.5 686 c 128,-1,6
 169 721 169 721 225.5 721 c 128,-1,7
 282 721 282 721 313.5 686 c 128,-1,8
 345 651 345 651 345 602.5 c 128,-1,0
 345 554 345 554 313.5 519 c 128,-1,1
EndSplineSet
EndChar

StartChar: chi
Encoding: 967 967 207
Width: 1185
GlyphClass: 2
Flags: W
LayerCount: 2
UndoRedoHistory
Layer: 1
Undoes
EndUndoes
Redoes
EndRedoes
EndUndoRedoHistory
Fore
SplineSet
131 0 m 1,0,-1
 501 505 l 1,1,-1
 145 993 l 1,2,-1
 298 993 l 1,3,-1
 581 608 l 1,4,-1
 865 993 l 1,5,-1
 1030 993 l 1,6,-1
 662 503 l 1,7,-1
 1038 0 l 1,8,-1
 882 0 l 1,9,-1
 583 405 l 1,10,-1
 285 0 l 1,11,-1
 131 0 l 1,0,-1
EndSplineSet
EndChar

StartChar: psi
Encoding: 968 968 208
Width: 463
GlyphClass: 2
Flags: W
LayerCount: 2
UndoRedoHistory
Layer: 1
Undoes
EndUndoes
Redoes
EndRedoes
EndUndoRedoHistory
Fore
SplineSet
313.5 519 m 128,-1,1
 282 484 282 484 224.909090909 484 c 0,2,3
 167.818181818 484 167.818181818 484 136.909090909 520.428571429 c 128,-1,4
 106 556.857142857 106 556.857142857 106 603.928571429 c 128,-1,5
 106 651 106 651 137.5 686 c 128,-1,6
 169 721 169 721 225.5 721 c 128,-1,7
 282 721 282 721 313.5 686 c 128,-1,8
 345 651 345 651 345 602.5 c 128,-1,0
 345 554 345 554 313.5 519 c 128,-1,1
EndSplineSet
EndChar

StartChar: omega
Encoding: 969 969 209
Width: 463
GlyphClass: 2
Flags: W
LayerCount: 2
UndoRedoHistory
Layer: 1
Undoes
EndUndoes
Redoes
EndRedoes
EndUndoRedoHistory
Fore
SplineSet
313.5 519 m 128,-1,1
 282 484 282 484 224.909090909 484 c 0,2,3
 167.818181818 484 167.818181818 484 136.909090909 520.428571429 c 128,-1,4
 106 556.857142857 106 556.857142857 106 603.928571429 c 128,-1,5
 106 651 106 651 137.5 686 c 128,-1,6
 169 721 169 721 225.5 721 c 128,-1,7
 282 721 282 721 313.5 686 c 128,-1,8
 345 651 345 651 345 602.5 c 128,-1,0
 345 554 345 554 313.5 519 c 128,-1,1
EndSplineSet
EndChar

StartChar: iotadieresis
Encoding: 970 970 210
Width: 782
GlyphClass: 2
Flags: W
LayerCount: 2
UndoRedoHistory
Layer: 1
Undoes
EndUndoes
Redoes
EndRedoes
EndUndoRedoHistory
Fore
SplineSet
146 1146 m 1,0,-1
 146 1327 l 1,1,-1
 270 1327 l 1,2,-1
 270 1146 l 1,3,-1
 146 1146 l 1,0,-1
535 519 m 128,-1,5
 504 484 504 484 447.5 484 c 128,-1,6
 391 484 391 484 359.5 519.5 c 128,-1,7
 328 555 328 555 328 603 c 128,-1,8
 328 651 328 651 359.5 686 c 128,-1,9
 391 721 391 721 447.5 721 c 128,-1,10
 504 721 504 721 535 686 c 128,-1,11
 566 651 566 651 566 602.5 c 128,-1,4
 566 554 566 554 535 519 c 128,-1,5
495 1146 m 1,12,-1
 495 1327 l 1,13,-1
 620 1327 l 1,14,-1
 620 1146 l 1,15,-1
 495 1146 l 1,12,-1
EndSplineSet
EndChar

StartChar: upsilondieresis
Encoding: 971 971 211
Width: 463
GlyphClass: 2
Flags: W
LayerCount: 2
UndoRedoHistory
Layer: 1
Undoes
EndUndoes
Redoes
EndRedoes
EndUndoRedoHistory
Fore
SplineSet
313.5 519 m 128,-1,1
 282 484 282 484 224.909090909 484 c 0,2,3
 167.818181818 484 167.818181818 484 136.909090909 520.428571429 c 128,-1,4
 106 556.857142857 106 556.857142857 106 603.928571429 c 128,-1,5
 106 651 106 651 137.5 686 c 128,-1,6
 169 721 169 721 225.5 721 c 128,-1,7
 282 721 282 721 313.5 686 c 128,-1,8
 345 651 345 651 345 602.5 c 128,-1,0
 345 554 345 554 313.5 519 c 128,-1,1
EndSplineSet
EndChar

StartChar: omicrontonos
Encoding: 972 972 212
Width: 463
GlyphClass: 2
Flags: W
LayerCount: 2
UndoRedoHistory
Layer: 1
Undoes
EndUndoes
Redoes
EndRedoes
EndUndoRedoHistory
Fore
SplineSet
313.5 519 m 128,-1,1
 282 484 282 484 224.909090909 484 c 0,2,3
 167.818181818 484 167.818181818 484 136.909090909 520.428571429 c 128,-1,4
 106 556.857142857 106 556.857142857 106 603.928571429 c 128,-1,5
 106 651 106 651 137.5 686 c 128,-1,6
 169 721 169 721 225.5 721 c 128,-1,7
 282 721 282 721 313.5 686 c 128,-1,8
 345 651 345 651 345 602.5 c 128,-1,0
 345 554 345 554 313.5 519 c 128,-1,1
EndSplineSet
EndChar

StartChar: upsilontonos
Encoding: 973 973 213
Width: 463
GlyphClass: 2
Flags: W
LayerCount: 2
UndoRedoHistory
Layer: 1
Undoes
EndUndoes
Redoes
EndRedoes
EndUndoRedoHistory
Fore
SplineSet
313.5 519 m 128,-1,1
 282 484 282 484 224.909090909 484 c 0,2,3
 167.818181818 484 167.818181818 484 136.909090909 520.428571429 c 128,-1,4
 106 556.857142857 106 556.857142857 106 603.928571429 c 128,-1,5
 106 651 106 651 137.5 686 c 128,-1,6
 169 721 169 721 225.5 721 c 128,-1,7
 282 721 282 721 313.5 686 c 128,-1,8
 345 651 345 651 345 602.5 c 128,-1,0
 345 554 345 554 313.5 519 c 128,-1,1
EndSplineSet
EndChar

StartChar: omegatonos
Encoding: 974 974 214
Width: 463
GlyphClass: 2
Flags: W
LayerCount: 2
UndoRedoHistory
Layer: 1
Undoes
EndUndoes
Redoes
EndRedoes
EndUndoRedoHistory
Fore
SplineSet
313.5 519 m 128,-1,1
 282 484 282 484 224.909090909 484 c 0,2,3
 167.818181818 484 167.818181818 484 136.909090909 520.428571429 c 128,-1,4
 106 556.857142857 106 556.857142857 106 603.928571429 c 128,-1,5
 106 651 106 651 137.5 686 c 128,-1,6
 169 721 169 721 225.5 721 c 128,-1,7
 282 721 282 721 313.5 686 c 128,-1,8
 345 651 345 651 345 602.5 c 128,-1,0
 345 554 345 554 313.5 519 c 128,-1,1
EndSplineSet
EndChar

StartChar: uni0403
Encoding: 1027 1027 216
Width: 1047
GlyphClass: 2
Flags: W
LayerCount: 2
UndoRedoHistory
Layer: 1
Undoes
EndUndoes
Redoes
EndRedoes
EndUndoRedoHistory
Fore
SplineSet
160 0 m 1,0,-1
 160 1346 l 1,1,-1
 1008 1346 l 1,2,-1
 995 1205 l 1,3,-1
 334 1205 l 1,4,-1
 334 0 l 1,5,-1
 160 0 l 1,0,-1
EndSplineSet
EndChar

StartChar: uni0405
Encoding: 1029 1029 217
Width: 1248
GlyphClass: 2
Flags: W
LayerCount: 2
UndoRedoHistory
Layer: 1
Undoes
EndUndoes
Redoes
EndRedoes
EndUndoRedoHistory
Fore
SplineSet
133 1016 m 0,0,1
 133 1368 133 1368 608.16 1368 c 0,2,3
 913.390243902 1368 913.390243902 1368 1044 1283 c 1,4,-1
 1008 1179 l 1,5,6
 863 1251 863 1251 658.5 1251 c 128,-1,7
 454 1251 454 1251 361.5 1199.5 c 128,-1,8
 269 1148 269 1148 269 1029 c 0,9,10
 269 944 269 944 325 894 c 128,-1,11
 381 844 381 844 498 818 c 2,12,-1
 768 759 l 2,13,14
 1016.90171713 704.047672842 1016.90171713 704.047672842 1082 540 c 0,15,16
 1107 477 1107 477 1107 396 c 0,17,18
 1107 136 1107 136 905 35 c 0,19,20
 793.985915493 -20.5070422535 793.985915493 -20.5070422535 628.566901408 -20.5070422535 c 128,-1,21
 463.147887324 -20.5070422535 463.147887324 -20.5070422535 332.573943662 14.2464788732 c 128,-1,22
 202 49 202 49 134 93 c 1,23,-1
 177 205 l 1,24,25
 406 97 406 97 647 97 c 0,26,27
 971 97 971 97 971 389 c 0,28,29
 971 530.75 971 530.75 851 589.5 c 0,30,31
 803 613 803 613 731 630 c 2,32,-1
 451 697 l 1,33,34
 133 771.823529412 133 771.823529412 133 1016 c 0,0,1
EndSplineSet
EndChar

StartChar: uni0406
Encoding: 1030 1030 218
Width: 432
GlyphClass: 2
Flags: W
LayerCount: 2
UndoRedoHistory
Layer: 1
Undoes
EndUndoes
Redoes
EndRedoes
EndUndoRedoHistory
Fore
SplineSet
136 0 m 1,0,-1
 136 1362 l 1,1,-1
 297 1362 l 1,2,-1
 297 0 l 1,3,-1
 136 0 l 1,0,-1
EndSplineSet
EndChar

StartChar: uni0408
Encoding: 1032 1032 219
Width: 654
GlyphClass: 2
Flags: W
LayerCount: 2
UndoRedoHistory
Layer: 1
Undoes
EndUndoes
Redoes
EndRedoes
EndUndoRedoHistory
Fore
SplineSet
162 -177 m 0,0,1
 158 -177 158 -177 141 -135.5 c 128,-1,2
 124 -94 124 -94 119.585714286 -93.1285714286 c 128,-1,3
 115.171428571 -92.2571428571 115.171428571 -92.2571428571 115.171428571 -86.3357142857 c 128,-1,4
 115.171428571 -80.4142857143 115.171428571 -80.4142857143 133.085714286 -57.2071428571 c 128,-1,5
 151 -34 151 -34 146 -34 c 1,6,7
 240.2 -34 240.2 -34 271.194059406 4.74257425743 c 128,-1,8
 302.188118812 43.4851485149 302.188118812 43.4851485149 306.094059406 81.2425742574 c 128,-1,9
 310 119 310 119 311 145 c 1,10,11
 338.883333333 145 338.883333333 145 351 872 c 0,12,13
 353 992 353 992 353 1030 c 1,14,-1
 418 1347 l 1,15,-1
 494 548 l 1,16,-1
 494 520 l 2,17,18
 494 295.375 494 295.375 481.5 228.1875 c 0,19,20
 452.913161465 74.5332428765 452.913161465 74.5332428765 412 18.5 c 0,21,22
 355.412698413 -59 355.412698413 -59 267 -59 c 1,23,24
 270.149891044 -73.6994915379 270.149891044 -73.6994915379 270.149891044 -86.6772889893 c 0,25,26
 270.149891044 -144.323851031 270.149891044 -144.323851031 208 -168 c 0,27,28
 187 -176 187 -176 162 -177 c 0,0,1
EndSplineSet
EndChar

StartChar: uni0409
Encoding: 1033 1033 220
Width: 1784
GlyphClass: 2
Flags: W
LayerCount: 2
UndoRedoHistory
Layer: 1
Undoes
EndUndoes
Redoes
EndRedoes
EndUndoRedoHistory
Fore
SplineSet
87 -26 m 1,0,-1
 87 107 l 1,1,-1
 118 106 l 1,2,3
 224.552631579 106 224.552631579 106 261.276315789 157.685185185 c 128,-1,4
 298 209.37037037 298 209.37037037 298 346 c 2,5,-1
 298 1350 l 1,6,-1
 988 1350 l 1,7,-1
 988 789 l 1,8,-1
 1249 789 l 2,9,10
 1643 789 1643 789 1643 385 c 0,11,12
 1643 130.363636364 1643 130.363636364 1459 41.5 c 0,13,14
 1371 -1 1371 -1 1247 -1 c 2,15,-1
 824 -1 l 1,16,-1
 832 1225 l 1,17,-1
 453 1225 l 1,18,-1
 450 392 l 2,19,20
 450 230 450 230 430.076502732 160.267759563 c 0,21,22
 410.153005464 90.5355191257 410.153005464 90.5355191257 371.436784881 50.772914202 c 0,23,24
 296.684210526 -26 296.684210526 -26 103 -26 c 2,25,-1
 87 -26 l 1,0,-1
983 124 m 1,26,-1
 1243 124 l 2,27,28
 1351 124 1351 124 1417 194 c 128,-1,29
 1483 264 1483 264 1483 388 c 128,-1,30
 1483 512 1483 512 1418 586.5 c 128,-1,31
 1353 661 1353 661 1243 661 c 2,32,-1
 983 661 l 1,33,-1
 983 124 l 1,26,-1
EndSplineSet
EndChar

StartChar: uni040A
Encoding: 1034 1034 221
Width: 1853
GlyphClass: 2
Flags: W
LayerCount: 2
UndoRedoHistory
Layer: 1
Undoes
EndUndoes
Redoes
EndRedoes
EndUndoRedoHistory
Fore
SplineSet
160 0 m 1,0,-1
 160 1346 l 1,1,-1
 334 1346 l 1,2,-1
 334 768 l 1,3,-1
 946 768 l 1,4,-1
 946 1346 l 1,5,-1
 1120 1346 l 1,6,-1
 1120 779 l 1,7,-1
 1340 779 l 2,8,9
 1792 779 1792 779 1792 393 c 0,10,11
 1792 0 1792 0 1334 0 c 2,12,-1
 946 0 l 1,13,-1
 946 630 l 1,14,-1
 334 630 l 1,15,-1
 334 0 l 1,16,-1
 160 0 l 1,0,-1
1120 129 m 1,17,-1
 1343 129 l 2,18,19
 1627 129 1627 129 1627 392 c 0,20,21
 1627 526 1627 526 1554 589.5 c 128,-1,22
 1481 653 1481 653 1335 653 c 2,23,-1
 1120 653 l 1,24,-1
 1120 129 l 1,17,-1
EndSplineSet
EndChar

StartChar: uni040F
Encoding: 1039 1039 223
Width: 1327
GlyphClass: 2
Flags: W
LayerCount: 2
UndoRedoHistory
Layer: 1
Undoes
EndUndoes
Redoes
EndRedoes
EndUndoRedoHistory
Fore
SplineSet
601 -275 m 1,0,-1
 601 0 l 1,1,-1
 160 0 l 1,2,-1
 160 1346 l 1,3,-1
 334 1346 l 1,4,-1
 334 138 l 1,5,-1
 993 138 l 1,6,-1
 993 1346 l 1,7,-1
 1167 1346 l 1,8,-1
 1167 0 l 1,9,-1
 760 0 l 1,10,-1
 760 -275 l 1,11,-1
 601 -275 l 1,0,-1
EndSplineSet
EndChar

StartChar: uni0411
Encoding: 1041 1041 224
Width: 1183
GlyphClass: 2
Flags: W
LayerCount: 2
UndoRedoHistory
Layer: 1
Undoes
EndUndoes
Redoes
EndRedoes
EndUndoRedoHistory
Fore
SplineSet
175 0 m 1,0,-1
 175 1348 l 1,1,-1
 965 1348 l 1,2,-1
 965 1232 l 1,3,-1
 324 1232 l 1,4,-1
 324 775 l 1,5,-1
 642 775 l 2,6,7
 1011.10714286 775 1011.10714286 775 1071 517 c 0,8,9
 1084 461 1084 461 1084 390.5 c 0,10,11
 1084 163.96 1084 163.96 940.638270647 67.9076413336 c 0,12,13
 839.28358209 2.84217094304e-14 839.28358209 2.84217094304e-14 640 0 c 2,14,-1
 175 0 l 1,0,-1
324 112 m 1,15,-1
 648 112 l 2,16,17
 795 112 795 112 864 179.5 c 128,-1,18
 933 247 933 247 933 390 c 128,-1,19
 933 533 933 533 862.5 599 c 128,-1,20
 792 665 792 665 638 665 c 2,21,-1
 324 665 l 1,22,-1
 324 112 l 1,15,-1
EndSplineSet
EndChar

StartChar: uni0413
Encoding: 1043 1043 226
Width: 976
GlyphClass: 2
Flags: W
LayerCount: 2
UndoRedoHistory
Layer: 1
Undoes
EndUndoes
Redoes
EndRedoes
EndUndoRedoHistory
Fore
SplineSet
175 0 m 1,0,-1
 175 1348 l 1,1,-1
 1023 1348 l 1,2,-1
 1012 1221 l 1,3,-1
 324 1221 l 1,4,-1
 324 0 l 1,5,-1
 175 0 l 1,0,-1
EndSplineSet
EndChar

StartChar: uni0414
Encoding: 1044 1044 227
Width: 1368
GlyphClass: 2
Flags: W
LayerCount: 2
UndoRedoHistory
Layer: 1
Undoes
EndUndoes
Redoes
EndRedoes
EndUndoRedoHistory
Fore
SplineSet
-38 -275 m 1,0,-1
 -38 138 l 1,1,-1
 112 138 l 1,2,3
 156 169 156 169 183 253.5 c 128,-1,4
 210 338 210 338 234.560655738 518.855737705 c 0,5,6
 259.121311475 699.71147541 259.121311475 699.71147541 321 1346 c 1,7,-1
 1152 1346 l 1,8,-1
 1152 138 l 1,9,-1
 1306 138 l 1,10,-1
 1306 -275 l 1,11,-1
 1145 -275 l 1,12,-1
 1145 0 l 1,13,-1
 126 0 l 1,14,-1
 126 -275 l 1,15,-1
 -38 -275 l 1,0,-1
317 138 m 1,16,-1
 978 138 l 1,17,-1
 978 1205 l 1,18,-1
 482 1205 l 1,19,-1
 482 1202 l 1,20,21
 457 957 457 957 434 721.5 c 128,-1,22
 411 486 411 486 387 348.5 c 128,-1,23
 363 211 363 211 317 138 c 1,16,-1
EndSplineSet
EndChar

StartChar: uni0416
Encoding: 1046 1046 229
Width: 1851
GlyphClass: 2
Flags: W
LayerCount: 2
UndoRedoHistory
Layer: 1
Undoes
EndUndoes
Redoes
EndRedoes
EndUndoRedoHistory
Fore
SplineSet
95 0 m 1,0,-1
 692 668 l 1,1,-1
 166 1346 l 1,2,-1
 362 1346 l 1,3,-1
 832 735 l 1,4,-1
 832 1346 l 1,5,-1
 1006 1346 l 1,6,-1
 1006 733 l 1,7,-1
 1477 1346 l 1,8,-1
 1673 1346 l 1,9,-1
 1147 668 l 1,10,-1
 1744 0 l 1,11,-1
 1535 0 l 1,12,-1
 1006 600 l 1,13,-1
 1006 0 l 1,14,-1
 832 0 l 1,15,-1
 832 599 l 1,16,-1
 304 0 l 1,17,-1
 95 0 l 1,0,-1
EndSplineSet
EndChar

StartChar: uni0418
Encoding: 1048 1048 230
Width: 1465
GlyphClass: 2
Flags: W
LayerCount: 2
UndoRedoHistory
Layer: 1
Undoes
EndUndoes
Redoes
EndRedoes
EndUndoRedoHistory
Fore
SplineSet
800 518 m 1,0,1
 968.759753593 823.513347023 968.759753593 823.513347023 1135 1051 c 1,2,3
 1134 1049 1134 1049 1189 1093 c 128,-1,4
 1244 1137 1244 1137 1298.5 1180.5 c 2,5,-1
 1351 1222 l 1,6,-1
 1184 -650 l 1,7,-1
 800 -650 l 1,8,-1
 800 518 l 1,0,1
893.631694675 1557.41134252 m 1,9,10
 800.181238583 1392.64801397 800.181238583 1392.64801397 800 1312 c 2,11,-1
 800 518 l 1,12,13
 653.040625 251.884375 653.040625 251.884375 520 61 c 1,14,-1
 526 378 l 1,15,-1
 563 866 l 1,16,17
 752.675712347 1293.70013569 752.675712347 1293.70013569 810.837856174 1404.35006784 c 128,-1,18
 869 1515 869 1515 893.631694675 1557.41134252 c 1,9,10
563 866 m 1,19,20
 343 359 343 359 286 238 c 0,21,22
 118 -122 118 -122 -9 -297 c 1,23,24
 6 -277 6 -277 135 17.5 c 128,-1,25
 264 312 264 312 270 321 c 1,26,-1
 335 1158 l 2,27,28
 400 1995 400 1995 401 1997 c 1,29,-1
 600 1348 l 1,30,-1
 563 866 l 1,19,20
EndSplineSet
EndChar

StartChar: uni041B
Encoding: 1051 1051 231
Width: 1248
GlyphClass: 2
Flags: W
LayerCount: 2
UndoRedoHistory
Layer: 1
Undoes
EndUndoes
Redoes
EndRedoes
EndUndoRedoHistory
Fore
SplineSet
-30 -46 m 1,0,-1
 -60 91 l 1,1,2
 -49 94 -49 94 -21.5 100.5 c 128,-1,3
 6 107 6 107 20.5 111 c 128,-1,4
 35 115 35 115 59 127.5 c 128,-1,5
 83 140 83 140 92 150.5 c 128,-1,6
 101 161 101 161 117 190 c 128,-1,7
 133 219 133 219 138.5 247 c 128,-1,8
 144 275 144 275 155 330.5 c 128,-1,9
 166 386 166 386 170 442.5 c 128,-1,10
 174 499 174 499 184.899328859 626.38590604 c 0,11,12
 195.798657718 753.771812081 195.798657718 753.771812081 224 1346 c 1,13,-1
 1088 1346 l 1,14,-1
 1088 0 l 1,15,-1
 914 0 l 1,16,-1
 914 1205 l 1,17,-1
 391 1205 l 1,18,19
 390 1175 390 1175 384.5 1069 c 128,-1,20
 379 963 379 963 374 859.5 c 128,-1,21
 369 756 369 756 363.5 661.5 c 128,-1,22
 358 567 358 567 346.5 448 c 128,-1,23
 335 329 335 329 324 276.5 c 128,-1,24
 313 224 313 224 291 156.5 c 128,-1,25
 269 89 269 89 243.5 64.5 c 128,-1,26
 218 40 218 40 176.5 10.5 c 128,-1,27
 135 -19 135 -19 87 -29 c 128,-1,28
 39 -39 39 -39 -30 -46 c 1,0,-1
EndSplineSet
EndChar

StartChar: uni041F
Encoding: 1055 1055 233
Width: 1394
GlyphClass: 2
Flags: W
LayerCount: 2
UndoRedoHistory
Layer: 1
Undoes
EndUndoes
Redoes
EndRedoes
EndUndoRedoHistory
Fore
SplineSet
175 0 m 1,0,-1
 175 1348 l 1,1,-1
 1213 1348 l 1,2,-1
 1213 0 l 1,3,-1
 1064 0 l 1,4,-1
 1064 1223 l 1,5,-1
 324 1223 l 1,6,-1
 324 0 l 1,7,-1
 175 0 l 1,0,-1
EndSplineSet
EndChar

StartChar: uni0423
Encoding: 1059 1059 235
Width: 1248
GlyphClass: 2
Flags: W
LayerCount: 2
UndoRedoHistory
Layer: 1
Undoes
EndUndoes
Redoes
EndRedoes
EndUndoRedoHistory
Fore
SplineSet
390 0 m 1,0,-1
 567 424 l 1,1,-1
 64 1346 l 1,2,-1
 255 1346 l 1,3,-1
 670 580 l 1,4,-1
 1029 1346 l 1,5,-1
 1217 1346 l 1,6,-1
 577 0 l 1,7,-1
 390 0 l 1,0,-1
EndSplineSet
EndChar

StartChar: uni0424
Encoding: 1060 1060 236
Width: 1557
GlyphClass: 2
Flags: W
LayerCount: 2
UndoRedoHistory
Layer: 1
Undoes
EndUndoes
Redoes
EndRedoes
EndUndoRedoHistory
Fore
SplineSet
707 0 m 1,0,-1
 707 110 l 1,1,2
 301 148 301 148 162 399 c 0,3,4
 96 517 96 517 96 675 c 0,5,6
 96 922 96 922 251.5 1068.5 c 128,-1,7
 407 1215 407 1215 707 1243 c 1,8,-1
 707 1367 l 1,9,-1
 826 1367 l 1,10,-1
 826 1246 l 1,11,12
 1128 1223 1128 1223 1291.5 1078.5 c 128,-1,13
 1455 934 1455 934 1455 675 c 0,14,15
 1455 504 1455 504 1380 381.5 c 0,16,17
 1231.15508021 138.386631016 1231.15508021 138.386631016 826 108 c 1,18,-1
 826 0 l 1,19,-1
 707 0 l 1,0,-1
707 237 m 1,20,-1
 707 1118 l 1,21,22
 473 1091 473 1091 358.5 978 c 128,-1,23
 244 865 244 865 244 676 c 256,24,25
 244 290.423076923 244 290.423076923 707 237 c 1,20,-1
826 235 m 1,26,27
 1307 283.1 1307 283.1 1307 677.775806452 c 0,28,29
 1307 1072.4516129 1307 1072.4516129 826 1119 c 1,30,-1
 826 235 l 1,26,27
EndSplineSet
EndChar

StartChar: uni0426
Encoding: 1062 1062 237
Width: 1394
GlyphClass: 2
Flags: W
LayerCount: 2
UndoRedoHistory
Layer: 1
Undoes
EndUndoes
Redoes
EndRedoes
EndUndoRedoHistory
Fore
SplineSet
1120 -269 m 1,0,-1
 1120 0 l 1,1,-1
 175 0 l 1,2,-1
 175 1348 l 1,3,-1
 324 1348 l 1,4,-1
 324 125 l 1,5,-1
 969 125 l 1,6,-1
 969 1348 l 1,7,-1
 1118 1348 l 1,8,-1
 1118 147 l 1,9,-1
 1260 147 l 1,10,-1
 1260 -269 l 1,11,-1
 1120 -269 l 1,0,-1
EndSplineSet
EndChar

StartChar: uni0427
Encoding: 1063 1063 238
Width: 1002
GlyphClass: 2
Flags: W
LayerCount: 2
UndoRedoHistory
Layer: 1
Undoes
EndUndoes
Redoes
EndRedoes
EndUndoRedoHistory
Fore
SplineSet
814 -4 m 1,0,-1
 813 444 l 1,1,2
 823.656716418 447.044776119 823.656716418 447.044776119 537 450 c 2,3,-1
 441 451 l 1,4,5
 270 451 270 451 183.5 550 c 128,-1,6
 97 649 97 649 97 819 c 2,7,-1
 97 1350 l 1,8,-1
 257 1350 l 1,9,-1
 257 854 l 2,10,11
 257 663.213114754 257 663.213114754 341.5 617.5 c 0,12,13
 392.333333333 590 392.333333333 590 491 590 c 1,14,15
 804 585 804 585 814 582 c 1,16,-1
 814 1350 l 1,17,-1
 970 1350 l 1,18,-1
 970 -4 l 1,19,-1
 814 -4 l 1,0,-1
EndSplineSet
EndChar

StartChar: uni0428
Encoding: 1064 1064 239
Width: 1497
GlyphClass: 2
Flags: W
LayerCount: 2
UndoRedoHistory
Layer: 1
Undoes
EndUndoes
Redoes
EndRedoes
EndUndoRedoHistory
Fore
SplineSet
144 0 m 1,0,-1
 144 1348 l 1,1,-1
 277 1348 l 1,2,-1
 277 129 l 1,3,-1
 674 129 l 1,4,-1
 674 1348 l 1,5,-1
 807 1348 l 1,6,-1
 807 129 l 1,7,-1
 1216 129 l 1,8,-1
 1216 1348 l 1,9,-1
 1349 1348 l 1,10,-1
 1349 0 l 1,11,-1
 144 0 l 1,0,-1
EndSplineSet
EndChar

StartChar: uni0429
Encoding: 1065 1065 240
Width: 1567
GlyphClass: 2
Flags: W
LayerCount: 2
UndoRedoHistory
Layer: 1
Undoes
EndUndoes
Redoes
EndRedoes
EndUndoRedoHistory
Fore
SplineSet
1334 -269 m 1,0,-1
 1335 0 l 1,1,-1
 175 0 l 1,2,-1
 175 1348 l 1,3,-1
 308 1348 l 1,4,-1
 308 129 l 1,5,-1
 706 129 l 1,6,-1
 706 1348 l 1,7,-1
 838 1348 l 1,8,-1
 838 129 l 1,9,-1
 1246 129 l 1,10,-1
 1246 1348 l 1,11,-1
 1380 1348 l 1,12,-1
 1380 147 l 1,13,-1
 1472 147 l 1,14,-1
 1472 -269 l 1,15,-1
 1334 -269 l 1,0,-1
EndSplineSet
EndChar

StartChar: uni042A
Encoding: 1066 1066 241
Width: 1404
GlyphClass: 2
Flags: W
LayerCount: 2
UndoRedoHistory
Layer: 1
Undoes
EndUndoes
Redoes
EndRedoes
EndUndoRedoHistory
Fore
SplineSet
820 753 m 2,0,1
 1312 753 1312 753 1312 374.5 c 128,-1,2
 1312 -4 1312 -4 821 -4 c 2,3,-1
 481 -4 l 1,4,-1
 481 1223 l 1,5,-1
 156 1223 l 1,6,-1
 156 1350 l 1,7,-1
 639 1350 l 1,8,-1
 639 753 l 1,9,-1
 820 753 l 2,0,1
639 124 m 1,10,-1
 840 124 l 2,11,12
 967.096774194 124 967.096774194 124 1017.5483871 147 c 128,-1,13
 1068 170 1068 170 1090.5 190.5 c 128,-1,14
 1113 211 1113 211 1131 252.538461538 c 0,15,16
 1149 294.076923077 1149 294.076923077 1149 367.038461538 c 128,-1,17
 1149 440 1149 440 1134.5 483 c 128,-1,18
 1120 526 1120 526 1086 559.5 c 0,19,20
 1017.49253731 627 1017.49253731 627 839 627 c 2,21,-1
 639 627 l 1,22,-1
 639 124 l 1,10,-1
EndSplineSet
EndChar

StartChar: uni042B
Encoding: 1067 1067 242
Width: 1032
GlyphClass: 2
Flags: W
LayerCount: 2
UndoRedoHistory
Layer: 1
Undoes
EndUndoes
Redoes
EndRedoes
EndUndoRedoHistory
Fore
SplineSet
149 0 m 1,0,-1
 149 1346 l 1,1,-1
 324 1346 l 1,2,-1
 324 773 l 1,3,-1
 454 773 l 2,4,5
 695 773 695 773 822 673 c 128,-1,6
 949 573 949 573 949 389 c 0,7,8
 949 205 949 205 820 102.5 c 128,-1,9
 691 0 691 0 441 0 c 2,10,-1
 149 0 l 1,0,-1
324 141 m 1,11,-1
 459 141 l 2,12,13
 627 141 627 141 700.5 200.5 c 128,-1,14
 774 260 774 260 774 382.5 c 0,15,16
 774 505 774 505 699.5 569 c 128,-1,17
 625 633 625 633 453 633 c 2,18,-1
 324 633 l 1,19,-1
 324 141 l 1,11,-1
EndSplineSet
EndChar

StartChar: uni042E
Encoding: 1070 1070 243
Width: 2007
GlyphClass: 2
Flags: W
LayerCount: 2
UndoRedoHistory
Layer: 1
Undoes
EndUndoes
Redoes
EndRedoes
EndUndoRedoHistory
Fore
SplineSet
1179.5 -22 m 0,0,1
 865.682926829 -22 865.682926829 -22 699 246 c 0,2,3
 597.286459378 409.539418255 597.286459378 409.539418255 583 632 c 1,4,-1
 274 632 l 1,5,-1
 274 -3 l 1,6,-1
 131 -3 l 1,7,-1
 131 1366 l 1,8,-1
 274 1366 l 1,9,-1
 274 756 l 1,10,-1
 586 756 l 1,11,12
 604.043271517 1040.68272838 604.043271517 1040.68272838 754.142937534 1216.84136419 c 128,-1,13
 904.24260355 1393 904.24260355 1393 1166 1393 c 0,14,15
 1306 1393 1306 1393 1420.5 1339 c 128,-1,16
 1535 1285 1535 1285 1611.5 1189 c 0,17,18
 1771 988.843137255 1771 988.843137255 1771 676 c 0,19,20
 1771 315.234042553 1771 315.234042553 1550.5 113.5 c 0,21,22
 1402.39534884 -22 1402.39534884 -22 1179.5 -22 c 0,0,1
1179 101 m 0,23,24
 1429.2244898 101 1429.2244898 101 1548 343.5 c 0,25,26
 1619 488.458333333 1619 488.458333333 1619 682 c 0,27,28
 1619 974.733333333 1619 974.733333333 1457.5 1147 c 0,29,30
 1343.125 1269 1343.125 1269 1168 1269 c 0,31,32
 962.090909091 1269 962.090909091 1269 847.045454545 1097.98648649 c 128,-1,33
 732 926.972972973 732 926.972972973 732 680 c 0,34,35
 732 316.367647059 732 316.367647059 933 173.5 c 0,36,37
 1035 101 1035 101 1179 101 c 0,23,24
EndSplineSet
EndChar

StartChar: uni0431
Encoding: 1073 1073 244
Width: 992
GlyphClass: 2
Flags: W
LayerCount: 2
UndoRedoHistory
Layer: 1
Undoes
EndUndoes
Redoes
EndRedoes
EndUndoRedoHistory
Fore
SplineSet
685.5 14.5 m 128,-1,1
 612 -18 612 -18 534.5 -18 c 0,2,3
 232.141176471 -18 232.141176471 -18 133.002836879 253.830931137 c 0,4,5
 97 352.548387097 97 352.548387097 97 478.774193548 c 128,-1,6
 97 605 97 605 120.5 702.5 c 0,7,8
 222.706299941 1126.54741465 222.706299941 1126.54741465 816 1153 c 1,9,-1
 827 1044 l 1,10,11
 542.150493899 1031.05229518 542.150493899 1031.05229518 398.5 917.5 c 0,12,13
 284.449784692 827.346020281 284.449784692 827.346020281 251 666 c 1,14,15
 299.75 692 299.75 692 332.375 710 c 0,16,17
 446.5625 773 446.5625 773 548.099431818 773 c 128,-1,18
 649.636363636 773 649.636363636 773 698.318181818 747.5 c 0,19,20
 912 635.571428571 912 635.571428571 912 384.976190476 c 0,21,22
 912 221.636363636 912 221.636363636 808.5 103.5 c 0,23,0
 759 47 759 47 685.5 14.5 c 128,-1,1
519 96 m 1,24,25
 664 96 664 96 728 171 c 128,-1,26
 792 246 792 246 792 402.555555556 c 128,-1,27
 792 559.111111111 792 559.111111111 678 633 c 0,28,29
 624 668 624 668 572 668 c 128,-1,30
 520 668 520 668 476.5 659 c 128,-1,31
 433 650 433 650 367.5 618 c 128,-1,32
 302 586 302 586 252 536 c 1,33,34
 246.355704698 487.926174497 246.355704698 487.926174497 246.355704698 444.701139588 c 0,35,36
 246.355704698 265.838926174 246.355704698 265.838926174 343 170 c 0,37,38
 417 97 417 97 519 96 c 1,24,25
EndSplineSet
EndChar

StartChar: uni0432
Encoding: 1074 1074 245
Width: 1060
GlyphClass: 2
Flags: W
LayerCount: 2
UndoRedoHistory
Layer: 1
Undoes
EndUndoes
Redoes
EndRedoes
EndUndoRedoHistory
Fore
SplineSet
167 0 m 1,0,-1
 167 995 l 1,1,-1
 606 995 l 2,2,3
 724.882352941 995 724.882352941 995 797.966996429 959.501744592 c 128,-1,4
 871.051639916 924.003489184 871.051639916 924.003489184 901.5 869 c 128,-1,5
 932 813.903225806 932 813.903225806 932 740.951612903 c 128,-1,6
 932 668 932 668 890 615.5 c 128,-1,7
 848 563 848 563 746 533 c 1,8,9
 881.470588235 505.352941176 881.470588235 505.352941176 937 399.5 c 0,10,11
 966 344.21875 966 344.21875 966 293.109375 c 0,12,13
 966 137 966 137 845.296632124 56.5310880829 c 0,14,15
 760.5 0 760.5 0 601 0 c 2,16,-1
 167 0 l 1,0,-1
320 107 m 1,17,-1
 592 107 l 2,18,19
 720.88 107 720.88 107 761.94 153.659090909 c 128,-1,20
 803 200.318181818 803 200.318181818 803 274.659090909 c 128,-1,21
 803 349 803 349 792.5 370 c 128,-1,22
 782 391 782 391 772.5 404 c 0,23,24
 731.576923077 460 731.576923077 460 611 460 c 2,25,-1
 320 460 l 1,26,-1
 320 107 l 1,17,-1
770 727 m 0,27,28
 770 883 770 883 590 883 c 2,29,-1
 320 883 l 1,30,-1
 320 574 l 1,31,-1
 606 574 l 2,32,33
 733.823529412 574 733.823529412 574 762.5 671.5 c 0,34,35
 770 697 770 697 770 727 c 0,27,28
EndSplineSet
EndChar

StartChar: uni0433
Encoding: 1075 1075 246
Width: 904
GlyphClass: 2
Flags: W
LayerCount: 2
UndoRedoHistory
Layer: 1
Undoes
EndUndoes
Redoes
EndRedoes
EndUndoRedoHistory
Fore
SplineSet
167 0 m 1,0,-1
 167 995 l 1,1,-1
 839 995 l 1,2,-1
 825 891 l 1,3,-1
 320 891 l 1,4,-1
 320 0 l 1,5,-1
 167 0 l 1,0,-1
EndSplineSet
EndChar

StartChar: uni0434
Encoding: 1076 1076 247
Width: 1134
GlyphClass: 2
Flags: W
LayerCount: 2
UndoRedoHistory
Layer: 1
Undoes
EndUndoes
Redoes
EndRedoes
EndUndoRedoHistory
Fore
SplineSet
50 -269 m 1,0,-1
 50 103 l 1,1,-1
 141 103 l 1,2,3
 190 133 190 133 217.5 201.5 c 128,-1,4
 245 270 245 270 269 385 c 1,5,-1
 368 995 l 1,6,-1
 974 995 l 1,7,-1
 974 103 l 1,8,-1
 1045 103 l 1,9,-1
 1045 -269 l 1,10,-1
 917 -269 l 1,11,-1
 921 0 l 1,12,-1
 169 0 l 1,13,-1
 171 -269 l 1,14,-1
 50 -269 l 1,0,-1
305 102 m 1,15,-1
 820 102 l 1,16,-1
 820 894 l 1,17,-1
 493 894 l 1,18,19
 476 783.5 l 2,20,21
 459 670 459 670 441 555 c 2,22,-1
 424 440 l 1,23,24
 390.692522711 243.183088749 390.692522711 243.183088749 335 140.5 c 0,25,26
 319 111 319 111 305 102 c 1,15,-1
EndSplineSet
EndChar

StartChar: uni0436
Encoding: 1078 1078 248
Width: 1424
GlyphClass: 2
Flags: W
LayerCount: 2
UndoRedoHistory
Layer: 1
Undoes
EndUndoes
Redoes
EndRedoes
EndUndoRedoHistory
Fore
SplineSet
45 0 m 1,0,-1
 521 511 l 1,1,-1
 52 995 l 1,2,-1
 201 995 l 1,3,-1
 632 538 l 1,4,-1
 632 995 l 1,5,-1
 782 995 l 1,6,-1
 782 538 l 1,7,-1
 1215 995 l 1,8,-1
 1363 995 l 1,9,-1
 894 511 l 1,10,-1
 1370 0 l 1,11,-1
 1215 0 l 1,12,-1
 782 470 l 1,13,-1
 782 0 l 1,14,-1
 632 0 l 1,15,-1
 632 470 l 1,16,-1
 201 0 l 1,17,-1
 45 0 l 1,0,-1
EndSplineSet
EndChar

StartChar: uni0437
Encoding: 1079 1079 249
Width: 862
GlyphClass: 2
Flags: W
LayerCount: 2
UndoRedoHistory
Layer: 1
Undoes
EndUndoes
Redoes
EndRedoes
EndUndoRedoHistory
Fore
SplineSet
136 818 m 1,0,-1
 96 924 l 1,1,2
 210 1022 210 1022 409.315068493 1022 c 128,-1,3
 608.630136986 1022 608.630136986 1022 687.5 899.5 c 0,4,5
 729 835.042553191 729 835.042553191 729 747 c 0,6,7
 729 621.731343284 729 621.731343284 652.5 563.5 c 0,8,9
 619 538 619 538 570 522 c 1,10,11
 712.111269615 479.366619116 712.111269615 479.366619116 751.5 347.5 c 0,12,13
 763 309 763 309 763 260.5 c 0,14,15
 763 155.106382979 763 155.106382979 661.3 68.5531914894 c 128,-1,16
 559.6 -18 559.6 -18 386.8 -18 c 128,-1,17
 214 -18 214 -18 107 68 c 1,18,-1
 137 182 l 1,19,20
 179 147 179 147 252 123 c 128,-1,21
 325 99 325 99 405.5 99 c 128,-1,22
 486 99 486 99 547 150 c 128,-1,23
 608 201 608 201 608 278 c 0,24,25
 608 417.111111111 608 417.111111111 468.5 455 c 0,26,27
 428 466 428 466 377 466 c 2,28,-1
 272 466 l 1,29,-1
 272 572 l 1,30,-1
 377 572 l 2,31,32
 480 572 480 572 535 618 c 128,-1,33
 590 664 590 664 590 737 c 128,-1,34
 590 810 590 810 536.5 855 c 128,-1,35
 483 900 483 900 365.305555556 900 c 128,-1,36
 247.611111111 900 247.611111111 900 136 818 c 1,0,-1
EndSplineSet
EndChar

StartChar: uni0438
Encoding: 1080 1080 250
Width: 1074
GlyphClass: 2
Flags: W
LayerCount: 2
UndoRedoHistory
Layer: 1
Undoes
EndUndoes
Redoes
EndRedoes
EndUndoRedoHistory
Fore
SplineSet
142 0 m 1,0,-1
 142 995 l 1,1,-1
 272 995 l 1,2,-1
 272 207 l 1,3,-1
 797 905 l 1,4,-1
 797 995 l 1,5,-1
 928 995 l 1,6,-1
 928 0 l 1,7,-1
 797 0 l 1,8,-1
 797 707 l 1,9,-1
 266 0 l 1,10,-1
 142 0 l 1,0,-1
EndSplineSet
EndChar

StartChar: uni043A
Encoding: 1082 1082 251
Width: 1086
GlyphClass: 2
Flags: W
LayerCount: 2
UndoRedoHistory
Layer: 1
Undoes
EndUndoes
Redoes
EndRedoes
EndUndoRedoHistory
Fore
SplineSet
167 0 m 1,0,-1
 167 995 l 1,1,-1
 320 995 l 1,2,-1
 320 543 l 1,3,4
 339.090909091 567.545454545 339.090909091 567.545454545 537.045454545 780.272727273 c 2,5,6
 735 993 l 1,7,-1
 926 994 l 1,8,9
 896 962 896 962 847 910.5 c 128,-1,10
 798 859 798 859 695 749 c 128,-1,11
 592 639 592 639 525 567.5 c 2,12,-1
 462 499 l 1,13,-1
 977 0 l 1,14,-1
 792 0 l 1,15,-1
 320 454 l 1,16,-1
 320 0 l 1,17,-1
 167 0 l 1,0,-1
EndSplineSet
EndChar

StartChar: uni043B
Encoding: 1083 1083 252
Width: 1143
GlyphClass: 2
Flags: W
LayerCount: 2
UndoRedoHistory
Layer: 1
Undoes
EndUndoes
Redoes
EndRedoes
EndUndoRedoHistory
Fore
SplineSet
75 -11 m 1,0,1
 76 -12 76 -12 72 17 c 128,-1,2
 68 46 68 46 64 75.5 c 2,3,-1
 60 104 l 1,4,5
 63.2325556652 103.92816543 63.2325556652 103.92816543 66.4121729706 103.92816543 c 0,6,7
 146.498127989 103.92816543 146.498127989 103.92816543 193 149.5 c 0,8,9
 253.878586673 209.16101494 253.878586673 209.16101494 303 501 c 1,10,-1
 397 995 l 1,11,-1
 971 995 l 1,12,-1
 971 0 l 1,13,-1
 818 0 l 1,14,-1
 818 883 l 1,15,-1
 522 883 l 1,16,-1
 445 475 l 1,17,18
 389.180515759 165.455587393 389.180515759 165.455587393 326 93.5 c 0,19,20
 234.142969784 -11.1149510791 234.142969784 -11.1149510791 120.982440288 -11.1149510791 c 0,21,22
 80.1727985614 -11.1149510791 80.1727985614 -11.1149510791 75 -11 c 1,0,1
EndSplineSet
EndChar

StartChar: uni043C
Encoding: 1084 1084 253
Width: 1180
GlyphClass: 2
Flags: W
LayerCount: 2
UndoRedoHistory
Layer: 1
Undoes
EndUndoes
Redoes
EndRedoes
EndUndoRedoHistory
Fore
SplineSet
167 0 m 1,0,-1
 167 995 l 1,1,-1
 299 995 l 1,2,-1
 587 336 l 1,3,-1
 876 995 l 1,4,-1
 1007 995 l 1,5,-1
 1007 0 l 1,6,-1
 877 0 l 1,7,-1
 877 730 l 1,8,-1
 642 182 l 1,9,-1
 548 182 l 1,10,-1
 296 730 l 1,11,-1
 296 0 l 1,12,-1
 167 0 l 1,0,-1
EndSplineSet
EndChar

StartChar: uni043D
Encoding: 1085 1085 254
Width: 1171
GlyphClass: 2
Flags: W
LayerCount: 2
UndoRedoHistory
Layer: 1
Undoes
EndUndoes
Redoes
EndRedoes
EndUndoRedoHistory
Fore
SplineSet
167 0 m 1,0,-1
 167 995 l 1,1,-1
 320 995 l 1,2,-1
 320 583 l 1,3,-1
 845 583 l 1,4,-1
 845 995 l 1,5,-1
 999 995 l 1,6,-1
 999 0 l 1,7,-1
 845 0 l 1,8,-1
 845 476 l 1,9,-1
 320 476 l 1,10,-1
 320 0 l 1,11,-1
 167 0 l 1,0,-1
EndSplineSet
EndChar

StartChar: uni043F
Encoding: 1087 1087 255
Width: 1069
GlyphClass: 2
Flags: W
LayerCount: 2
UndoRedoHistory
Layer: 1
Undoes
EndUndoes
Redoes
EndRedoes
EndUndoRedoHistory
Fore
SplineSet
140 0 m 1,0,-1
 140 995 l 1,1,-1
 924 995 l 1,2,-1
 924 0 l 1,3,-1
 799 0 l 1,4,-1
 799 881 l 1,5,-1
 265 881 l 1,6,-1
 265 0 l 1,7,-1
 140 0 l 1,0,-1
EndSplineSet
EndChar

StartChar: uni0440
Encoding: 1088 1088 256
Width: 1199
GlyphClass: 2
Flags: W
LayerCount: 2
UndoRedoHistory
Layer: 1
Undoes
EndUndoes
Redoes
EndRedoes
EndUndoRedoHistory
Fore
SplineSet
134 -438 m 1,0,-1
 134 993 l 1,1,-1
 274 993 l 1,2,-1
 290 819 l 1,3,4
 342.163131162 945.395279355 342.163131162 945.395279355 478 992.5 c 0,5,6
 540 1014 540 1014 611 1014 c 0,7,8
 753 1014 753 1014 856 947 c 0,9,10
 1063 812.349514563 1063 812.349514563 1063 489 c 0,11,12
 1063 272 1063 272 940.06405694 125 c 128,-1,13
 817.128113879 -22 817.128113879 -22 619 -22 c 1,14,15
 619 -39.2051948052 619 -39.2051948052 585.485714286 -39.2051948052 c 128,-1,16
 551.971428571 -39.2051948052 551.971428571 -39.2051948052 440.985714286 15.3974025974 c 128,-1,17
 330 70 330 70 281 144 c 1,18,19
 286 66 286 66 286 -64 c 2,20,-1
 286 -429 l 1,21,-1
 134 -438 l 1,0,-1
599 900 m 0,22,23
 286 900 286 900 286 513 c 0,24,25
 286 161.451612903 286 161.451612903 491.5 104 c 0,26,27
 538 91 538 91 598.5 91 c 0,28,29
 780.92 91 780.92 91 860.759259259 247.547567175 c 0,30,31
 912 348.019607843 912 348.019607843 912 482.509803922 c 128,-1,32
 912 617 912 617 879 706 c 128,-1,33
 846 795 846 795 774.5 847.5 c 128,-1,34
 703 900 703 900 599 900 c 0,22,23
EndSplineSet
EndChar

StartChar: uni0442
Encoding: 1090 1090 257
Width: 912
GlyphClass: 2
Flags: W
LayerCount: 2
UndoRedoHistory
Layer: 1
Undoes
EndUndoes
Redoes
EndRedoes
EndUndoRedoHistory
Fore
SplineSet
375 0 m 1,0,-1
 375 878 l 1,1,-1
 95 878 l 1,2,-1
 95 995 l 1,3,-1
 813 995 l 1,4,-1
 813 878 l 1,5,-1
 531 878 l 1,6,-1
 531 0 l 1,7,-1
 375 0 l 1,0,-1
EndSplineSet
EndChar

StartChar: uni0443
Encoding: 1091 1091 258
Width: 1025
GlyphClass: 2
Flags: W
LayerCount: 2
UndoRedoHistory
Layer: 1
Undoes
EndUndoes
Redoes
EndRedoes
EndUndoRedoHistory
Fore
SplineSet
101 -276 m 1,0,-1
 101 -148 l 1,1,2
 136.742590369 -150.785136912 136.742590369 -150.785136912 169.507646533 -150.785136912 c 0,3,4
 329.953150784 -150.785136912 329.953150784 -150.785136912 412.448003963 -88.9139970274 c 128,-1,5
 494.942857143 -27.0428571429 494.942857143 -27.0428571429 513 65.5 c 0,6,7
 517 86 517 86 520 104 c 128,-1,8
 523 122 523 122 524 126 c 1,9,-1
 71 994 l 1,10,-1
 238 994 l 1,11,-1
 583 261 l 1,12,-1
 832 994 l 1,13,-1
 992 994 l 1,14,-1
 636 56 l 1,15,16
 581.186813187 -108.43956044 581.186813187 -108.43956044 520.926518296 -167.360737667 c 0,17,18
 408.561517886 -277.228738067 408.561517886 -277.228738067 153.072235446 -277.228738067 c 0,19,20
 127.417868439 -277.228738067 127.417868439 -277.228738067 101 -276 c 1,0,-1
EndSplineSet
EndChar

StartChar: uni0444
Encoding: 1092 1092 259
Width: 1357
GlyphClass: 2
Flags: W
LayerCount: 2
UndoRedoHistory
Layer: 1
Undoes
EndUndoes
Redoes
EndRedoes
EndUndoRedoHistory
Fore
SplineSet
893 33 m 0,0,1
 784 33 784 33 721 60 c 1,2,-1
 721 -306 l 1,3,-1
 587 -306 l 1,4,-1
 587 60 l 1,5,6
 521.428571429 33 521.428571429 33 417.214285714 33 c 128,-1,7
 313 33 313 33 232.5 96.5 c 128,-1,8
 152 160 152 160 107 268.5 c 128,-1,9
 62 377 62 377 62 508 c 128,-1,10
 62 639 62 639 105 743 c 128,-1,11
 148 847 148 847 228 906.5 c 128,-1,12
 308 966 308 966 406.7 966 c 128,-1,13
 505.4 966 505.4 966 587 932 c 1,14,-1
 587 1203 l 1,15,-1
 721 1203 l 1,16,-1
 721 932 l 1,17,18
 804.866666667 966 804.866666667 966 881.433333333 966 c 0,19,20
 1082.86725664 966 1082.86725664 966 1182.19553655 784.96619951 c 0,21,22
 1246 668.677419355 1246 668.677419355 1246 489.338709677 c 128,-1,23
 1246 310 1246 310 1146.1754717 171.5 c 128,-1,24
 1046.3509434 33 1046.3509434 33 893 33 c 0,0,1
418 144 m 0,25,26
 523.5625 144 523.5625 144 587 173 c 1,27,-1
 587 825 l 1,28,29
 524 856 524 856 410 856 c 0,30,31
 261.785714286 856 261.785714286 856 215.5 640 c 0,32,33
 202 577 202 577 202 494.5 c 128,-1,34
 202 412 202 412 227 330.5 c 128,-1,35
 252 249 252 249 302 196.5 c 128,-1,36
 352 144 352 144 418 144 c 0,25,26
897 856 m 0,37,38
 789.157894737 856 789.157894737 856 721 821 c 1,39,-1
 721 176 l 1,40,41
 782 144 782 144 889 144 c 0,42,43
 954 144 954 144 1004.5 196.5 c 0,44,45
 1106 302.01980198 1106 302.01980198 1106 515.75990099 c 128,-1,46
 1106 729.5 1106 729.5 998 819.5 c 0,47,48
 954.2 856 954.2 856 897 856 c 0,37,38
EndSplineSet
EndChar

StartChar: uni0446
Encoding: 1094 1094 260
Width: 1104
GlyphClass: 2
Flags: W
LayerCount: 2
UndoRedoHistory
Layer: 1
Undoes
EndUndoes
Redoes
EndRedoes
EndUndoRedoHistory
Fore
SplineSet
879 -269 m 1,0,-1
 884 0 l 1,1,-1
 167 0 l 1,2,-1
 167 995 l 1,3,-1
 320 995 l 1,4,-1
 320 104 l 1,5,-1
 797 104 l 1,6,-1
 797 995 l 1,7,-1
 950 995 l 1,8,-1
 950 123 l 1,9,-1
 1044 123 l 1,10,-1
 1044 -269 l 1,11,-1
 879 -269 l 1,0,-1
EndSplineSet
EndChar

StartChar: uni0447
Encoding: 1095 1095 261
Width: 1008
GlyphClass: 2
Flags: W
LayerCount: 2
UndoRedoHistory
Layer: 1
Undoes
EndUndoes
Redoes
EndRedoes
EndUndoRedoHistory
Fore
SplineSet
535.375 362.583333333 m 2,0,-1
 480.7870375 362.4975 l 2,1,2
 310.55 362.4975 310.55 362.4975 220.775 461.74875 c 128,-1,3
 131 561 131 561 131 748 c 2,4,-1
 131 995 l 1,5,-1
 285 995 l 1,6,-1
 285 758 l 2,7,8
 285 556.625 285 556.625 362 508.5 c 0,9,10
 410.8 478 410.8 478 489.9 478 c 0,11,12
 679.5 478 679.5 478 682 458 c 1,13,-1
 682 995 l 1,14,-1
 836 995 l 1,15,-1
 836 0 l 1,16,-1
 682 0 l 1,17,-1
 682 354 l 1,18,19
 688 358 688 358 672.416666667 360.291666667 c 128,-1,20
 656.833333333 362.583333333 656.833333333 362.583333333 535.375 362.583333333 c 2,0,-1
EndSplineSet
EndChar

StartChar: uni0448
Encoding: 1096 1096 262
Width: 1369
GlyphClass: 2
Flags: W
LayerCount: 2
UndoRedoHistory
Layer: 1
Undoes
EndUndoes
Redoes
EndRedoes
EndUndoRedoHistory
Fore
SplineSet
223 0 m 1,0,-1
 223 995 l 1,1,-1
 369 995 l 1,2,-1
 369 103 l 1,3,-1
 643 103 l 1,4,-1
 643 995 l 1,5,-1
 790 995 l 1,6,-1
 790 103 l 1,7,-1
 1064 103 l 1,8,-1
 1064 995 l 1,9,-1
 1211 995 l 1,10,-1
 1211 0 l 1,11,-1
 223 0 l 1,0,-1
EndSplineSet
EndChar

StartChar: uni0449
Encoding: 1097 1097 263
Width: 1353
GlyphClass: 2
Flags: W
LayerCount: 2
UndoRedoHistory
Layer: 1
Undoes
EndUndoes
Redoes
EndRedoes
EndUndoRedoHistory
Fore
SplineSet
1126 -271 m 1,0,-1
 1130 0 l 1,1,-1
 168 0 l 1,2,-1
 168 995 l 1,3,-1
 325 995 l 1,4,-1
 325 104 l 1,5,-1
 623 104 l 1,6,-1
 623 995 l 1,7,-1
 781 995 l 1,8,-1
 781 104 l 1,9,-1
 1038 104 l 1,10,-1
 1038 995 l 1,11,-1
 1195 995 l 1,12,-1
 1195 122 l 1,13,-1
 1290 122 l 1,14,-1
 1290 -271 l 1,15,-1
 1126 -271 l 1,0,-1
EndSplineSet
EndChar

StartChar: uni044A
Encoding: 1098 1098 264
Width: 982
GlyphClass: 2
Flags: W
LayerCount: 2
UndoRedoHistory
Layer: 1
Undoes
EndUndoes
Redoes
EndRedoes
EndUndoRedoHistory
Fore
SplineSet
207 0 m 1,0,-1
 207 890 l 1,1,-1
 56 890 l 1,2,-1
 56 995 l 1,3,-1
 360 995 l 1,4,-1
 360 632 l 1,5,-1
 556 632 l 2,6,7
 769.209876543 632 769.209876543 632 851 499.5 c 0,8,9
 897 424.98 897 424.98 897 325 c 0,10,11
 897 116.5 897 116.5 738 37 c 0,12,13
 664 0 664 0 560 0 c 2,14,-1
 207 0 l 1,0,-1
360 107 m 1,15,-1
 567 107 l 2,16,17
 710.428571429 107 710.428571429 107 736 286 c 0,18,19
 739 307 739 307 739 341.5 c 0,20,21
 739 376 739 376 721 420 c 0,22,23
 679.681818182 521 679.681818182 521 561 521 c 2,24,-1
 360 521 l 1,25,-1
 360 107 l 1,15,-1
EndSplineSet
EndChar

StartChar: uni044B
Encoding: 1099 1099 265
Width: 1397
GlyphClass: 2
Flags: W
LayerCount: 2
UndoRedoHistory
Layer: 1
Undoes
EndUndoes
Redoes
EndRedoes
EndUndoRedoHistory
Fore
SplineSet
149 0 m 1,0,-1
 149 999 l 1,1,-1
 323 999 l 1,2,-1
 323 635 l 1,3,-1
 525 635 l 2,4,5
 779.724770642 635 779.724770642 635 850 443.5 c 0,6,7
 870 389 870 389 870 325.5 c 0,8,9
 870 194.794871795 870 194.794871795 789.180851064 97.3974358974 c 128,-1,10
 708.361702128 -2.13162820728e-14 708.361702128 -2.13162820728e-14 531 0 c 2,11,-1
 149 0 l 1,0,-1
323 122 m 1,12,-1
 533 122 l 2,13,14
 651.391304348 122 651.391304348 122 687 258.5 c 0,15,16
 696 293 696 293 696 348.5 c 128,-1,17
 696 404 696 404 653.5 457.5 c 128,-1,18
 611 511 611 511 527 511 c 2,19,-1
 323 511 l 1,20,-1
 323 122 l 1,12,-1
1074 0 m 1,21,-1
 1074 998 l 1,22,-1
 1248 998 l 1,23,-1
 1248 0 l 1,24,-1
 1074 0 l 1,21,-1
EndSplineSet
EndChar

StartChar: uni044C
Encoding: 1100 1100 266
Width: 946
GlyphClass: 2
Flags: W
LayerCount: 2
UndoRedoHistory
Layer: 1
Undoes
EndUndoes
Redoes
EndRedoes
EndUndoRedoHistory
Fore
SplineSet
167 0 m 1,0,-1
 167 995 l 1,1,-1
 319 995 l 1,2,-1
 319 631 l 1,3,-1
 520 631 l 2,4,5
 732.074074074 631 732.074074074 631 815.5 498.5 c 0,6,7
 861 426.235294118 861 426.235294118 861 325 c 0,8,9
 861 157.866666667 861 157.866666667 753.5 69 c 0,10,11
 670.032258065 -2.13162820728e-14 670.032258065 -2.13162820728e-14 524 0 c 2,12,-1
 167 0 l 1,0,-1
319 107 m 1,13,-1
 531 107 l 2,14,15
 657.876712329 107 657.876712329 107 694 253.5 c 0,16,17
 703 290 703 290 703 327 c 256,18,19
 703 402.317073171 703 402.317073171 672 444.658536585 c 0,20,21
 616.839285714 520 616.839285714 520 524 520 c 2,22,-1
 319 520 l 1,23,-1
 319 107 l 1,13,-1
EndSplineSet
EndChar

StartChar: uni044D
Encoding: 1101 1101 267
Width: 1052
GlyphClass: 2
Flags: W
LayerCount: 2
UndoRedoHistory
Layer: 1
Undoes
EndUndoes
Redoes
EndRedoes
EndUndoRedoHistory
Fore
SplineSet
132 929 m 1,0,1
 239.333333333 1021 239.333333333 1021 415.891156463 1021 c 128,-1,2
 592.448979592 1021 592.448979592 1021 719.938802919 936.581062932 c 128,-1,3
 847.428626247 852.162125863 847.428626247 852.162125863 896 664.5 c 0,4,5
 917 583.363636364 917 583.363636364 917 504.681818182 c 0,6,7
 917 200.903846154 917 200.903846154 706.095601038 52.8651814981 c 0,8,9
 596.589041096 -24 596.589041096 -24 414.144520548 -24 c 128,-1,10
 231.7 -24 231.7 -24 136 63 c 1,11,-1
 172 163 l 1,12,13
 299 88 299 88 437.5 88 c 128,-1,14
 576 88 576 88 672 184 c 128,-1,15
 768 280 768 280 782 437 c 1,16,-1
 364 437 l 1,17,-1
 364 554 l 1,18,-1
 782 554 l 1,19,20
 767 718 767 718 677 813.5 c 128,-1,21
 587 909 587 909 422 909 c 0,22,23
 300.9375 909 300.9375 909 171 832 c 1,24,-1
 132 929 l 1,0,1
EndSplineSet
EndChar

StartChar: uni044E
Encoding: 1102 1102 268
Width: 1405
GlyphClass: 2
Flags: W
LayerCount: 2
UndoRedoHistory
Layer: 1
Undoes
EndUndoes
Redoes
EndRedoes
EndUndoRedoHistory
Fore
SplineSet
863 1021 m 0,0,1
 1263.84705882 1021 1263.84705882 1021 1270 498 c 1,2,3
 1270 185.719101124 1270 185.719101124 1100.5 50.5 c 0,4,5
 1007.11267606 -24 1007.11267606 -24 859 -24 c 0,6,7
 619.871794872 -24 619.871794872 -24 512.5 163.5 c 0,8,9
 449.30744072 273.851185609 449.30744072 273.851185609 441 440 c 1,10,-1
 267 440 l 1,11,-1
 267 0 l 1,12,-1
 142 0 l 1,13,-1
 142 995 l 1,14,-1
 267 995 l 1,15,-1
 267 551 l 1,16,-1
 441 551 l 1,17,18
 458.443429375 838.81658468 458.443429375 838.81658468 630 957 c 0,19,20
 722.903225806 1021 722.903225806 1021 863 1021 c 0,0,1
1079 214 m 0,21,22
 1136 324.2 1136 324.2 1136 490.076923077 c 0,23,24
 1136 725.918032787 1136 725.918032787 1060.9527027 816.959016393 c 128,-1,25
 985.905405405 908 985.905405405 908 859 908 c 0,26,27
 682.165137615 908 682.165137615 908 613 728.5 c 0,28,29
 575 629.880952381 575 629.880952381 575 492 c 0,30,31
 575 255.064516129 575 255.064516129 692 147.5 c 0,32,33
 756.719298246 88 756.719298246 88 848.677830941 88 c 0,34,35
 1013.82758621 88 1013.82758621 88 1079 214 c 0,21,22
EndSplineSet
EndChar

StartChar: uni044F
Encoding: 1103 1103 269
Width: 1073
GlyphClass: 2
Flags: W
LayerCount: 2
UndoRedoHistory
Layer: 1
Undoes
EndUndoes
Redoes
EndRedoes
EndUndoRedoHistory
Fore
SplineSet
120 0 m 1,0,-1
 324 415 l 1,1,2
 167.314540059 461.425321464 167.314540059 461.425321464 125 606 c 0,3,4
 113 647 113 647 113 691.5 c 0,5,6
 113 845.025641026 113 845.025641026 229.679479192 933.283195799 c 0,7,8
 311.271186441 995 311.271186441 995 459 995 c 2,9,-1
 900 995 l 1,10,-1
 900 0 l 1,11,-1
 749 0 l 1,12,-1
 749 401 l 1,13,-1
 474 401 l 1,14,-1
 291 0 l 1,15,-1
 120 0 l 1,0,-1
266 701.711538462 m 0,16,17
 266 513 266 513 439 513 c 2,18,-1
 749 513 l 1,19,-1
 749 883 l 1,20,-1
 439 883 l 2,21,22
 334.098039216 883 334.098039216 883 290 796.5 c 0,23,24
 266 749.423076923 266 749.423076923 266 701.711538462 c 0,16,17
EndSplineSet
EndChar

StartChar: uni0452
Encoding: 1106 1106 270
Width: 1175
GlyphClass: 2
Flags: W
LayerCount: 2
UndoRedoHistory
Layer: 1
Undoes
EndUndoes
Redoes
EndRedoes
EndUndoRedoHistory
Fore
SplineSet
689 -259 m 1,0,-1
 679 -133 l 1,1,-1
 715 -133 l 2,2,3
 832.814814815 -133 832.814814815 -133 860.972592034 -98.4427279578 c 128,-1,4
 889.130369254 -63.8854559156 889.130369254 -63.8854559156 891.565184627 -11.9427279578 c 128,-1,5
 894 40 894 40 894 93 c 2,6,-1
 894 334 l 2,7,8
 894 498 894 498 870.171328671 559.954545455 c 128,-1,9
 846.342657343 621.909090909 846.342657343 621.909090909 815.671328671 640.454545455 c 0,10,11
 760.192307692 674 760.192307692 674 696.596153846 674 c 0,12,13
 574.985074627 674 574.985074627 674 486.006074056 600.400085948 c 128,-1,14
 397.027073485 526.800171895 397.027073485 526.800171895 376 449 c 1,15,-1
 376 0 l 1,16,-1
 228 0 l 1,17,-1
 228 1000 l 1,18,-1
 142 1000 l 1,19,-1
 142 1102 l 1,20,-1
 228 1102 l 1,21,-1
 228 1372 l 1,22,-1
 376 1372 l 1,23,-1
 376 1102 l 1,24,-1
 759 1102 l 1,25,-1
 759 1000 l 1,26,-1
 376 1000 l 1,27,-1
 376 641 l 1,28,29
 508 809 508 809 704 809 c 0,30,31
 1043 809 1043 809 1043 403 c 2,32,-1
 1043 142 l 2,33,34
 1043 -70.16 1043 -70.16 1012.60547015 -138.243746872 c 128,-1,35
 982.210940293 -206.327493743 982.210940293 -206.327493743 921.735099776 -232.663746872 c 128,-1,36
 861.259259259 -259 861.259259259 -259 753 -259 c 2,37,-1
 689 -259 l 1,0,-1
EndSplineSet
EndChar

StartChar: uni0459
Encoding: 1113 1113 271
Width: 1648
GlyphClass: 2
Flags: W
LayerCount: 2
UndoRedoHistory
Layer: 1
Undoes
EndUndoes
Redoes
EndRedoes
EndUndoRedoHistory
Fore
SplineSet
107 -23 m 1,0,-1
 98 116 l 1,1,-1
 141 116 l 2,2,3
 193 116 193 116 210.5 126 c 128,-1,4
 228 136 228 136 237 143 c 128,-1,5
 246 150 246 150 257.5 182.730769231 c 0,6,7
 269 215.461538462 269 215.461538462 269 372 c 2,8,-1
 269 999 l 1,9,-1
 1004 999 l 1,10,-1
 1004 635 l 1,11,-1
 1196 635 l 2,12,13
 1450.72477064 635 1450.72477064 635 1521 443.5 c 0,14,15
 1541 389 1541 389 1541 325.5 c 0,16,17
 1541 194.794871795 1541 194.794871795 1460.18085106 97.3974358974 c 128,-1,18
 1379.36170213 -2.13162820728e-14 1379.36170213 -2.13162820728e-14 1202 0 c 2,19,-1
 851 0 l 1,20,-1
 851 870 l 1,21,-1
 422 870 l 1,22,-1
 422 381 l 2,23,24
 422 168 422 168 410.5 133.5 c 128,-1,25
 399 99 399 99 385.5 68.5 c 128,-1,26
 372 38 372 38 352 25.5 c 128,-1,27
 332 13 332 13 293.428571429 -5 c 128,-1,28
 254.857142857 -23 254.857142857 -23 141 -23 c 2,29,-1
 107 -23 l 1,0,-1
1004 120 m 1,30,-1
 1224 120 l 2,31,32
 1306 120 1306 120 1349.5 185 c 128,-1,33
 1393 250 1393 250 1393 326.5 c 128,-1,34
 1393 403 1393 403 1347.5 457 c 128,-1,35
 1302 511 1302 511 1218 511 c 2,36,-1
 1004 511 l 1,37,-1
 1004 120 l 1,30,-1
EndSplineSet
EndChar

StartChar: uni045A
Encoding: 1114 1114 272
Width: 1523
GlyphClass: 2
Flags: W
LayerCount: 2
UndoRedoHistory
Layer: 1
Undoes
EndUndoes
Redoes
EndRedoes
EndUndoRedoHistory
Fore
SplineSet
142 0 m 1,0,-1
 142 995 l 1,1,-1
 267 995 l 1,2,-1
 267 583 l 1,3,-1
 730 583 l 1,4,-1
 730 995 l 1,5,-1
 856 995 l 1,6,-1
 856 633 l 1,7,-1
 1049 633 l 2,8,9
 1315.97959184 633 1315.97959184 633 1379.5 425.5 c 0,10,11
 1393 381.4 1393 381.4 1393 333.2 c 0,12,13
 1393 137.625 1393 137.625 1256.63113149 48.6064330544 c 0,14,15
 1182.17021277 -7.46069872548e-14 1182.17021277 -7.46069872548e-14 1057 0 c 2,16,-1
 730 0 l 1,17,-1
 730 478 l 1,18,-1
 267 478 l 1,19,-1
 267 0 l 1,20,-1
 142 0 l 1,0,-1
856 104 m 1,21,-1
 1088 104 l 2,22,23
 1214.13333333 104 1214.13333333 104 1254 253.5 c 0,24,25
 1264 291 1264 291 1264 324 c 128,-1,26
 1264 357 1264 357 1253.92786344 399.612885463 c 128,-1,27
 1243.85572687 442.225770925 1243.85572687 442.225770925 1199.7699687 482.112885463 c 128,-1,28
 1155.68421053 522 1155.68421053 522 1081 522 c 2,29,-1
 856 522 l 1,30,-1
 856 104 l 1,21,-1
EndSplineSet
EndChar

StartChar: uni045B
Encoding: 1115 1115 273
Width: 1173
GlyphClass: 2
Flags: W
LayerCount: 2
UndoRedoHistory
Layer: 1
Undoes
EndUndoes
Redoes
EndRedoes
EndUndoRedoHistory
Fore
SplineSet
449.718477046 607.743076807 m 2,0,-1
 608 610 l 1,1,2
 779 610 779 610 857.5 518 c 128,-1,3
 936 426 936 426 936 237 c 2,4,-1
 936 0 l 1,5,-1
 760 0 l 1,6,-1
 760 209 l 2,7,8
 760 409.243902439 760 409.243902439 714.457142857 448.12195122 c 128,-1,9
 668.914285714 487 668.914285714 487 555.457142857 487 c 128,-1,10
 442 487 442 487 395 513 c 1,11,-1
 395 0 l 1,12,-1
 220 0 l 1,13,-1
 220 944 l 1,14,-1
 79 944 l 1,15,-1
 79 1046 l 1,16,-1
 220 1046 l 1,17,-1
 220 1339 l 1,18,-1
 368 1339 l 1,19,-1
 368 1046 l 1,20,-1
 726 1046 l 1,21,-1
 726 945 l 1,22,-1
 395 945 l 1,23,-1
 395 618 l 1,24,25
 410.38538479 607.743076807 410.38538479 607.743076807 449.718477046 607.743076807 c 2,0,-1
EndSplineSet
EndChar

StartChar: uni045F
Encoding: 1119 1119 274
Width: 1027
GlyphClass: 2
Flags: W
LayerCount: 2
UndoRedoHistory
Layer: 1
Undoes
EndUndoes
Redoes
EndRedoes
EndUndoRedoHistory
Fore
SplineSet
489 -241 m 1,0,-1
 486 0 l 1,1,-1
 142 0 l 1,2,-1
 142 995 l 1,3,-1
 267 995 l 1,4,-1
 267 104 l 1,5,-1
 757 104 l 1,6,-1
 757 995 l 1,7,-1
 882 995 l 1,8,-1
 882 0 l 1,9,-1
 592 0 l 1,10,-1
 589 -241 l 1,11,-1
 489 -241 l 1,0,-1
EndSplineSet
EndChar

StartChar: endash
Encoding: 8211 8211 275
Width: 1181
GlyphClass: 2
Flags: W
LayerCount: 2
UndoRedoHistory
Layer: 1
Undoes
EndUndoes
Redoes
EndRedoes
EndUndoRedoHistory
Fore
SplineSet
113 494 m 1,0,-1
 113 616 l 1,1,-1
 1055 616 l 1,2,-1
 1055 494 l 1,3,-1
 113 494 l 1,0,-1
EndSplineSet
EndChar

StartChar: emdash
Encoding: 8212 8212 276
Width: 2259
GlyphClass: 2
Flags: W
LayerCount: 2
UndoRedoHistory
Layer: 1
Undoes
EndUndoes
Redoes
EndRedoes
EndUndoRedoHistory
Fore
SplineSet
129 494 m 1,0,-1
 129 616 l 1,1,-1
 2120 616 l 1,2,-1
 2120 494 l 1,3,-1
 129 494 l 1,0,-1
EndSplineSet
EndChar

StartChar: quoteleft
Encoding: 8216 8216 277
Width: 444
GlyphClass: 2
Flags: W
LayerCount: 2
UndoRedoHistory
Layer: 1
Undoes
EndUndoes
Redoes
EndRedoes
EndUndoRedoHistory
Fore
SplineSet
164 845 m 1,0,-1
 167 1415 l 1,1,-1
 300 1625 l 1,2,-1
 309 1056 l 1,3,-1
 164 845 l 1,0,-1
EndSplineSet
EndChar

StartChar: quoteright
Encoding: 8217 8217 278
Width: 437
GlyphClass: 2
Flags: W
LayerCount: 2
UndoRedoHistory
Layer: 1
Undoes
EndUndoes
Redoes
EndRedoes
EndUndoRedoHistory
Fore
SplineSet
125 1022 m 1,0,-1
 206 1445 l 1,1,-1
 327 1445 l 1,2,-1
 213 1022 l 1,3,-1
 125 1022 l 1,0,-1
EndSplineSet
EndChar

StartChar: quotesinglbase
Encoding: 8218 8218 279
Width: 414
GlyphClass: 2
Flags: W
LayerCount: 2
UndoRedoHistory
Layer: 1
Undoes
EndUndoes
Redoes
EndRedoes
EndUndoRedoHistory
Fore
SplineSet
91 -234 m 1,0,-1
 170 190 l 1,1,-1
 295 190 l 1,2,-1
 180 -234 l 1,3,-1
 91 -234 l 1,0,-1
EndSplineSet
EndChar

StartChar: quotedblleft
Encoding: 8220 8220 280
Width: 729
GlyphClass: 2
Flags: W
LayerCount: 2
UndoRedoHistory
Layer: 1
Undoes
EndUndoes
Redoes
EndRedoes
EndUndoRedoHistory
Fore
SplineSet
164 845 m 1,0,-1
 165 1415 l 1,1,-1
 304 1625 l 1,2,-1
 305 1056 l 1,3,-1
 164 845 l 1,0,-1
445 845 m 1,4,-1
 454 1415 l 1,5,-1
 585 1625 l 1,6,-1
 596 1056 l 1,7,-1
 445 845 l 1,4,-1
EndSplineSet
EndChar

StartChar: quotedblright
Encoding: 8221 8221 281
Width: 644
GlyphClass: 2
Flags: W
LayerCount: 2
UndoRedoHistory
Layer: 1
Undoes
EndUndoes
Redoes
EndRedoes
EndUndoRedoHistory
Fore
SplineSet
95 1025 m 1,0,-1
 175 1445 l 1,1,-1
 301 1445 l 1,2,-1
 183 1025 l 1,3,-1
 95 1025 l 1,0,-1
354 1026 m 1,4,-1
 434 1445 l 1,5,-1
 563 1445 l 1,6,-1
 444 1026 l 1,7,-1
 354 1026 l 1,4,-1
EndSplineSet
EndChar

StartChar: quotedblbase
Encoding: 8222 8222 282
Width: 668
GlyphClass: 2
Flags: W
LayerCount: 2
UndoRedoHistory
Layer: 1
Undoes
EndUndoes
Redoes
EndRedoes
EndUndoRedoHistory
Fore
SplineSet
80 -234 m 1,0,-1
 156 190 l 1,1,-1
 278 190 l 1,2,-1
 167 -234 l 1,3,-1
 80 -234 l 1,0,-1
360 -234 m 1,4,-1
 434 190 l 1,5,-1
 561 190 l 1,6,-1
 446 -234 l 1,7,-1
 360 -234 l 1,4,-1
EndSplineSet
EndChar

StartChar: dagger
Encoding: 8224 8224 283
Width: 869
GlyphClass: 2
Flags: W
LayerCount: 2
UndoRedoHistory
Layer: 1
Undoes
EndUndoes
Redoes
EndRedoes
EndUndoRedoHistory
Fore
SplineSet
378 112 m 1,0,-1
 378 971 l 1,1,-1
 109 971 l 1,2,-1
 109 1045 l 1,3,-1
 378 1045 l 1,4,-1
 378 1435 l 1,5,-1
 474 1435 l 1,6,-1
 474 1045 l 1,7,-1
 748 1045 l 1,8,-1
 748 971 l 1,9,-1
 477 971 l 1,10,-1
 477 112 l 1,11,-1
 378 112 l 1,0,-1
EndSplineSet
EndChar

StartChar: daggerdbl
Encoding: 8225 8225 284
Width: 935
GlyphClass: 2
Flags: W
LayerCount: 2
UndoRedoHistory
Layer: 1
Undoes
EndUndoes
Redoes
EndRedoes
EndUndoRedoHistory
Fore
SplineSet
416 140 m 1,0,-1
 416 445 l 1,1,-1
 128 445 l 1,2,-1
 128 562 l 1,3,-1
 416 562 l 1,4,-1
 416 987 l 1,5,-1
 133 987 l 1,6,-1
 133 1104 l 1,7,-1
 416 1104 l 1,8,-1
 416 1436 l 1,9,-1
 513 1436 l 1,10,-1
 513 1104 l 1,11,-1
 802 1104 l 1,12,-1
 802 987 l 1,13,-1
 513 987 l 1,14,-1
 513 562 l 1,15,-1
 795 562 l 1,16,-1
 795 445 l 1,17,-1
 513 445 l 1,18,-1
 513 140 l 1,19,-1
 416 140 l 1,0,-1
EndSplineSet
EndChar

StartChar: bullet
Encoding: 8226 8226 285
Width: 789
GlyphClass: 2
Flags: W
LayerCount: 2
UndoRedoHistory
Layer: 1
Undoes
EndUndoes
Redoes
EndRedoes
EndUndoRedoHistory
Fore
SplineSet
394 391 m 256,0,1
 275.783783784 391 275.783783784 391 189.391891892 469.925925926 c 128,-1,2
 103 548.851851852 103 548.851851852 103 702.919259259 c 128,-1,3
 103 856.986666667 103 856.986666667 228.5 944 c 1,4,5
 345.24142727 996.270731417 345.24142727 996.270731417 376.233282135 996.270731417 c 0,6,7
 378.463707055 996.270731417 378.463707055 996.270731417 380.25 996 c 0,8,9
 516.567567568 996 516.567567568 996 604.283783784 916.841463415 c 0,10,11
 692 837.682926829 692 837.682926829 692 695.73302968 c 0,12,13
 692 553.78313253 692 553.78313253 603.111842105 472.391566265 c 128,-1,14
 514.223684211 391 514.223684211 391 394 391 c 256,0,1
EndSplineSet
EndChar

StartChar: ellipsis
Encoding: 8230 8230 286
Width: 1354
GlyphClass: 2
Flags: W
LayerCount: 2
UndoRedoHistory
Layer: 1
Undoes
EndUndoes
Redoes
EndRedoes
EndUndoRedoHistory
Fore
SplineSet
228 -11 m 128,-1,1
 171 -11 171 -11 139 24.5 c 128,-1,2
 107 60 107 60 107 109 c 128,-1,3
 107 158 107 158 139 193.5 c 128,-1,4
 171 229 171 229 228 229 c 128,-1,5
 285 229 285 229 317 193.5 c 128,-1,6
 349 158 349 158 349 109 c 128,-1,7
 349 60 349 60 317 24.5 c 128,-1,0
 285 -11 285 -11 228 -11 c 128,-1,1
678 -11 m 128,-1,9
 621 -11 621 -11 589 24.5 c 128,-1,10
 557 60 557 60 557 109 c 128,-1,11
 557 158 557 158 589 193.5 c 128,-1,12
 621 229 621 229 678 229 c 128,-1,13
 735 229 735 229 767 193.5 c 128,-1,14
 799 158 799 158 799 109 c 128,-1,15
 799 60 799 60 767 24.5 c 128,-1,8
 735 -11 735 -11 678 -11 c 128,-1,9
1127 -11 m 128,-1,17
 1070 -11 1070 -11 1038 24.5 c 128,-1,18
 1006 60 1006 60 1006 109 c 128,-1,19
 1006 158 1006 158 1038 193.5 c 128,-1,20
 1070 229 1070 229 1127 229 c 128,-1,21
 1184 229 1184 229 1216.5 193.5 c 128,-1,22
 1249 158 1249 158 1249 109 c 128,-1,23
 1249 60 1249 60 1216.5 24.5 c 128,-1,16
 1184 -11 1184 -11 1127 -11 c 128,-1,17
EndSplineSet
EndChar

